<mxfile host="app.diagrams.net" modified="2023-12-01T05:28:04.483Z" agent="Mozilla/5.0 (Windows NT 10.0; Win64; x64; rv:120.0) Gecko/20100101 Firefox/120.0" etag="NsATPAVXsAlDPhtJb-hF" version="22.1.5" type="github">
  <diagram name="第 1 页" id="VCTxCDNJW07lnHjj4rCM">
    <mxGraphModel dx="1781" dy="613" grid="1" gridSize="10" guides="1" tooltips="1" connect="1" arrows="1" fold="1" page="1" pageScale="1" pageWidth="827" pageHeight="1169" math="0" shadow="0">
      <root>
        <mxCell id="0" />
        <mxCell id="1" parent="0" />
        <mxCell id="yFkyUFHExI6dtQQUWFf7-2" value="" style="shape=image;verticalLabelPosition=bottom;labelBackgroundColor=default;verticalAlign=top;aspect=fixed;imageAspect=0;image=data:image/png,iVBORw0KGgoAAAANSUhEUgAAAzkAAAOACAYAAAAZ172kAAAgAElEQVR4XuzdeYCM9eMH8PeOtWvXunbdV7kqLOX+JiQiSqlI5IqwWLlZx7rXfbPuW4gUilT0o1CiSIcoypFjUdpl11pm7e95dnZ2npl5ZuZ5npkxszPv/ev7zXN9Xp9nZp7387kCMoQ/8I8CFKAABShAAQpQgAIUoICPCAQw5PhITbIYFKAABShAAQpQgAIUoECmAEMObwQKUIACFKAABShAAQpQwKcEGHJ8qjpZGApQgAIUoAAFKEABClCAIYf3AAUoQAEKUIACFKAABSjgUwIMOT5VnSwMBShAAQpQgAIUoAAFKMCQw3uAAhSgAAUoQAEKUIACFPApAYYcn6pOFoYCFKAABShAAQpQgAIUYMjhPUABClCAAhSgAAUoQAEK+JQAQ45PVScLQwEKUIACFKAABShAAQow5PAeoAAFKEABClCAAhSgAAV8SoAhx6eqk4WhAAUoQAEKUIACFKAABRhyeA9QgAIUoAAFKEABClCAAj4lwJDjU9XJwlCAAhSgAAUoQAEKUIACDDm8ByhAAQpQgAIUoAAFKEABnxJgyPGp6mRhKEABClCAAhSgAAUoQAGGHN4DFKAABShAAQpQgAIUoIBPCTDk+FR1sjAUoAAFKEABClCAAhSgAEMO7wEKUIACFKAABShAAQpQwKcEGHJ8qjpZGApQgAIUoAAFKEABClCAIYf3AAUoQAEKUIACFKAABSjgUwIMOT5VnSwMBShAAQpQgAIUoAAFKMCQw3uAAhSgAAUoQAEKUIACFPApAYYcn6pOFoYCFKAABShAAQpQgAIUYMjhPUABClCAAhSgAAUoQAEK+JQAQ45PVScLQwEKUIACFKAABShAAQow5PAeoAAFKEABClCAAhSgAAV8SoAhx6eqk4WhAAUoQAEKUIACFKAABRhyeA9QgAIUoAAFKEABClCAAj4lwJDjU9XJwlCAAhSgAAUoQAEKUIACDDm8ByhAAQpQgAIUoAAFKEABnxJgyPGp6mRhKEABClCAAhSgAAUoQAGGHN4DFKAABShAAQpQgAIUoIBPCTDk+FR1sjAUoAAFKEABClCAAhSgAEMO7wEKUIACFKAABShAAQpQwKcEGHJ8qjpZGApQgAIUoAAFKEABClCAIYf3AAUoQAEKUIACFKAABSjgUwIMOT5VnSwMBShAAQpQgAIUoAAFKMCQw3uAAhSgAAUoQAEKUIACFPApAS8OOQn44asrKBpZCSUjwhAYEOBT8CwMBShAAQpQgAIUoAAFKOAeAa8NOfcubkb0wC34J0MouC4IYYVKoHy5/6HLyDdRQee+wLNzUnusPp5mph1avRc2TmjpnhrgUSlAAQpQgAIUoAAFKEABlwp4bchJ2jsZby/+waywuSKa4a0XbuPUH3pNCNVfGY6Xq+W2u6/SkHPvr43oM+RD3NR0JYadjOFJ7pxOHDZz1wZ9tmBI8yBnD8P9KUABClCAAhSgAAUokOMEvDbk7J/9NhYcSjIDDf/fYLx6b5FVS4tSdSUP/gw5aTi+aSJmb/sNd9JNsmzNUnqXcTsKUIACFKAABShAAU8LeGnIOY9FfYbiywTJU7Yg9b+eG1HlWHenQs67T3yK4WN34D+xG1zWX2i1t7Fk6HOZ/8+fQ07yub2YPXUVTtww764nujDkePqjyvNTgAIUoAAFKEABCigV8MqQo7+xAwOi1uGKJIgAZdBzyVykr+joXMipuNWqm5n0Ad4fQ07ajd+wbdVCfHQkAeaxUhIEOS5J6WeK21GAAhSgAAUoQAEKeFjAK0POtV3j0HvVz2Y0gUVaYM7SXjgxuYPXhhzjNZaRmRghZf90dFrwnVmZjOHq4o97cNKi1cqwoR4/fboORy6bR4/cpRqg20tV7N46pas3R7VSuexso0fi2W+wecP7+PKnazbDjfEAbMnx8CeVp6cABShAAQpQgAIUUCzghSFHL3QZ6yoEmTtmhSjReBQWD6iDvXN7YcOJNGSkpyElJQ0PzKMQQvOHItBG8eu/swLdSruvJUdryLFdW39iQVQM9l83DzmPtJiEeVGRiitZumFq4h84sG0bPj3wI/5Ouqf4GAw5iqm4IQUoQAEKUIACFKCAhwW8LuRk6L/HhC5T8VOqtK9aEF4Y/h56P22aLSz16EK8PXUfzB7TdU8idus41LIzxbTcrGiu6q6my1cFbds3QEGZGa7vndmLtfvPmVW34+BwEKPazMWpB2b99jLHJsW8GKrh1pE/npIDOb5WJUfhNhSgAAUoQAEKUIACFHC/gNeFHLnwEhBcFxM2jUA1SXiR69KWu/hLmLf4HZS0s3CoO0OO2uoyBQc9bv/zr9lsZuKx7l/8GGOmfIZEswOH45URk/Dio7a6ouVCWHgE8uaWW0uIIUdtHXF7ClCAAhSgAAUoQIGcJ+B1IUdu6mi5bmBy2+Wr0RfrxzazWwveGXLkZ5PTdjsVRocZS9CuklynPYYcbabciwIUoAAFKEABClAgJwl4Wcg5jklvTcbxVIuRNlmTDpgG9P+DtYP74uNz982sq76xEHFvlWbIUR1ydChU4WX0b3oVE5YflfVjd7Wc9LHmtVKAAhSgAAUoQAH/FvCqkHP78Dz0mPG1+TgboX6sW3IOI/aNmTipNx+rYr8qIzHyo4l46vwmt00hnSuiEWLjOqCETHe51MPLMGjdj2aXaAoOnmrJCUTEY43wdtQ7aFA+FHIzwBkvmCHHv78oWHoKUIACFKAABSiQkwS8KOTo8eWMHlh0OMnKzzLk3P15OXqM+wwpqqTdH3K0z6728ELO+E4rcbNUJGo3aoKWTWuiSB7T2B1XhpwM/WV8Ej8PH317FrfFBjddEIpUbIq+Q7riqaLBqmqOG1OAAhSgAAUoQAEKUECNgNeEnPTkvYjptgR/yrTOWIaHX9YOwNiPL6opp7Ct+0OO9tnV5EKO4Xrr2pkpDpDbz96YHPtkrgs557G0Xwy+uGw9RXVASDUMjR+H+uH21vBRWbXcnAIUoAAFKEABClCAAhIBrwk5Z94fhuEfnJWtHPOQIz8ex3Gtuj/kOL4G8y3sd1czhZzUxOu4lWY+pXahogURFHABi/oMxZdmC4l6PuTcEhY+7SYsfGo+sspU9tLPj8PC6KfUcnF7ClCAAhSgAAUoQAEKKBLwkpDzB+a8MwoHb5ovemksgTTk6G/swICodbiiZjiOeKCsNXSquXFMjiJxyUZKQ87OSe2FxVHTJHsaA5B3hhxHLW0c36P2TuH2FKAABShAAQpQgAJqBLwi5NiacEAu5Mi1+Ojy/Q8xM7rikawB/3KD/I1BqRhDjs37w1Xd1eTWMJKeNPx/g7EqpqGa+5TbUoACFKAABShAAQpQQLGAF4ScZGyN7YlNJ+/avGhTS45cywVQovEoLB5QJ3t/ewuFFj7nmtnV9DcOYemKA0jKUNukZCpmnkqtMKTdk8J/sD8mJ6e15KQnf4vxvWfh1xQZG11RdJq2CG1k1/FRfN9yQwpQgAIUoAAFKEABCtgU8HjIkVuc0/JqjSGn4A/x6Dl1H6Qdt4D8aDNpJTpF5s7eTa67lLGLlKsWA3XtPeVbIUe0Sb30f5gxcQVO3DDVVmBYebw+YCQ61C7sWj4ejQIUoAAFKEABClCAAhIBj4ectDPr0Xv4diTaqRZDyOmI78Zat/jkLt4K8xd3N1ubxrrlA3ikxSTMi4qE8yEnAUc//xH/am/AMStpYLFINKuZLjOBgGnigZzWkmMqoB63//kXdzKHWgXBMFmCacpqfhIpQAEKUIACFKAABSjgDgGPhxzgIEa1mYtTD2ynBjHkTBkYiEmjd+G2lUIgSjfojQn9myA8t/gALb/mTM0uqzDmtXAXhBzH16umogwtTJXthJx/sXZwX3x8TlxsxvAXEFwXEzaNQDWdd048oKb83JYCFKAABShAAQpQgAKuFvCCkHNJWFNlkLCmij7rAT4YudPSIF1hJbBIIzQscgT7fzPvqCbFCCnZBKMmRaNq/q8R024hzpiNlcmHV8auQrcauXNgyPkLC6JisP+6aeY5+2OUPD+FtKtvUh6PAhSgAAUoQAEKUIACagS8IOQAn03piOXf3xGuOwh1XmqAPz/dh5uSUgQWaYY3q/2Ejfuu2y9bYAk0b1YEX332s1lIAiqg/9oZeK6ALseFnDoPvrIKbXkqdcTK6W2Q10vXyVFzA3JbClCAAhSgAAUoQAEKuFrAK0LOqfcGY9S2cxBbKKbF5MWUoR9ZhJwWmDmtLOZHrcB5vfrBMLkimmH28j54RBeQ40JONWGyhbeFyRakLVumKZjluuaxJcfVHxIejwIUoAAFKEABClAgZwl4Rci5c3AWOs/5HvX7LMG7FT9DnyEfWoWcOUt74dqKvpj8eYIgrEPJCuWReP5s1qB2++jSdVmcn3jAcQXLze4mXdDU+gi2Zlcbi1uzemLR4SSzXYzji+THHzHkOK4hbkEBClCAAhSgAAUo4MsCXhFy7l3cjCFz9BgztyMKyqxjYwwIJe98iZhuS3Ch0POYGd8HIb8ux5gpn+OGabiKbF39r+dGxLwYmvlvrgs5afjvWqJZC0tAcH4ULRgCV4WcYavqY6tV61VuVG8bh9FvVRJmKuPEA7784WTZKEABClCAAhSgAAW0CXhFyAH+wIkTZfHUU3lkQ4i0FeSHZSPxS92xwiQCIZklvnPmfQwe/QGumSYfs5AwjcdxZcjJ0O+3GitjXItHLuTkimiE2LgOZlNdm6ZVvoy1w8di/zVpWiuLx8pfwA8nrOeTE8sRHFELvUa+gYvLplvsF4E3xs9Aq3KBqu+IlP3T0WnBd7L7Gcum+qDcgQIUoAAFKEABClCAAg9ZwEtCjqnUci0t0pCTob+P9FyBCJSst2Iv6ASVbYMl8zoiPGt7V7Xk2DuOXMiRr1fTWjjm/67HiTXDMOmT83hg94YIRMnanTFicCuUCdE5fesw5DhNyANQgAIUoAAFKEABCniBQI4LOfJmehxa0Bez99+w+ueqbyxE3Fuls/+7O0OOceyPMyEnQ/8v9syPxfJDCQ4CjqmoASGPou2AGLSrW8ws/Km9vxhy1IpxewpQgAIUoAAFKEABbxTwiZBz/8p2DOq/Hpctx+boHsPA1VPxrDB1tPHPnSGn3EtTMKdHZdkxOfKVb96Sk3xuL2ZPXYUTN+TWA9IhMDAAer2tAUg6FKrwsrBWUBdU1Niq49qQo8fVXz/Flo1f4scrt6ALK4ZnXuyJLi9WFMYSiYu28o8CFKAABShAAQpQgALuEfCBkHMVawcPwsfnrINBeJ0BWDbyWbPWDVeFHLlAUKDq25gz7hVc3jgQYz++qKDGDCGn6vXvsWXpauz+6RpsRZhC1Xthbmx17J8dhw1HEmxuh8BwtIiOwzvPFlfdquO6kJOMw0tjMeuLC1atUfnLtcGEaR3xaBCDjoIbhJtQgAIUoAAFKEABCmgQyOEhx97YFfmplF0Vcq7tGofeq362Ig8p2QSvVPodW76+bPZvllNIP0i7gEPbdmPngQP4K+Gu3a5pwcWF9YPm98oOBteOv4cps7fj4h1bawbpEF61HcaPfkPVWB1XhZy0U6vRc9ROyE+ZoEP1DgswoV0pDbcrd6EABShAAQpQgAIUoIBjgRwdcu6c2YCBIz+SnUK6oNDyET++BfKq7Bq1c1J7rD5u3iokN7PY4UVRmPHldcfCWVtYhhxx7M3HU4dg3XHzNXAsD2ir5eNB2u9YM3Yadv+RKBuQLIORkgt1VchxNCaJM7UpqQ1uQwEKUIACFKAABSigVSDHhhy7U0fryqDHvDl4qYzaaZQvYWm/Qfjist7M0/qh/B+hi1xfoYuczXmrrepDbjHQDP1JzIoai29vys2hFoiKzw/FmL51kd9mUEvD8U0TMGPrKUhjWUBINQyNH4f64blU3ReuCjmn3huMUdvO2Tx3vhp9sX5sM1XXxo0pQAEKUIACFKAABSigVCBHhpzUS59hbMwKnJXtrqVDxZcmYOo7VVWPSbl/5UP077cRCRa9wCxDTnry5xjaZRnO2+otJqOfK6IJpi/uhwoWY1HkWqMCw8rj9QEj0aF2YUX1ePvUB8IaPJsN3dd0RdFh8ny0eyKPon2lG7kq5NicCCLzZEFo0GcJhjQPV3193IECFKAABShAAQpQgAJKBHJcyLl9agOGjfvI5uKfjrtpncXSAZNxRF8EFUsWkBgl48+fTuM/mcYZy5Bz7bOJ6Lv8R/NuYrq8yBucgpRUO+y6IOQv/ggqV6mOJ8uXR8UaFYRWGuCvHZMx4/O/hR1DEPlKb3Rr9hjy5lY3MD898Rcsnb4SAc1i0bdJkcyLCClQFPnzKD+Oq0KOeO6r+2Zi6OJvccdsJoVAlG7QD5MHN7LTOqXktuU2FKAABShAAQpQgAIUsC2Qg0JOd9z9dDrGrztm8eAsKZyibmp6bB/XCet/lpumWR7KODW04V/lZ3MTFx2NHx+JD6fMwZ6z8kPuH+6NWBLdFszHK6q77LnuKu8l/4Xvdn6Bg3/dRN7iT+L5F5sgskSo607AI1GAAhSgAAUoQAEKUEBGIMeEnLHd72La9K9wx2Y15hG6Qc0XukEVdVjRjsaMmB8gCC8Mfw+9nw7K/M+pxxajW9xeszEw4n8v0XgUFg+oI/yvNJz+PB4zVh+SbRVyeHEu2kAMXUvmdUS4yokXXHR6HoYCFKAABShAAQpQgAIeE8gxIWfO0u7Al7MxbMkRq4ABKA84mUHl6EK8PXUf7ilgt54V7U+sGzkBH5u11pgHIfGw4hTRe9aswKZ9J3Fb+fwECq5I2SZV31iIuLdKK9uYW1GAAhSgAAUoQAEKUMCHBHJQyOmFMroAYazHdAxa+J0p6AhjYRr1mIF3W5RQPNGA/sYODIhahyuOJg4ILIGOk+agrcUg/gy9RdDRRWLE+xNQL0hndWtk6FNw+uCH2LrzIH69+C/u21rt06U3lfwaQS49BQ9GAQpQgAIUoAAFKEABLxXIcSFHdMwOOkIIeS1mIroonIXMVAeHEfvGTJzUy6ecXEGhKPNka0T1eBVPFDV0U7P8E4PO4gGj8OWVewivMwDLRj6rIGSl4b9ribhy7gQu/vcA6Ynn8ZMwXsX2Xxqun7+IxHuO0pj5EQJy18Tw5f1RRQiF/KMABShAAQpQgAIUoIC/CXhdyNHfOISlKw4gKcP0YB8YXg89ezeVjC/R49cvdkJf40U8VTRYQ53pcfuff60nMMgVioiIMAVhxXBKQ9BZiDIjZnl0gL8GAO5CAQpQgAIUoAAFKEABnxXwupCT06Qz9PeRnitQcTDKaeXj9VKAAhSgAAUoQAEKUCCnCTDk5LQa4/VSgAIUoAAFKEABClCAAnYFGHJ4g1CAAhSgAAUoQAEKUIACPiXAkONT1cnCUIACFKAABShAAQpQgAIMObwHKEABClCAAhSgAAUoQAGfEmDI8anqZGEoQAEKUIACFKAABShAAYYc3gMUoAAFKEABClCAAhSggE8JMOT4VHWyMBSgAAUoQAEKUIACFKAAQw7vAQpQgAIUoAAFKEABClDApwQYcnyqOlkYClCAAhSgAAUoQAEKUIAhh/cABShAAQpQgAIUoAAFKOBTAgw5PlWdLAwFKEABClCAAhSgAAUowJDDe4ACFKAABShAAQpQgAIU8CkBhhyfqk4WhgIUoAAFKEABClCAAhRgyOE9QAEKUIACFKAABShAAQr4lABDjk9VJwtDAQpQgAIUoAAFKEABCjDk8B6gAAUoQAEKUIACFKAABXxKgCHHp6qThaEABShAAQpQgAIUoAAFGHJ4D1CAAhSgAAUoQAEKUIACPiXAkONT1cnCUIACFKAABShAAQpQgAIMObwHKEABClCAAhSgAAUoQAGfEmDI8anqZGEoQAEKUIACFKAABShAAYYc3gMUoAAFKEABClCAAhSggE8JMOT4VHWyMBSgAAUoQAEKUIACFKAAQw7vAQpQgAIUoAAFKEABClDApwQYcnyqOlkYClCAAhSgAAUoQAEKUIAhh/cABShAAQpQgAIUoAAFKOBTAgw5PlWdLAwFKEABClCAAhSgAAUowJDDe4ACFKAABShAAQpQgAIU8CkBhhyfqk4WhgIUoAAFKEABClCAAhRgyOE9QAEKUIACFKAABShAAQr4lABDjk9VJwtDAQpQgAIUoAAFKEABCjDk8B6gAAUoQAEKUIACFKAABXxKgCHHp6qThaEABShAAQpQgAIUoAAFGHJ4D1CAAhSgAAUoQAEKUIACPiXAkONT1cnCUIACFKAABShAAQpQgAJeE3J+WfMuYndcVFEjgQjNH4qI4nXwQofX8UKNUggKCFC0f4b+JGb2HINvbhZC+2mL0KFyHgf76bF3enfEf5tk2E73GAatnY7GBXSKzqdko50T3sTK43cdb6oLQr5CJVCpRgO8+eareKJokON9VG+hR+KZQ9jyyec4fuJv3ExJxr10w0Fyh+RDoWKPoUGz1nj5heoIz63M3NYl3PtrA6IGbcVNBdconjuvUPanajXDq282Rrl89st+ZksMhm86jYLVe2P+xBbIr/D+UHApXrDJecRHDcHeBL2maynfahrm9qysad+Hv5MeZ/csxrxN3+Dyf3fxQLgAtdefsn8a3pp3WMGl6xAcVgilyz2FJu3aoUW1YgjMgfeNmu+TsLB8KPbIU3judXXfowowndzkIEa8NhunHmQ4PE6uoLwIy1cYFYTvxTZtWiGyZKjDfbx1AzV15/7fAtcpndk0FEO3nMk6YH60jVuNztVyu+wE/vYZ1wr3IO0afti1DTsOHMPFa4m4nXo/67kmCGFhEShX9xm0fqkN6pTX/hkyPc8FIm9EKTzzxiBEtXg0R36XanXmft4hkINDjjlgSKmWiJvdCxVDHAWPZOye3A/Ljv6HIk8PwdKYhg4/eBn6oxjfaSpOpIqPV4a/J9rMw/Qu5VxWi4p/2KRn1OVFvS5xGP5qOYdlUHqh145vxrzF2/DbjTSHuwQERqBxjzHo58SXl5qQY3ZBQtkjX+yPmB717IQXYxDIhfpR8Yh5sajDMuWcDfwn5BjDqunT586QY/YBQ3jVjpgyoQ1KOBnmH/Z9pen7RLjI4MK10XfscDR+JPhhX7LM+ZSHHPOdA1GqTjeMiXkpx9WbWA5NdeeG3wLX3gBXsaJ/P+y6YHopE153IFaMauyy3y7lIcc3PuNq6ydDfxmfLJiFzYf+wp2sl5a2j6FDoQotMCS2J6qFO3qmsj6K9UtrHSq1noJZ3XPKizW1utzeWwW8MuQUrvYq2tQvZsfsLv4+dQK//HQKfyfdy96uQGQPxMe1svvG/sbXM9FvziHc1VVE/5Uz0DQil8O6ubZ7PHov+1F4gxyIwEA99ML3dK4CTTBzbX9U0DnXkmE8ufSHLeLRWihXWO6493D9/AVcT0rC3ayXL0AIGkYvwNDmzj7Ap+HY6pGY8vGfMP4MBQSGoHT5Kqj6ZE08kvlFl4Q/Dh/FD6f+wu3s8+tQoeU4TIt6UnFLmhRcGnICgouiarWykGtXy7j3L86fv4akW3eyr088TriDVprbRxagx5T/U1XfDm8Ir9hAGnKCUapKJEqEKr8XSz3THd2blPKKkti/iGOY2D4Ox4QXDIFFGmDEuCjUKJ1P9YOR9AEoV4FHUKNSEdnTpv5zwfztpoJ7zBsRlX2fCJ/oq2dw5UYyUoxNtWJhdMXw1pQFeNNhC7e7Sy4NOflRqfZjKCB7ymRc+uOSWYuzuFlw8ZaYvjAK5YKUfy7cXSIlx1dWd+78LVByleq2ufvbKvQY+QluQyf8hgYIv6HCU7aLe0T422dcTQ2k3diHuMGL8PMt46+7DnkKlkHlapF4skppiK80kq+expGjR/BXgqG1PPOrILQaBs0bg0bFtL30SLl6BAvHTcfha+kICK6NcRtGo0aQ+tCkpqzclgJSAa8MOcq7oqTh+MZxmP7BKRg6egWj2ZC16NdIvpnV1E0tXUV3lxtYM7APdpy7L3xI6+HlZ8/hkz3XHZ5L7W0m/WFrGL1VCC22u2Jl6P/FgSUTMO/LC5lfRrrQepiwbgSqa/7y0OPHNUMwccf5rC+3EFRt9S6Gvl1ftjta5vlXTMKCz89lBQ4danVdhrGvqw9a0pATWKQl5i2PQhk7wfFB2gXsmDMVG7+7mn3uiq0mYnqPSBsPvkl4f0QvbD51N7Pb2mKh21reHNj9yPp+koacwug4axnaVQpUe9t5/fZpf6xDr2HbkChcaa2uq4V7LELTNUsfgEKF++D9SS3tHEePy0dXYty0z3Aj841nCFoMX4M+z4RoOrcndlLzfQLhk3T56CbMWPAxzt82PASJDzfDFk1A/XDHL4HcVz5pyInE6O1xqGvnu0H8Xjq4fiaW7DqV/aba0UsQ91279iOrqTvX/xZov257e+6b1QXzD4rdvcvglVcLYteOXzJ/a1zZI8LfPuNKayo98QBio+fit2RDdMldqAb6jBmOphXkn5OSz32CiWPW4fes74JcBRph6spBeFzj88W1nePQa+UJ4czhwvCAFcLwAN/7nVJaF9zu4Qvk8JAjgiULzft9hPEstzL1IoQuaKtHNJKVNHZ7yQiORMzKSXg6v+M3CvevbEW/vhuQIHQLDxMejpa9cRG9xuxGinCGvE90xYppr7nkoVnND5uhcL9jdreROHBTfArTCa05G4VgpK0PbXZrR+bTTUG8MHgW+jaUf9NtgrUIRhrfyqkNOYbzW4Yy+w/5yT8vQ2+hzm4jP14dvxzdauSch1XbXwn+EXKkDy6Owr+9r091D0CGI32/NApxnyVk/m/xs79OCMjuGp+Tsn82hu4LQ8dundHAib7wRgP13yeA5cOQ518KqAs5xrJf3TcVA+d/l/3iq2H0UuG7MdyNv64HMb7nF6jwZle82bSiphZt6cWprzvX/Ra4A0na3Vt8kTVnziOY22UZzmVkuLRHhL99xpXV1VXhJe0A4SWtoeKsnSoAACAASURBVPt5gXJtMWFGJ4etm5bfBaWbjceifjWUndJiK1d9h2s6OXfyewEfCDlCl4u9k9El/mhmZdpqDZB+0ar5wEofdAxvkhMwo2ssvkkU34qURPf4hWhdxvk3E+p/2IAfV0Zj/M5LmeVW3vplec9L+0rrYL9VxHJf83EhalyNR9IWcsS9k7B9bDTW/nQ781D2A6epjKGPdcKyGW19YBIChhw1395aHoCkrUhKWhnVXI/ltqbr06FAmafRrlcXpyY90PJ9Il7THaHlLFpoOTNMBOL6weHqjLSFnMyXIMKb5/E7DRPZuLprsXUZTNcZGFYajV/tiY6vPql5UhYtdeea3wJ1taN0a1N3b+EX87lYLBlYWWhd7ya0rotdze33vlB6DnE7f/uMK7G5/e1cdJ/+FURpta2z14WXBdHCy4LMAQEaX2Ja1oszL6qUlJfbUMBSwCdCjvTLzdbDiGnwspofbukbsooYIHSFaCLMqCYNPtrDhXlVaPlhkw7u03odqcKYlS7CmBXxi0xLn9lruydh4MbLeOSJqqj1XAu8/ExF5FHRHUx7yAFM/bwdfwmf+yBGuM7TXvDg5qovIYYcNZJaHoCcuTfVXJvlg4Bx3+DCkXi5w9uaWge0fJ8YzpuMD0b1wMaTqZn/T8uLC7Vlt7291pAjtEol78Gwrovxp16cmU3Nd76Wq7eeIEGclKV2i/bo2ul5lHE4GY53/BZoKbnjfaT3Uz6hJX2N0JKeG9Lg46pWUn/7jDu2N3W1F7dV3zXwd8zpNQGnQsqhSrXaeOHlV1ClmPruq2zJcVxT3MJ9Aj4Rcg7H98S0veI4GVvdSkxv8tW81ZO+BZG2FEgfrtUcz141ankoMfVz1t5dzXQM+1393HULOvcgKX3Q1+G5/lswsKn8WCb99e14t9daXBGeeQxvE+u4q0gP6bgPN+RongVP0HCmFcT0A2l6QNICrOUBSPoCwFUPYravPQ2/73sfazfttprZUEvrgJbvE+O13do/FV3nfZc5ZiJ38VZYsLQHSqp4caGlfuT30R5yxNacnRM6C92Y72QeulLrWcLMTpVcd2kWR0o+9zXeW7sJX55IMJsYBcKsZxXrt0bPrq8pnu5fS9254rfAHTjS7t7S30qzEOpEK4H0mv3tM+6ovqS/eeJYqF5L5+OlEupDiqPzOPp3hhxHQvx3dwrk+JBz548N6D9ia9YA4WBhbIp1/2vpA5ryB1zpj6QOdbuvwujWxn7d5jNb2ZvsQGnlqf1hS0/8DEPeEfo1C28qtU88cAlL+g7A55cNg43rR70vTLOsbVyP0nJabudcyAGkIc1+a5apzsQJJCZtHolqLpoZT2vZndvPP0KOqSuqc5MrqH8AMk1Y8XAnHtDj6q+7sHbZRzh68Vb2LEfivaKmdUDt94n0XjR/OHI84N+5+9je3s6EHMDUegs4nmzCNaVIu/Ebtq1fjk++OWcxTW8gSlZvrmjMldq6c81vgWvKb3kUaW8D81ZB8xCqvpXB+nr97TPuqMbuHJiJjrMPZX6HBEY0x+yVffGoB37zXDV5jKPy8t8pICeQI0NOhj4F1y+dxeHdm7Dly9PZPyZ5yrbFwgWdUNTiraP0x07pg7z5m6ZIjNoyCfUks4tIFzZzxQQESn/YUhOv48zxHVixcjcupohdMZyZQlr6EOHcQ6TWj5ezIUf6I+roQcYUiJxrFdBaVtfu93BDjv76ISxZ/hUShcHCav8CI55Grz5NEaGhNcBUv87dn0ofgB6kJSHhrx+xZcVKfPWnYbyXp2boEqdf3bx0NXZraB1Q+n0iX5ee/14wXJdzIUdJN2a197LS7cUFFw9sXYZ1O47hZvZ0++LejsdcKa071/4WKC2Zmu2k3b2tP7/SnhKu6BHhb59xRzWh5rfR0bGc+Xfpb7zWbvXOnJ/7+reAV4YcLVVSoNyrGDu1q+xioKYfDeUPStIQI7domfnbTucnINCyAFxAYAm8NmISutZxNBOaLVHpQ4RpzJEWf637OBtypJNOOAo5pqksgch28ZjcsYzWy/aC/bQtBupM1zFPFNrUFdW5+1PbQoGBqNhsGMZF21tw1v0q95L/xKfL4/GB1SJ+tlsHlD4oy1/9WczvORz7roszNyr/znS9hHMh52FOHGGr7OILuZN7VmLRpgO4kjUlr3FbW2OuPPNb4Prak4aYoFKvYtGity1eQJrWwHLFBAT+9hl3VGPSkKO8B4ujo6r/9/TkzzGk09LM2fTszX6r/sjcgwKOBXJ2yNEFoXDZanjhje549ZlSNqbulD4MKu16IZ1xzNbsL8mSGWKcH6Cr5YctV1BR1GzeAe+8/ZzGlb2de4hwfHs53sLZkKP07Z14JXeFqaS7Z03/nb9mNN4b19zxBXrtFr4fcqTrWjkbzjQ9AAnfL6Ujn0fnnm/jf2W1LYbnytvH2Dqw4ZMTuJEmXbLc+nvNuZDzcFsJbRs59/3k7HeLK+sOSMOFb7dh2bodOCVZbFE8h+WMU575LXBtacUxUXund0f8t+LaOLYHvUvH0zrbI8LfPuOOaswVExM5Ooeyfzd9n2jvWq/sTNyKApYCXhlyCld7FW3qFzO71vTE8/hq336cvZE5oSF0YVXQZ2IsmlfI66BWTT+UunyNMH39YDzmoF+qdGIBe+M3pDPEaJmZTHrhyla5Bh7cTsCZyzeQkpyW3V8/MOwpDFk4VsPCfdKHCM8MTHT2QURNv3vpufIIU0mvFqaSzrkLg5qPCytVJRIlQh2v7O5M17GH9/WpR9KlH7Bh7iLsOSuuf6V9sVnjNStdDV2cXezSH5dwMyUZ94w5Qhg83rjPPAxqrn6xW3eYPUi5jO1zY7H+e8NEz0K7pNVCmc6FHOkb9pzbkiOdOMLZkOy6ekzB2c/iMWbptzBMiWA/5EQ8WgvlCst/rl37W+C6EopHMp/dzvZvi9kMmU4uyeBvn3FHNSYNOZ5uQbm8cyz6rfwp85mlQLkX8e6QDqhROp/b1h1zZMN/9x8Brww5tvttpuH4xnGY/sEpw0Jvih4+JGsYCAuRzVsehTIOQo707ZK9Zl7zL3LLyQnU3URqH0pSrn6NOaMX4od/DR2+g4VZkGYv6eGwbOZX5fmHGWdDjvSL3FHrjLTZ3HseetTdJ6atveVtu9brt72f+Zts13QZU9PiJ16Z2Gqye8FYrDqUYHiZoCuGzjMWo20l5WtiOX4jr7RlWbyANPxz6jC2bt6Cfb9cMQWwTEZXhxzpy4+i6DJvCdqUU15u190RzrXkSOtc7Sxx0u8V+fKoC3+pib/j648248MvfrJohbMfcpSsK+Ka3wLX1Zp4JGnXYPsvlKTjdpzrEeGJz7hr7xN1n3FHNabmBaCjYzn/70k4tGQc5n5+Lnv2QUfdy50/J49AAWHCngzhzxsglDetWq5272jgvbqQI100VK2LfL9jZUdRG3LEo6Yn7sPI3gvwe6pYhVoWVTOfR1/ppAzKSqRsK2dDjtTN8TSx6u4FZSXw1FYPN+Q8zCmkTXWaF/XenoChrzq/irzaByBDrZovOCs3Ns9e7bsi5KRc/Rlf7t6OnTIPxwGB+VHpf63QtePLiCxpPiuilu8TY1nM6lr3FMZ8NB61PTArk7MTD6h5AWJZj654eBWD8rH/243tH39u1UVNmO8K4Y/Uw+tvv4UXaph3tdZSd87/Frjye0za3VvdcZ3pEeGJz7gr7hOtn3FHsmYtmR6cXc10nUKXzT3zMWLRN5mtmAw5jmqQ/+4KgRwYcsRinxemPh4mTH2c1XUttBqGLZpgo7uWugdbaRc09cDq3u5Jj6/lh03cXzqFspbBhc42aWfoD2JMl2VILFUdteo1QovW9VSND3Iu5JzEjK6x+CZRfNcejBbDN6DPM/Lr5GSGQskASLbkqLu7PRNyxGv0TEuOUUf6oKC0u6txX60hx/7DsQ6hxargxXad8fqzjyNvbvmuTFq/T8Rrl76FDxJmrFwqzFipZWY8dXeY3NbOtOSYj5lUO9GI9ofXNPx9Yj92bf9YpsUNMIyjfAMd2zdGuXzy31Va687Z3wLn68twBPMuaGqPqn3NN20hB3DmM671PnHFZ9yRrPjbPPLN2TiVuSCutu7ov6wZjKkH9Xi8Rh00afoiGlaJcHRaG//OlhyNcNzNSYEcGnKA+1e2YcC763E58wMs9POM7IH4uFbIbzVNremH0vH6KOarfecrFYnHS+RxQHwXF349iRt3DdehdYVwrT9szk4TaT7+qDbGbRiNGpKpsh3dX9IZdBz7Wh/NmZCj9tp9d0yO9nDtqH6N//5wp5B275gcNW8QzcOdmu5lSmWN29l/OLbXaiN3Jq3fJ+KYpA9G9cDGk6mZh3XF+iVqJUzbaw855l2JnZ/90lEZ7L2Nt9dq48q6c/a3wFEZlf7790ujEPdZQubmuQuVx5MVjOvL2T7C9bPHcTHzZRWgdQICrSEnp37GHdeHs59l8xY5tS8KpNd3fd9URM//DuJraY7JcVxz3MJ1Ajk25IgEv6wfiLEfncsagB8irHi/WFjx3vILVdqtpzJiPpiC+sE6WUHp6sxqpk6VfqlrbW7X+lDi/Nu7q1gzcAB2nEvLNCnXMg6zoiIVDgg0n+FLS8DTHnKkizUKa5nUHYgVoxrbvW7pGztPD8R0/iP8cLurOX+96o8gnV3Nma6g4pm1PgA585ZXTYnlZ4ay3aXJ0bG1fp8kCzMQ9hZmIDSsEOT+cGC/HFpDjh6H46Mxba/hQdvZe8eRtXm3OtPWQfnLotErXfHmy7VQNI/jSUGMe2qtO+d/CxyX1NEW5t29lbfKmPeg0Hbf+dtn3FFdiP9++8gC9Jjyf5ljmAOCq2DIkjg0jMilZFdIgwl0j2HQ2uloXED+2cn+AU1hibOrKaLnRi4UyNEhJ0N/FguihfUcEgzTINn6AO2e3AHLjoq9QMPRftoKdKgsP4hWujaOmh9G83CkbQICLT9s5v2wlf+gWN4/Zg82uoJ4YfAs9G3oaO0di7FRuorov3IGmir8AjVeg7aQY3nuMui5YB5albE/ONp318lxf0uOC79zVB3K9OBm/wWFo4NqewAyH5MTVr031k1sofAFgKMrMv93s5mhFHRpcnR0bd8nBxAbPRe/JRveqBd5egiWxjR0S3kdXb/h37WFnKvCW+OBwlvjzMlphMWSWwxfI3RjDVF2Sk1bSa4za9rx9p074OlK2maP0lZ30vGZ2n8LNBVfspN5y77yngGWY2G1vDDzt8+4sroyfxlYoFxbTJjRCeWC7Ifu9ETz74JSz8ViwYDamr4LuE6OspriVu4RyNEhRyQxf/MIyH0YpbOM1Oq6GmNfl+tXKp3lRW1QMW8WVhOQjNWq9oct7cYxLBg7DYeuGMcl1cOEdSNQXUVXM9MtZT2ZQ9VWfTCwcyPZN5AP0i5g+8zJ2PD9texWtIbRCzBUwxS7akOOuDDiroUzsfG7q1mztOhQqfUUzOpe2eEnxPTAbD/sOjyQV2zg+y05IrOpC45zQU7tA1CG/l8cWDIB8768kH2Pu/NhOWX/bPTbni47EF3L7abu+0Rcw2Uz5iz+BOezFqzUhT6FkcvGoW5+LW9utVyx3D7qQo44zuHrjXOxfNcp3Mma/jtCWA9r4dhmbp4q/iDGdd2Kwq26qG61kSu1uroT5t1z6W+BM3Vn/juoNqg42yPC3z7jSmvKMrDkLlQDvUcOQuPH8suEFj0uH92EafO24WKKoQt+cPGWmL4wymEwsnU90t942zPnKi0Nt6OAOoEcH3LEPuS7J/cTWmr+yyq59cOQtKXFVjclabcULV3OpG+wgPxoG7canavlVlwbStfJgdCr9fr5s7jyz53sqRjFt5XyXfUUn17YMAk7Jw/E6qM3s9ffCQgMQenyNYUJBaqimLAGi7hW0fETP+PXs1clU9gG4vHWEzClW1VNb3mkX4ABwUVRtVpZyI2CklsTQlw/peTT/TE9prHMWCzLsptWcVc7gFyNovSH1r2TG/hHyEnaOxld4o8KVZAPr45fg241lH+mpPWmfA0NYSDyPxfwp7AW1V3D7OyZfw/nYVnNnWZ/W2XfJ+J3yQVcT0oyK6su9FG8PXY6Wld2NB7R9jW45nMgDTnCTHK1H0MBmVNm3PsX589fQ9It6Xei2Pdf2Vtr16m75kjK6k48l6t/C8y7HyuZvlpaYv317Xi311pcyXw2Vt/lzNkeEf72GVdzt935YxMGjfoACfeNk+nqkKdgGVSpXQd1Kogvfe/i71Mn8MtPp/B3kuHFqfinfQ0+09VJf+M9MYOrGidu63sCPhByLKdSBvIIMwItFGYEKpo9CYGkT6jsgqDmqzMrGd9hfSuYz/ev9hiOZ2KSv/kCAiPwQr/J6Nm4uKaQYX7UNJz+bCGmrzqIm5IHPFu3fa6g0nhlSCw61dN+bq2zdokDsf/XfgwGt62EIKvJJqyvWHoetW8Y1XzsXfNwp+SM/hFypJ5qH7qkippWQzf8zKNMgz6YOLApwm3MZKakth72Ntq+T3TIW+Y5DB8bhaeKBjt1ya75HEhDjorLEbqMPdZ0IEZG1c9RdWYsoba6E8ZcOP1b4FzI0drd21SzzvWI8LfPuIpPROamYovfqhnzsfePpOwXmbaPEYiiT76BsSPboUyIc625aX+sQ69h25AonMyZ73C15eX2FBAFfCLkiAWRrqgrt0K6aWCj9Rth85l41LfCGG8l6Ze82oF6yn/YdAgOC0OBwpXQoNlLaPl8TVWDWpXc9sbpLfd9/QN+uXQDKclp2V+KuUPyoXiZ6qj3wit2p7BVch5xG+UhJxCh+UMRUbwa6jzbVHW5TXWj/g2j0rKI27nm4U7JGRlylCgZt1HzAJQrKC/C8hVG1aeb4aWXmlqtQaPmvJ7aVun3ibGsFYQpYlu+0Bo1NY4jsSynaz4HSkOO8TuxLGrWaZE5jb2t6Zk9VR9qzqu07sTfOdf+FjgTcpzp7m3ScaZHhL99xtXcU6Zt9Ug8cwyf7NmN74+fM2/FFV4O5CtUApVqNECbNq1c9r3nqhdV2srLvfxdwGtCjrsrQjqwUW0ri7uvjcd3t4DpB1jr9KTqrtCwyOqu5Ocxb3kUynhkIUV1V+ytW/MH0ltrRsl18XOgRMnbtjF23a4XvVUYZ2l73TFvu25ej3cK8DvcO+vFX67Kb0KOWKFntsRg+KbTeODUdIj+cmv4TjlNbwe1t9Kp0zCM/zmoa4kFS3ugpILudOqO7z9b8wcyJ9c1Pwc5sfYM4+B+EMZ5bhGWZGDIyYl16E3XzO9wb6oN/7sWvwo50nU33Dkuw/9uI28usWkKzYLCFMCLhSmA87o5dBgH0Ooax2LJwDrejOP11ybtzmh7ZkSvL4ZfXiA/Bzmx2o3jU4tgwPqZaKJpXZScWG5es7sETEs3+MKspu5S4nHdJeBXIUdEvPH1TPSbcwh32ZrjrnvKq46bvRiaxnV81BbmQdrviB8Yi/9LKKZo7R61x/e37aXdTAOLNMDIidGoXTLU3xhyXHn5OchxVSZcsB5/75mBoYuOIJ/H10jKiX68ZnMBPZIu/YAlE2fg8LV0YTHSepi0eSSqsfs2b5SHKOB3ISdzquQJ/bHyeKIXLHb3EGvaL09lHEj7ALW6LhPWRyrqdoU7f2zA4LhjaDY8Dm0i87r9fP5wgl/WD8TYj86ZzQjE9Ra8u+b5OfDu+pG/OvG3cTC+CO2Q42YTzInavnzNpvXNjKXUIbLdHEzuWM6Xi82yeaGAH4YcwNRtrRDaT1uEDk6sB+GFdcpLyhIwzrgndlObL3RTy+/mbmqEd5eAHmf3LMb8LYez14diyHGXNY9LAQpQwDkBU8gxrMfTqP0gRLV41AXLXDh3Xdzb/wT8MuT4XzWzxBSgAAUoQAEKUIACFPAfAYYc/6lrlpQCFKAABShAAQpQgAJ+IcCQ4xfVzEJSgAIUoAAFKEABClDAfwQYcvynrllSClCAAhSgAAUoQAEK+IUAQ45fVDMLSQEKUIACFKAABShAAf8RYMjxn7pmSSlAAQpQgAIUoAAFKOAXAgw5flHNLCQFKEABClCAAhSgAAX8R4Ahx3/qmiWlAAUoQAEKUIACFKCAXwgw5PhFNbOQFKAABShAAQpQgAIU8B8Bhhz/qWuWlAIUoAAFKEABClCAAn4hwJDjF9XMQlKAAhSgAAUoQAEKUMB/BBhy/KeuWVIKUIACFKAABShAAQr4hQBDjl9UMwtJAQpQgAIUoAAFKEAB/xFgyPGfumZJKUABClCAAhSgAAUo4BcCDDl+Uc0sJAUoQAEKUIACFKAABfxHgCHHf+qaJaUABShAAQpQgAIUoIBfCDDk+EU1s5AUoAAFKEABClCAAhTwHwGGHP+pa5aUAhSgAAUoQAEKUIACfiHAkOMX1cxCUoACFKAABShAAQpQwH8EGHL8p65ZUgpQgAIUoAAFKEABCviFAEOOX1QzC0kBClCAAhSgAAUoQAH/EWDI8Z+6ZkkpQAEKUIACFKAABSjgFwIMOX5RzSwkBShAAQpQgAIUoAAF/EeAIcd/6polpQAFKEABClCAAhSggF8IMOT4RTWzkBSgAAUoQAEKUIACFPAfAYYc/6lrlpQCFKAABShAAQpQgAJ+IcCQ4xfVzEJSgAIUoAAFKEABClDAfwQYcvynrllSClCAAhSgAAUoQAEK+IUAQ45fVDMLSQEKUIACFKAABShAAf8RYMjxn7pmSSlAAQpQgAIUoAAFKOAXAgw5flHNLCQFKEABClCAAhSgAAX8R4Ahx3/qmiWlAAUoQAEKUIACFKCAXwgw5PhFNbOQFKAABShAAQpQgAIU8B8Bhhz/qWuWlAIUoAAFKEABClCAAn4hwJDjF9XMQlKAAhSgAAUoQAEKUMB/BBhy/KeuWVIKUIACFKAABShAAQr4hQBDjl9UMwtJAQpQgAIUoAAFKEAB/xFgyPGfumZJKUABClCAAhSgAAUo4BcCDDl+Uc0sJAUoQAEKUIACFKAABfxHgCHHf+qaJaUABShAAQpQgAIUoIBfCDDk+EU1s5AUoAAFKEABClCAAhTwHwGGHP+pa5aUAhSgAAUoQAEKUIACfiHAkOMX1cxCUoACFKAABShAAQpQwH8EGHL8p65ZUgpQgAIUoAAFKEABCviFAEOOX1QzC0kBClCAAhSgAAUoQAH/EWDI8Z+6ZkkpQAEKUIACFKAABSjgFwIMOX5RzSwkBShAAQpQgAIUoAAF/EeAIcdtdX0aGyZ/iHMPMrLP8GTrEXilem6ZM1pvW+qZ7ujepFT2tveSk4G8eREUEKDoijP0v2LjshMoW78+nqpcDvnzKNtP0cEVbJShv4/0XIEIVHi9xkMe+3Aadp+6n30GSwcFp8beRUPxTepjqPn0M/hf1fIoWjBEyW5m2+ivH8KS5V8hMcNQf7brTvWhuQMFKEABClCAAhSggJsFGHLcBnwQI16bjVOSkNMweiuGNg+SOeN5xEcNwd4Effa/lW81DXN7Vs78/3f+2IRBoz5EWtmXETu5KyqG6BxedeqRBegy5f9wL3NLHcIqvIE5szugmEXo+O/MIRw+c8vh8Sw3KFjxGdR/rIDsfsnnPsHEMe/hQZOJmNXdUAbLv98+nY+v/6uJFq3roVw+k8nOCW9i5fG7sg7KLvIkZnSNxTeJDwyb6yIxassk1AtybCY9/r2/NiBq0FbczPqPtutO2VVxKwpQgAIUoAAFKECBhyfAkOM2a+dCTv6a0XhvXPOsgPMBEu4bWhQCwyojasoENH8k2O6Vn1o/ECM+Ope9TcnnYrFkYB2rfX5Z8y5id1xUrSD30P8g7QJ2zJmKjd9dRWZc0xXDW1MW4M3KeSyOfwNrBvbBjnNii40OeQpWQ59p49C4RC44G3Isw0neJ7pixbTXkFcId3e+iUfU0iOyZX2mxyq8mH8/fr2anvnv6f9+j/c/PI6UrK0rPtsDTZ/IZbavLm95NGz0eOax+UcBClCAAhSgAAUo4D0CDDluqws1IecSlvQdgM8vm1pyQqv3xvuTnsbHEwZg9fFEs6sMCCyB10ZMQtc6RWxcfTLeH9ENm08Z2nHEINEweqPQihTqopCTD6+OX4NuNcy73qUnHkBs9Fz8lpzViiKeOfQpjFw2DnXzm1pS9Ne3491ea3ElqyefLl8jTF8/GI/pApwOOWc2DcXQLWeyy1mr62qMfT0i8/+n7J+Gt+YdljUTQ9vjhzubtSI5ujUCi7TEvOVRKCNcN/8oQAEKUIACFKAABbxHwOtDzv0rW9Gv7wYkZD0QGx7+W3qPoM0rURNyYPVwbypnEg7Gj8GcvRdgig5iesiLpv3i0b9puNUVZOgPYuSbQlc5vXE8UEV0710WH276IWvbwmg3cSZeLheI01tGYfKuvx143sedW6mG1pnMv8LoOGsZ2lUKtNrv6r6pGDj/O5g6nAHhQp3Nn9gC+bNaPM59EIOBG09n7yttZXKuJecqVvTvh10XjFeqQ3BYGIKz8lX1yuVx6MgJhpwc8OnhJVKAAhSgAAUoQAFnBLw85Oixb1ZPzD9oHBkB+F/IEatXj5+2xGLKplPZ4SF3oXoYOScGtcLNu1CJW5uPxwGCyrbF7Ncu4V0hfDgKKfI3k2Vgi8To7XGoK9uCkYTtY6Ox9qfbkkPpUKvrMqFFpajw3yyDiPbb1/JesAzElkeu/XwHINHQynPvxhn8fCEpa5NgtBi+AS+FKumu9ic+Wf4lrgr5kS052uuOe1KAAhSgAAUoQAF3Cnh1yJFrFfDWkHPv4jYMi92Om9mTqVm2fgC5Q/IhJLexa1MkBq8bjhpZQWH35A5YdvROdl1bP0DrceaTOMSu+hEZxZ/FmKkDUS1cfjD94fiemLb3evaxItvFY1TJjZKuWrZbYuRutnsX30ef/pvxT1bZAoLrYdLmkahmo5tWeuI+jOy9AL+nmmaWCwiqjhFrJuCpi2vQY+QnkEYgrTe45b3w/dIofVCLRwAAIABJREFUxH2WYPNwpnFE5kErV4EmmLm2PypIymN74gFT4GPI0Vpz3I8CFKAABShAAQq4V8BLQ44ef++Zg+FLv8Edwzjw7D+vDTkWs3E5rjbz1hDLCQDkQs7tG9fw64FDuF2yGPT/3UF64nmczlUfw958SnK63zG720gcuGmEC0f7aSvwSsIss5DTdkBz/LB2lySU2b7ijAdpSElOM3WX0wUhLCyPMNJH/DN1fZMe4cyWGAzfdDpznwLlXsTgUW/jqaK5cHB+H8zaZwpgjp1sbyG9FzL0xzCpaxyOZY0HCgiuiNZdmwqzyZn2L/PkC6hWKhduCzPP9RBmnjN0qRNbmboh18cf4rRkJjzLMpsCqiS8ZjrUxlBJWHWmPNyXAhSgAAUoQAEKUMA1Al4XcjL0/+KLBbFY8fUVyRgQ3ww5o7aORPn/UoQgkIojqyZh1ZF/TAXNDhLWLUJmoa9qD7w3uVX2ejR3f1tl0VJiaLV56ZJ5yGnTrwH2x+/IniJZ++1kq1VImBa77ySkvTgC775UMXN9n/TkPRjWdTH+zB4rFIjQ/KGQjuy5l3oLd03L5CBXUF7kzWPdJU+83tDq3bBsWJPMS7+2ezx6L/sxO4hJp+A2L1uSMClDL2FShqyIE1oPE9Y1wKY355hN963cw17XPeVH4ZYUoAAFKEABClCAAq4T8JqQk6FPwck9K7Fo0wFcuW0a4m5ZVN9pyXFNJVq2+Fh2VTNOEvDwQ451+SwnHJBO72zcWtvEA4lYP6QHPjprTEdl0XXmKDxTQNqdLwiFihbEg1OrzULgE23mYXqXS1ZrGimvHXshRy8MATqGT/Z8iZQCjdCqzTMoo2CNI+Xn5pYUoAAFKEABClCAAnICXhNy5Ndr0UGne4AHkmnFvDXkiCHtn3+TJTOgHcWM3qtwVtIFqm7nRejRMDcepB7AlIEbcNE0ZEXz3SmdfjlDfxTjO03FiVTpPGzyLTmm7mrGliLrVhVlFyXfXU1+3zT8vm8dlq/bi7OJAWg2ZC36NTKf1lpbyAF+XBmN8Tsv2blkMYyMwPnYnth4MjVzu4DgSMSsnISnJdNbGw/gijE5v24cgnEfnM1ukdSFPooeE2fjJZlZ6ZRZcysKUIACFKAABShAASUCXhtyAgIj0EJYMFK/YRr2JliuH5PTp5C2nl7aUWUZu20F5C6ER8sVQW4URKWaFYRpmYuiTstaKCJ0B7PssmU4pnzIMU4BnZ78OYZ0WopzGULiErrIFanRDQvHtESIWxe4TMPfJ/5EnicrZ1639E9ryLGcUc7aMxJDZj+ONUM+yu6iV7rZeCzqVyNrUz1u3/gXd7Ly4f2LOzA6bjeMKxQZAypgCq/2Jx74FqPbzsCvWYu4Gq8n4ukhWD2ikaPq5r9TgAIUoAAFKEABCjgh4IUhR4dCFVpg4AhxoPpVxEcN8cGQcxbze47EN3fyZK7hUqB4JRTNfQW/nLwK4/KdwuoyaD1qMto+WQL585iCQHriCXx/uRL+VzWvRbXbmprZfsi5tX8qus77LrsFquSzQzC+4+PKbildKCIKh2WOB7Js+ZAewBAGXsKXMWOwL8FiJgmLM6kZkyPuGlikOSbP7oRiKV+Ywprs1Ufi5ZcTsdNGa0/D6BnI89Eos3vNEYKWkJO/ZjTeG9fc0aH57xSgAAUoQAEKUIACTgh4T8hZPwxLz1REh26d0aC8sQuTMHjdJ0OOdY1Zh4R8eHX8GnSrkTt74wz9WSzqPxJ7r+ZGvS5xGP5quewJB5J/XobeY3bLTM1sL+SIi5B2xsrjpqmr1dxL0od8xyHnBXzcZ6iqEKHkWkzX8Cfix+zF8x3DMD3mw+zWGtO00YB8l0jDWVwfcoQ1nuZGYeFX/0hmpSuGt6YswJuV8ygpGrehAAUoQAEKUIACFNAo4DUhR/76fTfkPEhLwn/3hZaQMEOI0V/fjnd7rcUVyTgd6QM6kCQEkv5CIDF2oNIhvGpHTJnQBiWEtXe+mNYRiw8nyzDaDjlvlDsuM4ZH+Z3kXSEnAPfv30fG31sQNWirhpCzGNX+WoejNwwtTRmpl81a1iIerYVyhc271gVGPI1efZoiwmbXvjSc/mwNtv5wQzhiQdR/6x00rWA+Bkm5NrekAAUoQAEKUIACFFAqwJCjVErhdmJ4uZF4V3ZyAXGtlTy57mWvOWM+zbH1OB1xEc/JHcsIZ07CwfgxmLP3gmRiA+E/60wtA9d2jkOvlSdUhZxnz8SZTbussIjZm5mFHMliqBn3U3E71TQPtGE797bkFL51A7fSMmB7LA1w7+5d6PLkyZqy+hLWx07GoeuGUGMeKIVtLdY9svx3tVbcngIUoAAFKEABClDg4Qkw5LjI2nLAvJLDmoeck5jRNRbfJJpmRjP8e0nsnTUciw8mmAcchAgP5gswtHnRzFPdu/g++vTfjH+sZmyz1ZIzHkkLB2LXBeOkDoXRuPPreDxUbK34E58s/xJXs49VCi16vYRHLFosdHnLo2Gjx5HX4r+n7J8mWXhUHDcjhpwolNGZt4RYTiltmjnPMvA5XotGib/5dZi3EjaMHoy0jauyFwS1vRiotGYjMZgLgSq51bkNBShAAQpQgAIUeKgCDDku4rZen8bxgWt1XY2xr0dkbXgJS/oOwOeXJTPJVW2N1vgK759MsjiYDhVbTcT0HpHZY3KArJB0qxQeKXkFFy4ZB/jLh5yX21fG3s0HYVgSU5jmoO5ArBjVOOt46kOG9AKVhpx9s7pg/kFT2Uyhz/b57138AEMn/45mUd3wQo1SmYuMin9KQ87cxW+jWEAwgnNfkIz30uG5/n2REL9I5YKgjsOX47uAW1CAAhSgAAUoQAEKuFqAIcdFoqfWD8SIj86pOpplFyglD+pCHzWZgCOeVo/tY9/C3vBhaJY0E2uPp2Vdi3zIeWvaHFQ9tzZr8dVQtI1bjc7V5McH2Z9FzLrIykLO75jdbSQO3DTNtmYKfXZCjqQbWa6goqjXeShiXnlcUcgRp8gO0qXjqS4rMbr1SckCoKJRRxwfvoAhR9UdzI0pQAEKUIACFKCAdwow5LioXiwf7OUOW1GYnjnqrcdRME9+FC0YYrWJvdm/DBvrUKHlOEyLejK7BUN6kNMfrcN/zTrjn7kdhAkKjG008iGnTb8G2B+/I3uAvnYG69YMJSHnyp44DFj0vWTKbMN1tstcKNN2yLE89qMt4zC/d7Xsy7c1lkb63/M+0RVLBgMjotZlTfRQGTEfjEflxKTs67E3tsdkFYRCRQvK1oV2T+5JAQpQgAIUoAAFKOCsAEOOs4JZ+9+/+hP2/ngZEY/WwKNFwoT1Y04g9vXZZi0DjgavJ+2djC7xR21cUQiqvxmLcR2qSrqoyW9q3iLkfSHnzh8b0H/EVmRNZJZZiFwFmmDm2v6okDluxzLklEGvpfPxUolcVtNA1496HzEvmmYssz1hgHQdoZJ4o30ZfLT5SOY4p8CI5pg2vx3yG1cCFf6bspAj7Js3PHuGPBfdSjwMBShAAQpQgAIUoICTAgw5TgLa3t16tjTbIUePy0c3YcaCj3H+tmlMTvaxdXnxbK9Z6N+iRGbAObx0EHblaoshb9dHuDB9tOWfN4eca8eXYXTcbrOAI7ZQRbabI8wkVy6rKNZ2wYUroWpEMn49KyyYmt3DrSi6zFuCNuXE1h/Dn71Z0a7tHi87m1xY9d4YWn43xu+4qPpuMJ88QvXu3IECFKAABShAAQpQwA0CPhlyEr5diz1pL+CtxsUdtnq4wdTmg7pcyEk+9zVWLlqFr88kWcyeZjhMQHAZdBw7HW9E5s06bjLeH9ENm0/dQ2BYaTzXoR+6vfAE8krCjpKQ03ZAc/ywdhduWszGln43BSmmFGHiEcazhIXlEeKI5Z/1DGO2uquFfD0Dved9C9Pk0oZjBRdvhdlLekhmX7OehEGunnT5GmH6+sF4TDJrm3zIycDPXx9Hyfo6LOw8DSdSTTPYiccVp+puf28GYl0ccjL0/+LQ5kXY8MUZ3A17BK269sNr9Yp58J50393OI1OAAhSgAAUoQAFvEvC5kHN13wwMjv8Gd9IDUbHZMIyLrof8NhdrdGdV2G/JSbtxDBvil2P3iQRhygDbfwHBtTFuw2jUCDLGC8uppoPRYvgG9HkmKPsgSkKOafyL6dwZ+rNYED0c+xJMkwGY/jVEmIFsMQY2DXeIZntMzj38sHI4Ju88nx3ogos/izFTB6JauHl8OrMlBsM3nZYNfoYL0KFS6ymY1b2y2fVYhpynO41Cvu/i8eW1pzIDUcDWERbHNXSFq3BgDCbv+jv7WMqmkAbKCWOkJr5VUcYkGbsn98Oyo/9J/i1EqKs1Ql1Zj8dyiMoNKEABClCAAhSgAAUUC/hQyNHj7z0zMHTRkexpkcUH4cI138HMUS/JdutSrKRpQ/mQM6Daj1g0fykOnrppN9yYTqlDra7LhKmmDevh6K9vx7u91mYNmBf/S0UMWD8TTQqYQoKWkJOhv4wtY0daTFetg073AA+yGj4CAkugY9w8vFE5j02RO398hJjx7+FiirSJSIdyzw3F2Gixe90tYSa0/sLECLdQqMLrGDetE8oFWXe5ExdA/Wb1TCzZ/QtuWzT9iLOq1Wn3Loa0rWY16N8y5Jgu1DBBQs2bn6B/j9W4nHV51i1lhj2cXwzUuv7F4+avGY33xjXXdEdxJwpQgAIUoAAFKEABZQI+FHIS8MGo4dhotaYMUPCJzpgW1wYlZMavKGPSspV8yBnS5BdM6hqHY8nmXaYMZ9AJD/7lEXj+rNmYFV1oNQyaNwaNigXj2s5x6LXyRPYFiYPmZ6/si0clXbbUhhyxVWnxhBn46m/jjGyGw0cID+S9yuzE1I9NY1XEoPPqsHHoVM+6K2DCt/MxfNY+JMk1BAnHCy4ciZc7dMbrDXLh+28CUL9JBZfPTGY75JRA94WToVszWAhYiRYVGohSddqhf6/X8ERRQ4uY8yHnGCa2F+rZomtcxNNDsHpEIy03FPehAAUoQAEKUIACFFAo4EMhRyxxEnZOHojVR29adXMqUK4tJsyw1WqgUMvOZveS/8HdwAjkzyO2SqTh/P5FiJ33NW5L9jGOybl9ZAF6TPk/SYuTMEtXWHm8/m4M3qxXGPtndEf8t+YLgAYIx27wWlPc/PJDnPzPFJDkHprlQk7bsim4kWgMMTqEhRdGaMBNHBRagZbsOiV07zMvXHDxlpi+MEoIT39iUf+R2Hv5nmQD61Bw96dl6DZ2N+4ooRTG9+QrVALlyxVBcEhxVKlSCsFK9hO2SU88jxN//ivZOhT1Ow5A0/KGyQcubx+Nvmt/NTuaIZjFotpvMxH3samrnPUpdchTsAyq1K6D2o8WR3jZojDO2xZSoBgKhFi3OD1ITcD19Ap4skKY1eFMXScN/xQY9hSGLByL+uG5FJaWm1GAAhSgAAUoQAEKaBHw8pCjpUhJ2DtrOBYfTLAKOiGlWmHqvB42ukdpOZdpn7s/L0P3MbuRYucwpokH9Ng3qyfmH7wJsetVw66D0UsyecD9K9sw4N31uKy3mBXA6tjW43HETeRCjmH9GcNf2o3fsG39Knx6+KxVVzDx38WWo2GLJmQ/jN/5YxMGjfoACfctrycQ4Y/UROdBMXiuzGGMfFOYMltyzbrQCEToknAj2d6oI+fcA4LrYdLmkaiW2ZL1Fxb0Gor/u2ZKbLkL1cOwGYMQ9OkITNwhDTghqFq3As4d+9Uq4Km7Iun6PtZ7plz9GUd+vIT7BSugQZ3HzCaIUHcebk0BClCAAhSgAAUooFTAB0OOWPQkHIwfgzl7L5gFHfGBd+ScGNRyy5t0ywkBLKvAPJCkJ/+AXV/nxfPNzWdGM+51eedY9Fv5k52B95Zry5jO5yjkpCceQGz0XPwm02XOlpGtoBNYpCXmLY8SZkZLx97pphYoYxe7BgXPY3XsFHz6R6Ldsii9YS23C687ECtGNc6esUy6Bk9IqZaIm/02kt4fhSkf/2k2BqqI0G1saUxD3L+8D9PjVuCnq6mars9UfrlxRVpLxf0oQAEKUIACFKAABZwR8NGQI5Kkmc3k5d6AI55PL7SgdBbGe8h32LKeJtlRtelxYt1wTNpm/nBu2isEDaMXYGhzw4QE0j9HIUfcNlloeeottDxld6cT1uKJfDHa5to7maI3vsHsUfNx5Hpa1umChWtYKlyDYcY1Y2tWauhj6DMtDs0fMXVCE6fK3rDpY3z703kkpdkYtOOIxOrfdcL5NwrnNy0GKtbDj2uGYN5PtTE+s3tiurAG0VpMnLEruyXK2BXPNOGBHolnjuGTPTtw6NAZXLtjOcm17Qsr+Vwslgyso/rKuQMFKEABClCAAhSggPsEfDjkiGiGFp34Xx5FrMw0xa5mlU4KEBAYgnyhuYVT5MUjdV9EVI9WKBNivcqM/WsQFwn9EItWbcephLvZLQ0BgflRo00MRneoKrvmipKQI8QcIZT1wcoTd1G2VltESwbd27+mNJz+bCFmrfkWt4u9hoULOqFo9hTdv2Nuv6UoHz0Vre3MwJaaeB3/Xf0LJ87dtDjVXfx96hSu35GblEHuqsrhjZi38ET29NrGbfS4fz8XcksmmhAD2oyYuTie+oRZVzy5oz5IE7rYJf6HS8K1XLtjv8tgicimqFFW6YgiV99xPB4FKEABClCAAhSggJyAj4ccschpuHs3CHkyJwTIuX+GB29x4gDDpAHSxT8tSyWGiFtpxodz29uLx0zOyJ81WYI6mwx9Cm4JrgXCxCBn+rt//74QLsz/m7oju29rcXHOa//lQ/EipjWF3Hc2HpkCFKAABShAAQpQwFMCfhByPEXL81KAAhSgAAUoQAEKUIACnhBgyPGEOs9JAQpQgAIUoAAFKEABCrhNgCHHbbQ8MAUoQAEKUIACFKAABSjgCQGGHE+o85wUoAAFKEABClCAAhSggNsEGHLcRssDU4ACFKAABShAAQpQgAKeEGDI8YQ6z0kBClCAAhSgAAUoQAEKuE2AIcdttDwwBShAAQpQgAIUoAAFKOAJAYYcT6jznBSgAAUoQAEKUIACFKCA2wQYctxGywNTgAIUoAAFKEABClCAAp4QYMjxhDrPSQEKUIACFKAABShAAQq4TYAhx220PDAFKEABClCAAhSgAAUo4AkBhhxPqPOcFKAABShAAQpQgAIUoIDbBBhy3EbLA1OAAhSgAAUoQAEKUIACnhBgyPGEOs9JAQpQgAIUoAAFKEABCrhNgCHHbbQ8MAUoQAEKUIACFKAABSjgCQGGHE+o85wUoAAFKEABClCAAhSggNsEGHLcRssDU4ACFKAABShAAQpQgAKeEGDI8YQ6z0kBClCAAhSgAAUoQAEKuE2AIcdttDwwBShAAQpQgAIUoAAFKOAJAYYcT6jznBSgAAUoQAEKUIACFKCA2wQYctxGywNTgAIUoAAFKEABClCAAp4QYMjxhDrPSQEKUIACFKAABShAAQq4TYAhx220PDAFKEABClCAAhSgAAUo4AkBhhxPqPOcFKAABShAAQpQgAIUoIDbBBhy3EbLA1OAAhSgAAUoQAEKUIACnhBgyPGEOs9JAQpQgAIUoAAFKEABCrhNgCHHbbQ8MAUoQAEKUIACFKAABSjgCQGGHE+o85wUoAAFKEABClCAAhSggNsEGHLcRssDU4ACFKAABShAAQpQgAKeEGDI8YQ6z0kBClCAAhSgAAUoQAEKuE2AIcdttDwwBShAAQpQgAIUoAAFKOAJAYYcT6jznBSgAAUoQAEKUIACFKCA2wQYctxGywNTgAIUoAAFKEABClCAAp4QYMjxhDrPSQEKUIACFKAABShAAQq4TYAhx220PDAFKEABClCAAhSgAAUo4AkBhhxPqPOcFKAABShAAQpQgAIUoIDbBBhy3EbLA1OAAhSgAAUoQAEKUIACnhBgyPGEOs9JAQpQgAIUoAAFKEABCrhNgCHHbbQ8MAUoQAEKUIACFKAABSjgCQGGHE+o85wUoAAFKEABClCAAhSggNsEGHLcRssDU4ACFKAABShAAQpQgAKeEGDI8YQ6z0kBClCAAhSgAAUoQAEKuE2AIcdttDwwBShAAQpQgAIUoAAFKOAJAYYcT6jznBSgAAUoQAEKUIACFKCA2wQYctxGywNTgAIUoAAFKEABClCAAp4QYMjxhDrPSQEKUIACFKAABShAAQq4TYAhx220PDAFKEABClCAAhSgAAUo4AkBhhxPqPOcFKAABShAAQpQgAIUoIDbBBhy3EbLA1OAAhSgAAUoQAEKUIACnhBgyPGEOs/pMoHrX0zHkA2/Ik94WZQtnEc4bh78r/0gNKsU6LJz2DtQevIPWDXvc6QUfxyPl8yLXAUfQY0q5VG0YIgLz5+GP3+9gOJVKyFvQIDd4178egXWHUiQbFMRHUa3R0Wd/f2cv9hk/HbgEM4nP8g+lC5veTRs9LjDa3b+3A/nCPf++g6fnr6DCpWroFSRCESE5VZw4vP4fNOvKPl0fTzxaCEEOag/BQfkJhSgAAUoQAEKKBBgyFGA5O+bXPzxC/x6Nd1tDLmLV0OzmmU0HF+PnRM6Y+XxO5J9C6PjrGVo95BCzt2fl6H7mN1IkVzBoy3jML93NQ3lsd4l+dwezJqyEj9e16Fh9AIMbV7U7nF/WfMuYndclGwTidHb41DX7SHnPOKjhmBvgj773IFFWmLe8iiUcfO59dcPYcnyr5CYkeGEueMweGr9QIz46Fz2OQICC+L10SvRpabtsCO9PwICQ1CkdAW8/M54vFJdSUByojjclQIUoAAFKODnAgw5fn4DKCn+zglvCkHirpJNNW0TWr033p/UUvW+6cl7MKzrYvypNz3c5irQBDPX9kcFNz9YGy/23AcxGLjxtOTag9Fi+Ab0eSZIdXnMd0jFgUVDMX/PJWTHBl1F9F85A00jctk8tq+EHOX3XCSGzH4ca4Z8hJtOiTsKg8l4f0Q3bD51zxRygmtj3IbRqBGks3nmfbO6YP7BJMm/l0T3+IVoXebhtDQ6RcKdKUABClCAAjlYgCEnB1few7p05Q+c2q5ILuRk6FPwz7/JMHV+sj72zQPxGLXhZ7NtitSLxuR3ntR2IcJeAcH5VXQ1k2tJqogB62eiSQHbD75KL+7G1zPRb84hSONlnrJtsXBBJxS10e3J1SHnzjfxiFp6RHLJhdFu4ky8XM7yIV15S869i9swLHY7bmZnU+tjKr/nHlbIOYaJ7eNwLNV0R4bXHYgVoxoj0EZdZOiPYnynqTgh2SdIqL+lQv1FsNua0o8Bt6MABShAAQpoEmDI0cT2cHe699cGRA3aKnlT7bouWXf+WIfoYdsyjx1g48208gdObS5yIce6zNqOrXYv07Uk4Ohnx/GP3R5QV7F33U78dde0kS5fVbzRoQEKahwCYz6OJRm7J/fDsqP/SYqhQ2S7OZjcsZxs0VwdclL2T8Nb8w6bhRz57oAqQo6C+1n5PfdwQo51t8RgNBuyFv0ahdq8xa7tHo/ey36UhHAd6nZfhdGtwxXclicxo2ssvkkUQ1VhtJ+2CB0qi2POfO/vzKahGLrlTFbB8qNt3Gp0rsbufL5X0ywRBShAgYcrwJDzcL01nc19Icf8wbR0s/FY1K+G1TVaP3DmR6Xaj6GAptL8h99/+BO3Jft6Z8g5iBGvzcapB86M81APZDmOJT1xH0b2XoDfUyXXoSuDngvm4flbOzFz269mJ7l96SR+T0iV/DeldSU/JiVnhhzHZc5IvYxfTl6FqfOZZXe1G/hi6QocvWEYi5aacBonLyVLXMNQvsYTCLfoOfhk6xFZ422S8cGoHth4UloX4WjYsS2qhNlKwEVRp2UtFMlq5fl+aRTiPjNMIhFYpDlmLe6LckEa07P6W/Eh7XEVK/r3w64LprFcjlrIHtKF8TQUoAAFKJDDBRhyckAFuivkXN45Fv1W/pT1ptn2WAHrkONo/II9VOvwwJBj8pIbrG9eT+K2OpR4ZgDiah/GO/O/c9EdLF+nngo50kJZtk5Z3i/Wnw/H96fjfaxbppRAN4zeKkwOEYT7V7aiX98NSFCVkc2v2/wY9lvwlFybN25z97dV6DHyE+Glhw6BgQHQ64VQqXsMg9ZOR2MXdPn0xjLzmihAAQpQ4OEIMOQ8HGenzuKOkJOhP4ZJXYUxBllT/gaVehWLFr0tO9bDIyHHatyGiTD9bgpS7lnM9qYLQlhYHuFRybm/0OrdsGxYE+Eg3tGSYyjNVawZOAA7zqXh/9k7D/AoqnaP/7OkJwRIIICIUkIJAkqTCwgifPKBoOAHiiBFMNQgvSWEnoTeQoAgHQGloygWFBUpggKiQmjSpLckkJ5Ncs/sZjOzuzO7M7uTZLO8e+9znys5c+ac3zkzc/7nvMXVtxr+99EEdG9aHhk/zTExJbOn784och4YncZwdCq16I/+bSqhYEWOBvvn9EfsEWHAATljYzoGxsEOpMxJ5dTsqGX4wAyV8VaX0vhyz1+6TZfaXRdjTh9xk0xH7Qu1iwgQASJABByLAIkcxxoP0dYUhMi5uHUCxm85l+8vUPfdWObnIR7GuShEjvSw8At+YRmxRZFY8AKvUoHw85Rj8nMMUX2X4ZyEuVpuVhqepGUZNbOEuw98PKUjn8mZapxZUtSCXnjGxDE9+c91iN7rjyGj30RlL72UMz9lkXMHqTLOKHKumYW1rtF5Pub3r1GgImfUyz9gzIcrcUUQ9U/eyJiPwd29UzFw9R/5lzvT4l8YmIE7wVy48Hks6sO4sVDghR0lUd74UCkiQASIABEoTgRI5BSD0VJf5JzHgn5hOPjIcBpSGQPjlqBjRfEFuiOJHHPTLWbd4t0U0zdMRH2TUL5iwQsM5kT2DbtWZKe+JLpMW4d+DQrPYTr9zG4zn5x7l07ius5Z3fAT908xL/d0iBzD+NtykuNdPhh1KvsI2Jr7l7UM/RQtLozC7P1FOzQZAAAgAElEQVTChKwaePj6wsPkmNFcKJuPQXbyNxjTK0638Od+ai7+sxP/wMY1X+FW7rPo2Oc9vBToYd9jofBqYWCGZ16LwIqRwYIw3dYDOyi8HRUnAkSACBCBp4wAiZxiMOBqi5y0YzHoE/1DvtO1taSNjiJyRJ3wmYFao74rMeV/5kkyC0rkiPlbqLn4BJJx9uAhXM0zJTSfot4IfqUVqvqZG+eZjpXU2Mod0+Ltk2N+kmOPyKnWaTYWDQgWDIe5SWPTrt1x4/NtuCk4xZEaA3O2YkLzPjNVHMJMFQ2nhmot/o1PRNWdv3JeqsLADPwGgVD4+LL8WRtmtJcM0S3nLlSGCBABIkAEnl4CJHKKwdirLXJMExTqd1GbSJKQuyCWh1Je4AHzupLYLu9AlozROCmpJYFWMCJH7BRHbR8Ca07vUiHETRfEXFSuDlj88SBUNkmOaiaGAtphweqhqGJSTl2TOKkZYjkkuu2BBwpf5Hh4eCAjI0PQUQ+0DI1jwQjMw0abstWUbIU5G0ejpskYnFodiml7b+TXGdBsDNZObCXvcZMsdQSTus3F31mGyAjWgzXYeUOjy4UbBUKBZZTglwIQqImc6iICRIAIPHUESOQUgyFXV+QI82/oO9980KeY8IZ0vo+iFzlanFo3BjP2XDVJDmo5f0hBiBzR/D2qL8ZsFTmXsGTAeBy4xwdl8KzZC2vndoOPiY+P3BOfohI557aGI+rLf3Xz0zTQhIurF0p6680Cq3aYioj/+9Ukj5RhwX5WkGuGK82fGNhiribnJKfxOxGo/u967P7tBrjYGJYCepiylRKkqQfn4f0Fh/LnvotHU8z8LAz1TMSQsleZFkdWDMO8b27r6g1oGIqlU143myfK6pRfWihcjUPXGyfYdSYfJPl0qCQRIAJEgAioQYBEjhoUC7gONUVO5vVPMWT4Z4Ikl9YTixa1yLl9YBZGslDJxmc43AI3EvMH1ZU0Z1Ff5IgHPSjbeBBmDGwEV3vmgcYbAWV98/pim8jJ1f6I8e8swQVBsASpXX9HFznmSU3F4XLCY07bExIi55BJriN+rheUyDGYw2XcP4E1c1cjt81gvPZCbdR5ztzfxTSogJTIMX9mA9Fn8Qp0rWrXjGNAtXhy/yFSc9xRJrA03E2EsD3T2fK1Qp9A8/fPkyOL0H/OTzpz2sI3oyu4XlPNRIAIEAEiULgESOQULm+b7qamyJHnB2DczKIUOakXNmH4xO3Iy8mY3zCPCh0wZ+kglhzRPEywoZB5wke2Y12lEaqWFY+uxidyFB8msaAHNg2oyEXGC9wbWDcuAgfu6E9kcnMykJKcITjFEhem6X+uRP/J+5AiqF8qat7TIHIapX5r5LQPBGPCtmg0ZxEAbBE5z7WZgIj3qgvoHsfcwWtwSSAq+cAWWtw4uAKTY75Hols9jFs2Hc1NMoeaCjlp00tzE09rp69qzcuCqEcoYsRPuk5gxnssvH0ad8aklg9SQfSE6iQCRIAIEAFHJkAix5FHJ69taooc04WVlB+AEIu5yHGFt5+3jScXWUh9nMb2kPmfWDJQ7q+pF7ZgVPg23Mn3G+Cv4ReT1k495A+wpchr2Ylf2xgWWN79lfkWiYsc89MP6YhvckVOTkYS7ieanqGJ9ekGNkZE4ZDAVM414FVMju6JilZPCDTw9S8LHzdefKpxkvPS1c1GJzxCMy9bRI6ckeTm0OhXb2P3vChs+u1uvjDlRbl0H6XngLkZornpnJzWOUIZY582KXO0o7EDWIS6e7oG+9Tui1Wz3y40UzpHoERtIAJEgAgQAfsJkMixn2GB16CmyDENOmAtshrXOXORo26XxUSOJYHD3b1wRY64mZqaFOwXOaZhwVnrNHURvnUmmpqE1hYbUznzwHJ/zcWmPXVmJj9AQor+JOv89ulYsP9m/u29gntiyajWuv929fFHyXtbRc3VXvjZOFmqW4VOiIkL0eUgKkiRM+rlXxERughnTaLjlWMBA+ImtMw3r5R/kmPO1o/50HwytZ2aU7BQ6jIKLADp0PXpZ9cgJOwLPNG16hn0j12KzpXtNc8rlC7STYgAESACRMBBCJDIcZCBsNQMNUWO3B18YXsKX+Qcw5R3Z+F0hiHykzmdwhM5UkEP1J049oocoQmQoWXSIXiTBflI9KXdn+uGuJheCLB66iLVb3VFjvAutkZXc1s7TDIqWUGKnLHt3PGEhWkPYWHajc/AvJg4j2GR1vThzu0ROVKnn+rOSvVrE/ohSQXF0N/VWLQbBydQv11UIxEgAkSACDgfARI5xWBMnz6RIx6mWThUvMi5j2/jVuG4qdMOK6yGT04y83MZzPxc9DvK/K8SC7sdM6KxaNADsYhk9iQhtT7+V7Fi6Dh8c5Nz1Tb8LPkymAsSsUWzMv8tpSLH3M9EipFtImci/gnvz0KO80wqNe6BTo38oPGphqbP/o7Ro7fjUT4v0xDKtplBCn1yjsaGmiQF5RLX8v45T5/IuY1Vw4fhy2tCY1V5L2AXj8aYumkSGoicSsqrgUoRASJABIjA00aARE4xGHHri1z5nbDlJEd+7eqVFHOiFxc50ve0N7paduJBUbMjMf8KYSsKV+SInzRZikqVemEDQsftEizwAWcTOeHb/4vdPRYiXpCU0zBG3KnZ3DAfRI7eoUjkyAkhLRRqudpLiAllIb3zAkgY7l+qbghiIzvh2vrhiNhzPX/qSJ+myROl6j19BVOTsQma0nto2CnYZnYKJh3qXmmNVJ4IEAEiQAScmwCJnGIwvmqKHKFDL9d1W/0muLDOYTt8MCZyGOr5a6xQ1OKPDeMx60c/DJkehtbPm4fTNa/AYK6Si6qvvYcKZ7fi6F0+/4uckxF7RA63QF02PAz7jU5HWCs15dF77nJ0qyHtH1CYIkc8vLYGjfquxJT/BYITix9O+555b3tCP0rmgR+4f63CwnEvGVzPaBiK80lO/5ASWL/6tEleJX33dCJncjnETN6DR/kWkXUxms3RBvm5Z8yFhVKRw93L9CTQxTUAr/YLQ2jHIJw3ETnSJmjmbbGWwNcRX2u/xQ1C5Nd3dE1zK1MNL1Y3T5Bq2u57l07ieiIXZY0CEDjimFKbiAARIAKOTIBEjiOPTl7b1BQ58RtHYuLOK/m9tiWx4N2TKzEpcp8urLPGuwp6TYpG17o+EiST8EvsZCzcf02/4NSURrvhszGodQXJ/DaGin6LC8W2EgMRFVIKHw8eg/13eDOXghY5N3aFI3TDGZM+GftUSE2dwhE5y9DsSgzGxx1GKq/9dE3yZP41S5l/TaDOv0YYjleqxX7oFrkWvevpE2wafo4scjZHNMTvX27AJxcaIGZcczx4mJwvaHKzLmHN5Pk4/ki/ODb9yRP26ogcLheN3mztHspUb4+REz/AS4F6kb8vqgdWHk/Nb560yDGPriYVGtxRX2e52uOY1msW/tCFhZZ/KnN33zQMXnkqb2wpAIGjji+1iwgQASLgiARI5DjiqJi0SU2Rk8Ycovswh2jeU4HPHSIHxZ0jSzB+/gEkCRfWGh807ROJ8V2qmgiXNPy8dBQWf6/Pqs7/XBH0+jhMDW0KPwuO7rnaLGSXcGV1XkPsoMIVOdnJ35jkWNEgqNMMzAmRTj4qLQ6E0eDkUDYuIz7+c+G1bSzWHn9kzFZTGQNiFqNTfiQqLXZP6Yn1pzMkb+xffzCWzGhvNhaOKnJcXN3hlpuJTDYHzQULM99bPYoFHODNwCyLnF8wbcC3qNN3MLq0qCRIiKmWyAGyk3/Hlz+XQoc3gowSbpqajkqLHFP/JQ+0H78JQ1q4K59MRXSFMDCGEv8aY3EEUACCIhpAui0RIAJEoBgSIJFTDAZNzOxKSbOFC0Hzxbt4zhXz+rX497uFoicHnAlXz+gYdA/2NLssO/EYokfPw+8Ps8z+VqpqF0yZ1RdBXtbM3cwXnAV9ksMMjbAtPASbz6Tp2i0lBMTGQd2TnAyc3R7JnK7/FAhTw5ilYG/USF7osFOy/46ej6Etyxk168q2CRi5+ZxIUzXsdOF/mDq7F0uqap4g1VFFjpFcZqZniz8ehMo6MzNujs7F2GXHjKKa+T33PDTXryEx70Kp56GEeyAatuuNQSEtUU5EWNtirmbpOZUrcsyf/yCM2DgPbUpZe24svyVyMq7hu007cSotCL0+7ITKVp9DJW8dYVnjZ0mpUBGauSkRSLa2lq4jAkSACBAB5yBAIqcYjKOaIgcwFwzWs6drcXprBKK3xJuExGXwmMDpHB6F/k2MF9ZCrDkZ57FizBR89695UklX35cwYmE4WpW35KdTFCIHMIS7LVW1G6bPFRcCBSlyuEXop5FTsePPBDPfEq9KbTFx2iBm+pSO/fPHY/nhdLwuInC49mXdPo39p/g8MxqvCgiuUwm+LMdMgK+xiZqwP0UpcrgkpH8f3o3dX/yEP68kGCWPNWZuiIqWjYtfRCJizSmjOeriUQfDxtfG5pl8oAWhyDF9tvjkuOanh97lg1GnstAsMwHnf//HKPKeHPGtb795GG+pkxzTcZBnbmftxWac+8mD5RBasCIkTyxau1bZ37X3duOjgetxS+f/pNzkLOvWdgwbugl3dNdr8HL/NZjU2bo/j7JWUmkiQASIABFwNgIkcorBiKorcgDhzqhu2cHCIa8Y2USURK72Ib5dHI6Vv9wxd+JmAqf7zEXoKemPw1eZq72JrVPC8OmZJLP7uLhWxHvTF+A9yXrERc675X7E37dNHFIEtWc//A2f7jiJFMG/Bb0agra1S0iOuluFeni9YWXd37lTr4ljr2JozCB20nET68ZFmEXKEqsoNysNT9KMT67cvErCy838tMT0etdy7RC1oBfK3PwaUyeuwfknFsLtMjPBoOad8cF7zVHOszwqlFPXfMlc5FRC+4Ed8byoieEjHPxsJ+KTeMNETckX8E6PV1BatNv/4IuPv8dtQSokg0DISTuACb1icEEkMpoxL1f4P98R4fPb4cy8Gdhw/K7JHNX7UA0P+s4oWahQJKQenIf3FxzKv46PcGYucuS8KuSKnCfxGzBq0i6dX5vhJ/UcnlodapTvR52gA6YmcKYhtOX0Vl6Zi1vGYuzWi7rC7pW6YNmyD/L8xeRdb3qqalsdcu9F5YgAESACRMBZCJDIKQYjqbbIMQ3lKhW6NuP+YSwIX4Jj98z9OThh8n7kYrwjYqImjTRJf+ogKpjETa30dYmLnFpHe2P1SfPTIXuG1Hg3XYusrBJw04kT2/KmKG2LfgHeEV8OG8ny3ijIJ6Jxh6+vIYKa0rvy5UuUaolpMQNQhZl/iZnd2V6z9SuFuY/WjRyCPVfMTRy5Wlxc/VDvtd7o37cV3OO3YW7M57hqJgZ5H6qcK5uNRA40QRgaF412AcnYOWMEPjnNZ0HiBYRt4y0UORkXNmPUzG/McixJRbir0Xk+5vevYQLqPoxZlESXaevQr4H0CZx10lyJZBb4YBgLfJCgK67EHFNe/YZSwqSetp/CGCe7FQ+UoaxdVJoIEAEiQAScnQCJHGcfYdH+mSblM7Xxz8C5rxcjetUR4wADeXW5+gZjUPR0tJMVCtq0ASbR1oz+7IUmfaMx8W3TAAZFJXKEjbNt0at0ehlOGdI/G5e/+62vwxW1Oo9Gs38/xvqTBu8SpbVbLy88JSg6kQOI+RG5+9VE+74f4r1Xa8FLex5rp8zCVxcSRcJEa1C24UAsmqIPppB5/VMMGf4ZHghOjcRJCKN+2Tbexic5ciLbGVoiLl5ytb8grPuC/Hw/lvIfWR9d0xIZuHD0R1zJrYpXmtSEj4yTRuX3oCuIABEgAkSACBQNARI5RcO9yO9qHJrVNKSr9IkL5wsySVZuHEtd1OfNmbnrH2NfC0n/nqdP5FS4s0Pgh8AJnOmI7vcCSmQ/wrcxEVj18y0Lfiq2Ti/jhXZRihz+9JIzSWuKriF90L5eeUH0PvEkqJzPxjPNhmPOhNaCaHEyxYamLsK3zkRTd86h33zOla3XBV2blxfAlTa50xfSYu907rSRDxMtNTLGYb/5UsYnGEDtrosxp09VWweYriMCRIAIEAEi8NQQIJHz1Ay1cUdztScws28kTiTrfSh8WRjhDSyMsGu+v0USW6ANZws0w6kBt3gMRdSYtvBXZcfXJJiBRf8ecZFT/++h+OSUdGhkW4bWu34/rBzXRuTSZJw9eAhX83jZUrecazQ+1dCyVS34uDzIM1PKzRc4/NgAKbf/xBdbNuDrY1eQlCHtlyTnnoYyvNO93okm9XAsBsUdU1KFgrLmSUmNT0HOY8uCY6jZoxsaPyOV5d5kjkqGMgf++Woawj82Dkpg3FgNanSOZuZiwXn/rE4IaenIdvzd3co0RdjCCWjkb+orpsX+Of0Re0Tvx+biURcTVs9EMz/7oqopGCQqSgSIABEgAkSg2BIgkVNsh87+hl/cOgHjt5zLS9JZE6PWz0FrQVjaXO0lrJ8wHXsua/DqwGkY3r6K1QSeylqlFzqztiei60xL/j22RVdT1hbHK31370wsuP+27gRHKHBMW5qZ/AAJKQahk4Yb8fG4m2rVNsusw8KgCwVPw9Tx3bZcQtwcXTY8DD8mVceHMybjjepSSWmZF8qVY9i173tcM0sSWhoNOr9jclJ0wyzQRNUOUzGjZ5AAzTlsitqBKzk86xc7T8Rb9Xl/mfSzGzFy1n6j4BdcBaUq1EDF8hXRpE0HtG4gzM/DV5+d/B3G9V2Of/ICMJiHsC74UaI7EAEiQASIABEorgRI5BTXkVOh3dwCMSZ0fH7EMDFTGC662t2EkqpH7uKbr0V6ei48PS05Umvx5P5DpAoyinqVCoSfp/VoZSpgoioKhEAGEu4mCnL/ALaOaU5GCtI03k7nUyKMSqbxborpGyaivs6Ujn5EgAgQASJABIiANQIkcqwRcvK/J/+5EoMn79NFgFLXqdnJwVH3iECBEhBGJfPCa8OXY2Rbyg1ToMipciJABIgAEXAqAiRynGo4qTNEgAgQASJABIgAESACRIAIkMihOUAEiAARIAJEgAgQASJABIiAUxEgkeNUw0mdIQJEgAgQASJABIgAESACRIBEDs0BIkAEiAARIAJEgAgQASJABJyKAIkcpxpO6gwRIAJEgAgQASJABIgAESACJHJoDhABIkAEiAARIAJEgAgQASLgVARI5DjVcFJniAARIAJEgAgQASJABIgAESCRQ3OACBABIkAEiAARIAJEgAgQAaciQCLHqYaTOkMEiAARIAJEgAgQASJABIgAiRyaA0SACBABIkAEiAARIAJEgAg4FQESOU41nNQZIkAEiAARIAJEgAgQASJABEjk0BwgAkSACBABIkAEiAARIAJEwKkIkMhxquGkzhABIkAEiAARIAJEgAgQASJAIofmABEgAkSACBABIkAEiAARIAJORYBEjlMNJ3WGCBABIkAEiAARIAJEgAgQARI5NAeIABEgAkSACBABIkAEiAARcCoCJHKcajipM0SACBABIkAEiAARIAJEgAiQyKE5QASIABEgAkSACBABIkAEiIBTESCR41TDSZ0hAkSACBABIkAEiAARIAJEgEQOzQEiQASIABEgAkSACBABIkAEnIoAiRynGk7qDBEgAkSACBABIkAEiAARIAIkcmgOEAEiQASIABEgAkSACBABIuBUBEjkONVwUmeIABEgAkSACBABIkAEiAARIJFDc4AIEAEiQASIABEgAkSACBABpyJAIsephpM6QwSIABEgAkSACBABIkAEiACJHJoDRIAIEAEiQASIABEgAkSACDgVARI5TjWc1BkiQASIABEgAkSACBABIkAESOTQHCACRIAIEAEiQASIABEgAkTAqQiQyHGq4aTOEAEiQASIABEgAkSACBABIkAih+YAESACRIAIEAEiQASIABEgAk5FgESOUw0ndYYIEAEiQASIABEgAkSACBABEjk0B4gAESACRIAIEAEiQASIABFwKgIkcpxqOKkzRIAIEAEiQASIABEgAkSACJDIoTlABIgAESACRIAIEAEiQASIgFMRIJHjVMNJnSECRIAIEAEiQASIABEgAkSARA7NASJABIgAESACRIAIEAEiQAScigCJHKcaTuoMESACRIAIEAEiQASIABEgAiRyaA4QASJABIgAESACRIAIEAEi4FQESOQ41XBSZ4gAESACRIAIEAEiQASIABEgkUNzgAgQASJABIgAESACRIAIEAGnIkAix6mGkzpDBIgAESACRIAIEAEiQASIAIkcmgNEgAgQASJABIgAESACRIAIOBUBEjlONZzUGSJABIgAESACRIAIEAEiQARI5NAcIAJEgAgQASJABIgAESACRMCpCJDIcarhpM4QASJABIgAESACRIAIEAEiQCKH5gARIAJEgAgQASJABIiAXQRSj/8I7b+XkHXuNLJvXtHVVaJSVbjVfhGuz9WAd5PWdtVPFxMBpQRI5CglRuWJABEgAkSACBABIkAEdAQyr55H0upZyLl13SIRzTPPoVRIGNyr1CJyRKBQCJDIKRTMSm6SjJ/Xb8Tj+h3Rpt5z8HFzkX3x9VPf4u/b2XCrUA+vN6ws+zrHLKjFk/sPkZoDuPr4I8DXzeZmZt0+jf2nbrLrvRH8SitU9dPYXBdd6NgEcrUpePAwGWzawMXDD4GlvQq9wWmJ9/A4I1d3X3vnrlTjk6/8jDXr/sZrEUNQ353mc6EPsoUbZib/g68+Xo3H/zcFfZtbn3/pZ3Zj3q6/WY1B6DHpPQRp5L/zHanfBdmWB8f24kBKJbR8uS4q+rrLuNU57F7zN55p1hJ1awQq+o7KqBzZSceRcjALJTs1h4tLUY/XRSSs/RoeTTrAo0YQSngWbnuSdnyM9H2f6bBpKj4H9wbN4R7cEB5Vaur+LePqBWTGn0TmqSPIua0XQd7vDEDJDj3koKYyRMAuAiRy7MKn/sXZyd9gTK84XMnNxbOvT8OyYQ1k32Tv9O5YfTId3vUH49OZHZCrvYRVM/eg0YhRaORfQnY99hbMTH6AhJRs3L98CtcTEnDx5D/IrNYeo3o0gqvsD8JVxA4ag/13tKjWaTYWDQi2uVkpP85Gz8VH2fVl8f78lXi3hmteXck4e/AQribnoHRQCzSvWcrsHn+t+wgRe67nM7W5EchAwt07uBx/F8+0aIKKCsSr7fd8+q7MvLwJg0ZtxyPuQ5r3HBQmhdQLmzB84nbcz+bu+hwGf7wYHcqr++xlXFiPgeN2I5HdoWqHSMwfVFfBc1WYNJ7Ge93Aqo9G48vrGShRqhVmrR6FWlZEKP9+qotJuyPxso0iJ5uJq4MHzyNNVeyBaNKhEcrJfm+revP89/S28BBsPsP1rDIGxi1Bx4qWn6m0YzHoE/0DMtkVSr+j1nqQdWcPEiOXI4ftwLk2nAD/0P8UqdBJOzYdj1f+rGu2e5ulKNPrBWtdUO3vQoHj0boT/LqGQOPjJ1p/TspjPN65Ghk/fan7u3e3EJR8o6dqbaGKiIAYARI5DjYvLm4Zi7FbL7JWPYP+sUvRubJhQW69ocYipxm2hg3BlrOp0HjXxJDZkWj3vIf1SkxKCHfGwT6fN+LjcTeV26VO0omXx0yMpT24hn8fZSA3Kw1P0rIk7lEW781ehh7BnmZ/T09Ph6en6b9bFjnZTEglugYgQMaulbTIsS6krIkcYz7IE3Y5SL59DudvpSDp9kXcSUpHSnKG7nSB7XXh5f5rMKmzv+KxKMoLDBzUboNruQ5Y/PEgVLZxYWfanqIUOdmJBxERughnmWg2/PyZ0Foyoz38VF0kanFg/gAs+YVJOU0Qhq+ei7YB0ou+zOu7MC5iNx7pD5es/Mri3Rnz8GZV+e8dazVa+ntORhLuJ6briniVCoSfjOfZnvsVxrXJf67E4Mn78ITdTM4GjZjIuX1gFqbu9cdHkwegnr+8kzrh3Fevn/YJLzXakZ38Hcb1XY5/tLnwqd0Xq2a/DR8rz9PR2AGYvf8eu70fukWuRe96tlsCmPYhV3sOD8JHIOcB963TwPWFj+A/+q18oZP17yYkzt0OWY+bBUAuAZ1QdmqIFQH1GA8ju0N7OYM1pRYCFi+Hq2/hnORwJmoJM4boelBy8GR4v/yarOHm/HaexM3UlS0zZYVNpmvC725BnZbL6gwVcngCJHIcaojOY0G/MBx8lA3XgEbo2a0xxI0dxM2uTE9yshP/wMKwKBy6xfazNOXROTwK/ZuUE+3xdwtD8MmpDGSmPUa6lE6xk5VX1e5YtqgHAvI+ULnahzi4aiZi9qfi3agYdDcSQJYEiH6Rt/QE+4CNCEP3puUt7mTLEznTMejZg4j59Aa6LpqVv2gUEznpZ9dgcNRJNO4xDL1q/I5R43foTg7k/nxe+BBro96Ep6oLX7l3t61c0Yoc3nSRKXYElPWVHG8lIkfNDyV3arpseBj23+T2jjXw9fVEcnKq7v+v3mEqZg96Ee4qjnfWrV0Y8dFG3GQLv0qvRSBmRGNZTKyPvulpp/UrbC0hZOZRoQPmLB2Equ6Fs0Cztc3yrkvG3ulD2Kn6Y7j5tUbUhpGoZUHEm4qcBrd34qPhn+C2lplculbE2xNnoq/Ee1vYHn7ua+Dh6wsPedpItEv8hlXRi5y7e6di4Oo/WDs98PqY9RjWytvKMJzB3L4ROJyYw07T2mDe+uGortImiuHGloRO5pU4JMzcJm+qWCjl4v8mys0baVHkZJxbwgTV57paXBtGIGBYG7vvK7eC+5M+0JmfcSc4pfuMlnuZrlzixoW6Ex3OR6dc5HpF1+oLJ7FnbDh7xhLZJ6Eexi2bjuaFaK1iQ4PpkiIiQCKniMCL3fbJkUXoP+cn3RG75Z/4QsRU5HB15GScR+zICPygEzo+aDssFsPbmp8iGK61dmfTv7u4eqGkN7dL5oZyz1dFGXZY5FqmCl6sFgCNVwUE16kET4mFaXbyYUwdNB9/sZ1v8yp/ZEsAACAASURBVBeVtMhJvbABoeN26YSFR4VOWLAihJ0EHMLEtxcgPifXbPdUnsiZjGZX5utMIoSLRnORo8X+Of0ReyRJZ44yLbwcFk3YqRc5Gnfd4lYDH1SqWYn939Ko0bA628UvhaCGQShVwvICXcg269Z2DBu6CXfytgPVNrlQOs4GDmqdvCirj58L1u6vROQIy8rZcZdixi3W40ZOwjf/6k8kuNObxVNq4BMmwA2iJ6jTDMwJUWZWxvuSid05G6e/Woc/Umqh3ZuvoKKXuDio/OJ/USvj03wTvqBXQ9C2tvmpT8Ifn2PbsTvsRoHos3gFuhb4SU4y9kUNw8rjCboNmN5zl6Nbvhmp9dlZ9M8Hb+oq1lrt3V/x9d9l8Z/WQfASPWTjN6oM7yfh3L57cjWmRH+JO1ncC8AL9bqGYUrv+haFMj+f7Req9prQqTc+t7Fq+DB8eU0rW7AIv6O1uy7GnD5VrU8oG0pkJ32LR2HzkJPOndxq4NZsKsqEvILsBz/g8abvbahRf0n27b/YKVEarIscdoozrxe08cm661w8SrKPr823zb/Qp+dO+DSzXJHhNIbzwQkIj5E0UZNqDWe69jB6uE4kKTkFEtaXqz2DeQMm4zDbFHauTRL7x5Bq4AmQyHGY2XAb60aOwJ4rGWz3ziAcjBvH767JFzlcDQahcyinNaIXD0GQl/kWn0HkuHgE4gUW8MCbCZQ6TKAYDNxKlH4eL1Uvq2+Qld10JUiFph3Gpj3iIodbUMaEjseBO8zpQVMZA2IWo5POpO8XO0XObMxqcQQhYV/gicAEyFTk8B9vD7QMjcPwoH15C0j7FxZCbrzZov5fXTwaY+qmSWhQRE7mykSJ9RmgrD7HFTncs7VizBR8lydwvCp1wqzFIboTCdPTHaUnOvxC0zpPqRItQ7ezObotX+Rw/z22nanjtvKFpO0t0l95/+d5GLbwENLZ4rDuuwsR9b6yhWjRPx/8nLSNBf++EBM5XJ0Z9w9j7oRF+P2h3iwq8P+GYenENpInwI4kcuwZH6G4z048ia1bf9OZ/vnX6YR3WlYyw20caIffhOJOfirVYYEKvK2dDvrjPwMGo1kF5b5zvNBh23x5IsfeQARJm3oj/cBNqyIn/e8FSFr4lW3TT/IqtkXX/xv4vmJZ5Bh8cTzfeA+lug20qQ1q1MGvHzSwZSPJpobTRcWKAIkcBxmuJ8xRMoQ5SqZbOJKP3zgSE3dyseeDMWFbNJqb2COIneQYupedeAcPPcsjUMLm3XCttZ1y9XFpcTQ2lNlPc7vIGjTquxJT/hcoIVoEvghGZblW2S9yFg0onb9raDjNiWemDnzggdfzfSHcK3XBsmUfoPSVzQUgcnizxRKurmyxrGX+PEXry6NMlFifJcrqc0yRY7wI5U4VzU2ujExG2RiWbfgh5oV3hL+MwBOph2MxKO6YdZgWSrQIWYP+lS2LHM78UifubRQcShuYqz2BmX0jcYKd4PInsdYWosK7OMLzcQPrxkXoN1ts+vG+T1Iih6uWE9FrwyOx97IXekabmvQa35gXOXIX99INz350Gacuc+fTtpir2Tc+SsW9MMCI0H9H/rDI3aD6C48WbdZV69U+Cl7BelGUcekTZFxoDr83qlu8ZerRKCRvOc7K1EfZmBnQSJivyhM5N/Eg4kNk6yw02Kbke53ld1ekZM6jw0j/5iT7SwBKTf4MnlUtC74HUaHI/icefmPmwuuFxjbdO+3M73i8YDxKVA9G2UnLbKoDEPonCjc9bayOLnM6AiRyHGJI+UWc53PdsDSmFwLNXoDJ+HRiP3wWnwn357pg3uQ34GXk2ZiAnZGT8O11LXv59sSSUa0leybm4Ft0IgdsEc8venhH6iNmJzOcM+7IJb8yIag3CTJ26FZD5ATj7r5pGLzyFHI0NTFq/RwE7BqRL3I29HuYJ2i80H78Ogxp4QU1d08NAyaMDBTcqTMyv/lC53RrEFbmc6PgJ7EyUWK9PcrqczyRY2xOBJSq2g3T5/YS9SkxFjpMDJVtjjGzRqJpoPxAIBn3T2D9xnNo91FPSb+V9LPrMW75PXQZNQxtq/N+C0KzPPOTHN5/pLBOC/ldfv45sj5j+BKO+Hwoab9pWUsihyvL+S7evO+NZytaDkftKIEH7B0fe0QO7zvoCm8/b4vWW9npKUjJ5ESqXJGzH/f6z2YBBVgAhA++hW8rZcEMUg+G48n6X3Uip9yaRXaJnCf7RiB1x1+6qaRGRDXej0ieyLk3tCNy09NQbukexaZqhvnPmazd/6gLXDy9ELjc9hOp7MSvMebDlbjCvpGl2bpgOQv0Yi0whT3PK11bvAiQyHGA8bq4dQLGbznHduv90GXax3inxGeYvDkTfcd8gJfyFkK52l8Q1p35nLAHuVqnoaj++8e68Mq2/MRMVopS5HB9MJivaH2roU/ELHQO/s1E5JRk5nxjmTlfmkRoVnVETq72OKb1moU/WLTSBr3j0PVJZJ7IeQ+d0vdg24V0lKobgthIFi6TCVH1RY7Q3IL7+C5A9poBOnFrb6Qge3xQ8hcP+X5Htsw8/hrDAkPeyaHjiJz8YBnfXGF7iNxP3ukMZ7q2fsJ07Ln0WHeVC4sM+CoLMhLaMchqQILshG8xduAKXM7MtRAyOhn5YXY1VTBk+UK0zwuza0nkCH0nCsPvi3++cmwU7Y75fNjzNFzZNgEjN5+DvGdB+k6OcZJj//hI+1AK+86/E/iUCYZ3t7y5xQsiccsIc9KOIXKyk3bh4ZhlyGX+py5+bVB23iRoZJwMW5qjqYcj8GTNEVak+Ikco9McG6LS2vPs0rWOT4BEThGPkXAXIqBhKJZOCcbG0JH45iZbQrFAAXXfCMWYD5oja/90/QmDLiTmFCTFTiwYkRPwKiZH90RFFSNBmSIWT9KYhJ92HkGtt9rn5ZAREy1JOLRiBW63Hol3zEJRqyNyuLbG//AZHlZ9C69U84bQJ2dzRB18u/ZLuHcajLaV9cf5aoscobmFpmQrzNk4GqW+mpYXXYidYL08EqvCW9uUF0UVkaPy88Iv7I5jRfRVvNK7A4KfLWnSP8cQOclXvsP86NU4dY+Fa9X95DmE88i4+TsViwQCqUz19hg2tjcaP2MpYpQWp1i+lWl7uUR64qHYeZMzmEVbkxY5AlPRvJPL1qXsCMklY27kn5TaaH7peM/HHRz/+iQeKIgXzOXk8vhzBfbF68NYPrlxBufvMEfzPH9I8yD7QrDSCUPVfBfZGnhAjfGxVeTwJ4TyorDxIkeuSZ4jiByBmRo84TuEBQloYj3hrLVHkz9lkidyHMdcTd8z4fuvMDZrrPGkvzsOARI5RToWScwEbSDbpU9nH7g6GLMiEi1ZvgvONGXN3CXYfyFJl1vF1fdZlHO9hdsWQmLman/E+HeW4ALb3eEyZ4/YOA9tFCxYbI2uZgs+eUkapUWL+D3VEznC+q3lyVFzYcHdl18EskxJLDTwipFNYGRnrqmL8K0z0dSGAARqiBxNyRfwTo9XUFqJC4XIgN36dTv2nn6Uv3td/qrBtwl4sedKzOheQXBV0YqcnIxr2LNwFjb/ejvv9IaLvVEF74yejJ5N8oJxyH4QtLhxcAUmx3yPR/mh2l1Rqcm7GD7wbdQOFM/mbtmPhX+PaLybYvqGiagvmB9SIkc4r6yFoZbdPYsFeZNb2CiqHO/54N87chlxkfza3JqmS9ys/Ce9IFfzXWSryFFjfGwROZsm+CAiZCHOpuVC2uTbmPap1aFs4+AG+0fbRU6u9gm0CfroZtZ+6cfmIXUXFwq7NsrMiYAL+x/hT+MdgBI+7pD2yclifxvAghJwmx3sx07VXbzkm7xyl0jl3lEqctQIGqBGHTw//hth2BysqXLYcGvjS393TAIkcopsXNju7LoxmLHnqs6pnHe4NzRIi5vHt2D24l24nsJvE0qFxBTaQduScLJoRM45bIragSs6YWb6S8D53//RRdXxLh+MOpV9REfqxc4T8VZ9zjbaXpEzGj2eTTHbkTUsxt2fbYl+HesYtcE4PK9cu25LE46PcmVsmiYwRbJxB5y7qxoix16TGkPvEy4ewtGLj9lhZTW0bFUL2u+j0SeWc8otyUw216FfA6G9e1GJnAyc+3op5qz5RSBINChT/S1ERPUVjVIo93ViupGhv84Vz9Rvh569e6BZDdPTLOAe80kLZT5pzCsP/x23GUNf0QsiPmiJF14bvhwjTULES4mc3+IGIfJrFvBDRkJRuf2yVE5ocutZsxfWzu2m0HbeEZ8P/r0TUKURqpaVVv/3Lp3EdbZRxYmcXmU+NzvJKVHqeTRg437t7zO4n54L8frknOQUVZ4cdcZHucgJwYBSu/TJcfNMvvs1sH66wX/zbBc5auXE4Z4bg2+NlMhJYT49yTqfHiZWmB8L5xOj9CcVllqpyMkPIc3y3ASE2RhCehYLIX3L9hDSpn3nRasa32KlZKm8oxIgkVNEIyPM9eLNPvhx0cFYOXQx3P83CcPaV8k318nJ+A0zP4zGySfsTMfC7ueB+X3YSz4pvzdyM0MbLiganxzlu6Cmw8X7F9krcjrBY99Xujw7cn+m4XnlXie1cyhcjJomsXv84yz0Xfyr7mTP1gAEqoicgHZYsHooqqi8S2aYvy4eTTHzszDUM6pfuEtn+SQp++Fv+HTHSaRwnESEqXCMhGVN8+RkJ/yEKR8txd9PeL83F9fSaNJ1KD5oy55P+YNtoWQ6Lvz4Cdbu+E0gopDnd1MTT+4lmuTMuoYNkVtRuWco2lQziP472DxlOn5mUb58q3fDtPHtmK+Y4JYs3HvJJ58jdNR2XS4nw/OSnXwwf+e7cE5xAOFGTI3O8zG/fw1FFB3z+eDfO+LhufkuGt6xpnPN+LQ4GLGDxuhMka3VZwqvqAMPqDU+ykXOYKwe6o8NC5fhN88eiGWO524p7A3g42PR3604iZyMS3FInL2dhdtj3yeWV6rUxJ54HL1YFwShRM1u8Ghc0eKzlHFgBbLZnFJL5HA3UyUZKMuzUy5qvaL3gFRh4ful7ruxLCx9ZVXqpUqKNwESOUU0foYcGj8k1NJl6y27PwwTtpzXnepwdvpjIgagnr8Gt76LxIhlv+kWO1IJC4VmJ0GvtUHqTwdwK1fZbkbRiBzpk5zctJv468xtXb8t7ZCqd5LTD43u/W10qmSwleemiH6XtZzRbOHu3d53a34OEvlTSXznMH9nXWSshQ7btgYgsEfk8OHLy6JbVAx61xU/WZPPgC+ZfGU3Jk/cgMts99qXRcfZwBYprkY+YfbmJLHeKvNnSxjanDMn64OwMfXxOQt+YWvAD7FWcKabel+v5di4/xwy/dth/vKhLIIan9zWeuulS3Anb3PDfBA5eoeRyEn7PQ79o79GKpduyrsmhsyORLvnlZm+KG0XP4c8WHTCTSw6obhpnlS9jvl82C9y9kX1YElRU6E341VD5JREk/+9h4blbPevyry4H+sOXGZDIfeUA1BrfGwROZ/O7MDaqkUWS5569+gyhC8+iHIdpltMwKuGyJH3DJiYmSmOrpaGR4t7IutPLmiJJ4vstp5FdjudH+lNTnS1h/Pas6ShmTJETmVmSrcO7jLmTubV80iYMUSHQElCz5Rf9iF53XwWNhAoM3UF3KvUkofRSqns5G8wplccruSyU9BmY7B2YitV6qVKijcBEjlFOH5cDoRf/wpA88acXT9nGrMY0auOIIktPFxcK+LNIa/j0rpNOMvySYjZ2uubbuo8PBn35gzE5jNpRlHArHWzaESOdKssh70Vu87ek5zZWDQgWFCx8cJayo+Ib6c/OodHoWMVPr9A2pE4jFjP5R6ojaFxo/BS/umEO8oEljbaZTQWMc+gf+xSdNYlOeV/wtM6SwEIlIZgFd5Dqp9Cx07OrMpaeFZr883w99ycDKQkZ+hOqDhHfkNobuPri0LkcKF7zyA2Yg/qDBiVF5JZ/XYIeWcm/4Prj55F0HOc2LD/lJNjKCVyuL89if8EYyfvxB22MOR8jD6YModFNbTs9i53XMXK8fM3EH0Wr0DXqvLPwxz3+bBf5BjevXofvHI2n+Ro7x3Cio9/QmJuGZuTWxrGLf3Mbszb9Tf7T2nzOOEYF8z4WNqoM4+uxrXHOAGvFzsNi2HJb7m8a+Y/PgG22Omx2BW2BR5IORSB5LVc5DLDT3kI6VztKTwYOwGujeejTK/6rCK+LeqKHMttM6XyZN8WFsp6te6fPVq/Cb+uH0qGlOZCRj/euQYZP+5lCxz2v36lUTZqvc0hqM1H6ARmvMfyb6Wx6HosFUccS8URUIABlOx5F9K1hUeARE7hsZZ1p7QbPyB6ygr8qctybfiJ29pzf029sAnDJ27HfSaMyrHdi7gJLZF2dDH6z/mJnYJYfskLG+RoIifjwgYMHLcLiayR8sw21BU5T44symOop+RdPwSz+7yAikFVjcSJJWdfJc67wvtJmaOl/7kS/Sfv05liWTJdLAiRw4np01sjEL0lXpenSPUfiyT44jvhmNLjBZsixxnaIxTH1gJc2HOyJd1/fh5au7/qDCUqtLRhIHx/aLxfQtjKqXjZz/YTAEt9Ur5zztfmuM+HvSLnBlYMHaGLpqk/TfSyWeQU1nwSu0/BjI+lE6lHOPjZTsQn5eSdgHEnOfpfduIBhA2OwXkWhMCSv5nyb55ykZNxaRUS537GXp+sLW5s8yKLi8yoXORw/dI+vIsS/oFw0S3c1RU5Bj8ga20THXuB0NEwHx2PBi3gHtwQ7s/rzVEzr11EZvxJZJw6rPPB0f08WTTJ9FRw5UuFhKl0miPfd7MonxW6d+ESIJFTuLxl3S1XG48FAyfhl4f6bNoG8WJswsO9zJldfegi3UmPMDobcJvllBnBcspksB3aejpzuOb+ljMYK3/hy+qKzYX4hbo/3pu9Cj2Cre36qilyDA603ggO9kJ8/F32sdRAw44bqnWaYWQCoY7IEQYWYAYikvbEfCZxDqxUEAp+F9YYv9AEUCqYg2fNNzGu+0uS45aZzMwIf/8Td1Pl+y5ZmwQlSj+PZg3rwM/TzpBt3Af18qZ880FrIiNXywJNPEzWRzD08UeAr7LkfuL9Kl4ih+uDMMmu1LvG2hha/7vwFEy+CZS+Xkd+PvjxdvMqCS8L+Uoy0x4jne1dGZtG8rvP+s2cW7JFTmEGixGOr7lpp7rjo3STRuw5F85pjwodMGfpILMkusq/ecpETnbSt3gUNg856ez77PkiPDt4IG03F1zFNpFj/Iw5jsjh2sWZriWtmoWc23kiRuKFoGE+OKUGhLET5op4GM0CD7DyXBCF0uMXqiB0+A0DirBm/Y38tJQgkeNwI52E/fPHY/kvd3SLL6kXtHEWdfMTG+EOrVuZpghbOAGNJIWOFrun9MT60xlGCenUdGRVGpWLt9+vjIFxS9AxL7Gh9HCpJ3IMflCo1AVDGp/Aks//ZWLRG+6pqewUwwv1u0dgat6JgxoiR2hLbC38t9Du3TQ4gbWpXDAnF9buavx3XoD5221SI3ZnJSJHWcvlli5+IsfI5LXAkukJRI7mJUzeOQ2NZQavcOznQ7lZoVAkaO/txkcD1zMfSsNmzo1iJ3LUHh9e5FiKEpeD9JRkZLJ9QPHNDC0OzB+QF3GN5Rdj/k5LmK8fl8DZ8CtIkZOddBCPpkYi5zGX744LFLCOnWLMwBNddDR1RQ7cfOBiJaVAbgYLc81Ok6QCD+Sf5Lj9HwLjovJOi+S+8/hyXNS1rOsXkXX+NHJuXtX9QVOpCtxqvQi352rA++XX8gtz5muJKyOR9ffvOqHj030wfF59U/lN868QhKhX4Etmxw3p0mJAgESOAw1SrvYmtk6fhK1/JuQJHJaYc9ZIXQAC4S/txj5MnbgG53WRnzQIMjld0JcVhqjmcu0EY1D0dAnnYoF98wsh+CSqk85kqKBFjho7kbx44h21TXcapR1Z+X4brslOPoypg+bjr2Q3ZiYXh//enIqIPdd15mrjq32fF/KbF5VqiBw+iZ3SySgv6Z2hVkcQOfKcio05nNgxOy/crnX/AKUih/djyAUfxELpOAjLqy1ybmDduAgcYNHTlPy86/fDynFtdJfI8W/LurUdw4Zuwh12QFcwkYn4Z008gp507xz7+eDH++XeyxDSkjsNvIGNEVE4dC8b/L8B3y8dhm1/ZRqd5KQenIf3Fxxi7/tgTNgWjeYe12WLnLTEe3icofxElfcVNPcjlDPHTE891R4fee8IcZ8cYfs5n7p5Aybj8CPu2fFA80GxmPCGwT+HXxDL34CTd5JjLHB84NNnDQsUEAg+TLPKIkfOoOWVkRI5jxZ0RBbz45X6u4JbKC6aEDcDmcd/0l3n23eUHULH9o0UxY2mC4oNARI5DjJUGfcPY+6ERfg9zxfHo4KYwNHi0ncLMCNOH5yAEzhVXxuPGSP+z2iHiu9SEvZOH86SznGeLVzx0mj1YQQ+6hhkElrzEpYMGI8D7KNs5AgtMP0JejUEbWtbNnkTQ/n312tw+LrW6ITIUM7xRM4z+bwMCeXurh+eJ3K4yEfNeZ5sd65ndAze9tiRZx5l7kwtzyfH2ARN6XQUj0YmXosSkZPNnOAPHjwP5ZkYLPeAj9okbW9vyJ3jk7frqsSXQ6nIkSMA9D3KQMJd05DOYn09jrmD1+ASC/XqFdwTS0a1tj6kLMxzQFlfCV8k24IdSD3H0v5tvKmHNTM/6x0SK3GfmdAOYSa0nK+hEnM1x3w+LDPgx8zAOyfjLu6llkOFMsYbVkdjB2D2/ntwq9AJMXEheMblmmyRI96GZHy7cinuVGqHdq3roaKveQQ7eSJC7iirPz7y2mdd5HA9SGZ+jIOZHyOXbw2aKhiyfCHa66wCbPHfsC5ytA+/QsLUJchJ5TYgDZHQ9MKqoESOnBDShtF0YZEUfZrVMTupMURf05R9G2XnDLP5JEfurDEtJwxg4N70NZQZNNmGqmwZUxtuQ5cUKwIkcop8uDJwcvN0zNt5RhfOlfuVqtoN0+f2MrIhNk8e6IV6XcMwpXd9i7kAcrUPsSdqNNYbhA736i3fEbPiBqBavrkIvxupj/DTRNcO+QtAaYiWTAKkdiIzL+9E2OxvdR+mKq+HI/ydKtI3yF8g2n+SM+75nXnhussyP6BlzA/IE8Y5LDrkR+/5KbWBzgSw9ul56Ln4KGuf+cJNjsgxilrGRGithkEsHablX/ajyzh1mct6wn24a2LU+jloXcq6s7gSkaPmKZ7SR8x0Z9UxRI5ysyS5/ba8k8x/uMvW64KuzctbrNawqaBc5IAJ+O5sQyRdsOC230dK2Fh+HIMwYuM8tJExZx31+TAehNtYPSYc5yu0x8AP30ENf+PTmO4eyzBl6U9ICTD1DeEFAv/eNRdIcucRV06YTuDZ16dh2bAGZpfLExHy7loQ4yOvffJEDmfRwJmtxRx1QeuQyYIcdOLWC5Z7bVnkZJxfh8dLNut8cDiB491rFUq2qZRfZUGJHDnR1Sz36w/c/2gsclJyUKL2CJQd31ne4KtcKuXnvUjesEhnuha4/Csbauf92/hNA3XfYTY0ii4pYgIkcopwAB7+uQPzY7bh7H0u4gr388ILnUZiYkhTs5MZoY8NF1767Ykz0beJcd4W6a4k4dCKqVj0zRVo804gugtCxQoXtMIkfQUtcqTaaxAWLPo+ukxbh34N5DiE2+eTU7HuiyyPwGldlDphckRTkaNbSCQ+QJJPAPyZk/GVbRMwcvM5iDk6Whc5Wuyf0x+xR/RJXOWeyggXMtx1UgEITPkqEjnXd2FcxG48Um4NY/GJys1Kw5M0bjdf2t7etVw7RC3oxXa19R8oEjn65JBSebKEwA2slIsc3i/PkyUnXju3GwwnaWq9IvmM5HKDiTju8yFkwi/0DaHfjf1qRr38A8Z8uBJXmE+E8N3CXyfMGyQtcv79dS+u+r+KZjVKSkYgvLtvGgavPMXM3/zQLXItetczf3fy7yUPVKpTFxW95S0Ezc05C2Z81BU5nPC7gRupgXg+UHiqJVckCUdaSuRk4cm+MKTuOpWXrNMH3j3jjAQOV4tjipx0JG0YjPSf9QEDPDttQKn/VUbWv18g5ecS8H2zDVxLean1CrBaj/beLV0Z18BnrJY1LSD0DSuY02jFTaILHIAAiZwiHAQuOtq0j5bgT+acyPnMfDhjMt6oLp1k8eLWMMw6VhPhUX0R5GV9597QtfT0dHh6euLuyc/wU0pbdG9pLI6S9kehTywX9cU4SV/RiBx+d1NZhBQ7RU7t2kg+x5IxmkTiERM5wiljyP0htjC0JnKMc0so8a8xXlzIDUCgRORYeiy4yEVhO3wwJnKYmb+YtcdJ3gLGuBbHEDnWemb4u9o+OeZ+Y5ZaYrvIOYO5fSNwOJEtjxuG4pOp7eR2WHY5/j0DNOq7FlP+F2Dx2uLxfPCRxXxq98Wq2W8zcWhucnZz7xQMW82csfNzQbnlb3AY+yhJi5z8d1HlbliwlN8E4CEaokJqIRWGniurNHqZoX5TU8eCGh957whbRIpwutlyvbnIydVeR8KSccyf5b6+craJWPKjGHi/aL4BWZQiJ/3vBXi87CCX4sz4p01HbkZeugq3+ghYsIitRVwEgswVvgP2MRM3a9FNZb8GCqygMMWCcLO2wG5IFRcLAiRyiniYshOPYcvebLR71QVHLpZE2xYviITS5TI5l4CbRHjSlNs3kFG2ku5kQfjLybiGPQtnYcupMhixIhItA8R8aoQLZmMzkqIQOfxOJCBlbiE+ZLzPhKljrLzAA6NQhyXAqzhmAToJknBaFjm8L5PQzM/QPmsiR9hXuULFULdxck4lAsm+CZ+d8BVGhazCNbYrzSWQ7DUpGl3rSgtz07vJW8CQyOEJqC1yNuHDF1NRolRg/nuGM2k9uGI6Fn9/TRfwRI4AsWUW8ZHEICsjeXF4Pvh3pPAZFBMqfFh/nvO5HgAAIABJREFU7lmfHVsbcf1W4B/2HBm/56yLHCnzxifHYhAS/YMujxV3Gjp/+VCzsMnGIse+k5yCGh957whbRIpw1tqyGWEscrybHMfDCdORk8z537Dklt4voFTYfHhU4pL5mv+KUuTkar/G/YHzkcv+R/THTKV9B6yET1O9OHu8exDS9l5k/18gSk/fDI/Kyv1xbXlH2HMNH5FViQWIPXeka4sDARI5DjJKhtDALq51MX7jTDT34U5quEADy7Fg489waTwRMSMam5gpXMCasbOw7+IjPKdLJBds1JusW7sw4qONuMk+pKXqhiA2spOZGZxwN840S3BhixyjaDiayhgQs9hIcNg6VPJEzmzM6l1Vd+Il/FkSOTwfDV4bvhUj2xo7+VoWOUJHbPkmZ3zb+F1b7t/4XWR5pie2suSuu3NkCcbPP6APfsGSeDbtE4nxXarKSuIpbwFj3Do6yVHTXG0YHqxYhngWGEHsp/FuiukbJqK+lZC0ts0ffmFq/ZS2ODwfSfh04kB8Fp9ucnIiLlS490Xo5BN4beQk1DgxCZFf32EYDSZuhp1yaZGzL6oHVh5PlQiZfJUlFR3Hkopm5g+NWNhk7o+2PIPm411w4yOvfeqJnACWRHvtxFYyprT5SU7KwXAks7DQmsrvwj9sEEpYyPX1ZN8IpO74i91H3ehq8nxy7iJhPQuIcOcusm8+yO+ri09FuNZsAd/O78ItgBdnCbGdkXmSecVqGqDcqvnQCEJvywBVBEX4+eji0RhTN01CgwJ5hxVB1+iWdhEgkWMXPnUuFgoN/5dHYlV46/wFY75/iiYIw1fPRVuj0xgtjsaGsug87GMp8fdTq0dh2l7O3tY0hKa+7cLdONPQsYUrcljI6/y2SidAtYW4XJFjKhK5e1kSOfk5aySc/y2JHGHIXvOFjrxeCsfO1jrk3cm81JP4TzB28k7cyeIWy9ai/PHXy1vAkMjhCah9kjMXnjvDdT4+pj/O1+/9yMV4R+CvZ+v8kLqOz/Nkebe1ODwf/MmJF9qPX4chLQy+C5aDB2Qnfp3vo2O+OSF1Le8zJXZq/NfGkZiy8wo7ifNAcKNquHIinp3oaFC24YeYF97R6JTflmfQdDwLcnz49klHYAQe4eBnOxGflCMh+izPXOGpohxfN31tYj45Wci4fBUe1WoIbpiOrPsJLHdN6Xx/Fu3Do0iYNQU5XDhrK7loDDlrLIdzVpYMVNlzfBH3xw7VtVVTsQfKRoYUerQ1Ze1l28H5+aZYTiSTNZTSuqi8cxEgkeMA43lx6wSM33KOfaDK4v35K/FuDd7+VehkLpaN3NrfhacjGu+XELZyKl72M/jzCMJ/iizUhSJHmO9BCTJDbghruQiEGapdPOpgjKR5nZK768vyvgCmfJVFrjLcufKL/0Xd8icwrdcs/JGWI3mKYknkCJN62noKY2wTr9S8TzlH0ytSL+zEhGmf4HoKSzLn+iw+nL8Eb1a1bLt9d+9UDFz9B6vKfK5LtYhOcvQnOd7lg1GnsmXTwHuXTuI686uxFHigq+s6bDp8T4CbRfVr0QKtmzdAoIWdaPtnDCBcHFtajDj+83EO8z4Ix6EEFnafBWpYyQI18IkmLYmcJJZ4OZQlXuZiR4o9A1LX8j5Tpv4GwqA0+rZ0wT/rx+bl9OJypFXD20NG490Wz+oicaohcgpyfJT6DNniZC7cIJLvv2E9hLT+GeGjlYk9M9YimCVteJ8FArhtJWcN35YS1QYiYFJ31YQI57+TtFAf3cytWTT8B/yfGo9+gdbB52qSDrhRoA2gyh2WAImcIh4a4UJVarHLnxiIm3BZ+/s95igeuuRXcIYMQqHEO8OKL5DVDCNsSeQIP9JchLmWoTEY286QtM2+AeL8DTZHDMV2ZlICVMbAuCXoqMuTwP1sy0HCOeB2TpicJ0yl/WGs+eTY1zPHuDrj/gFMG7UVL01aAmHEPrHW5WScR+zICPxwi5uJ5nmFrIscV3j7eZv5zgqvy83JQEpyhs63xMXVCyW9LUfmE5Y3zyGTjLMHD+FqMleb3N8/+OLj73GbHXC5P9sS/TrWkXuhrlzpoBZoXrOU4Brb5qjy6GqKmmlH4WQWLW8IC1X9mB0AqmeSakeDbL6Uy33z09p1SPrPWLwt2JgCeEFiOqeE71xhpDW+Efx4V2gxDkvHtdAJE34TyDg4TOqFLRgVvk13oqrxrodxy6ajuT/3fkvC/vnjsfyXO7pngfuVcA9E7aZNUN81Hp/+eJn9i23JQNnMRpnA0hZTF9gMlV1ov8hJxvm/r6N0uQB4CXzP9G3S4tFfOzF11qe6zRllETzlipy7eBDRG9m3RE5Ly7yCMpOnwa20VOCgm3gQ3g/ZbFPD8kmO8B4auL7QDV7t2rLw7742o8+6egzpv32BrJPX9FHiWBjskh99Ae8Gjh10wMjkvlIXLFv2AQId3rzO5mGiCxUSIJGjEJjaxflwydI720LzBltOc7gPnsF2HCy0aJdpH6NP1aMIGxyD82lsF96jLiasnolm+Sc8+l4WhsgRngZw95SyI5fDfd/svth8JocZafC/7PQUpGTqExCZO/fblk2+yZtv4NzWrTpfJ3lRjJQkP5TTU8cuk8YcoPswB+hMjTt8fT3zxiMH6SnJyBsKNueaYuZnYaiXn6tJuk9qJI2VQ8xc5NgmMOTcS6qMuemMwPdApZOcse3ME0Ta02al1wp9BcXeZ0rrK/ryf2PR4Hn4p2R1lPdzQeK1P3HpPifkTQXJJgyfuF0Xpl7a94mP1ibWL+F1d0+uxpToL/UmoyKpAbgF/Y2DKzAt9kfcz8hLwqYCLEvvPBWql3nSZMknJ5l97/oxXyneP0mqXR4sCeuCFSGoLOM9JG6uJl5zdtJt5JjenvkvugX4sQtSkbQ1iomgbLiUqgbX5/TO/rnpN5F56Ftk30vR/bdrwwgEDGsjiTTlUASS1x5RA7loHdyJU8C4t1Q7ISqohvKWMKZmowV1R6q3OBEgkVOEoyX82JeuPxjLZ7SXyE3BR0Bz9WqGqVsmoL7RSznv779qUaNVP4SP/A/8TXYy9IJlF9LLN8CgSePRstQxRIQuwtlklsby3YWIer+qGYmC98m5gJiBk/DDXf3XQCwJqpLh4aOriF2l1glRIraGDcGWs6nsJpZfqk/DSY4YaaF9tPj4KRuLEztmY198XphTJRNCRtnctJv468xt3SmnucixTQTLuK1kkaodpmJGzyDB39X2ydnOTkmLVuRwi2/e/45PvGsPt6K9VnxRLVxA56Qex8xBs3DyMTtXERUkfA+EpzPCfgnzo6WfWYUPw78Ee33r3kOWTr9ztSk499uX+GbPQZy4djcvT5XtxAoq+p6hRfLM6SwHHuBzMkn3061MU11C50a6ky85P7knOdbrSlz1DjKOPpQuyE45S89cB4+KllJFZCHl8FKkbv2WRXhT7/3o4lEBHm2Gwq9bC4cXOMINYKngStZHg0o4MwESOUU4upnJ/+DA1k3Y8f0jdJlrHLrYtFmZl3/CnssV0PHVWvARCSWdk5GE5Fw/kfDThpq0uHc7Af4VyuYHNUi9sAGjFmQiQmInq+BFDpdY86BObN0s9z9Mn9tLNOSp3CFKPRyLQXHHTIq7odzzL6HNu++ifb3ysiKAWbufoc33641C3ISWknU+rSIHOIdNUTtwRSSCl2uZKvjPG13RpJq3NcyF8vdMQdLTFiFrMPjVohYApt12RpHDdq21l7BseBj2s2hglsIdF8okUOEmZ79agp2cCV7eL7D2m3iny4tGDv96s9yvUHvwEqvmuNz7/H4iZ2Jr+Gng619W8O7X4sD8AVhyOAf/HT0fQ01yn1nrUmbyAySk2HK6Y9oOa3dS/vd0Fsp/3q6/2YX++M+AwWhWQUyE8KakbhXq4fWGlY1ulHDxEI5e/BcXT/6Dx7nGkQQ1XhXQpE0HtG5QSaHJnXoiJ/XwVDxZdyjPLEzQdFd28l2+CfwGh0uGohYjmpORgOzHwvminDsXQKZE6UBoJFJV2FJjwV7D+7cZm2oW7F2p9uJFgERO8RovlVtrOf8OtwP44GGyzqbb3LZZXlPSEu/hcQZnTuGNgLK+ooIgJyMFaezvYuJN3l0Kv1TajStILF8FFYvNB6HwGdEdHYOAGs9xQfQk8/KnGDr2M535lj1mqgXRtoKqMz05Ga4+PqpstuRqb+Lq7bKoWlk8L0tB9YHqJQJFT4CdBq8bkxdcQ2+C36+BIbph0beOWuA4BEjkOM5YUEuIABEgAk8VgSfxnyNu519Izy2BOm8MRddGwqALTxUK6iwRIAIyCWTd/AGx644y65VcVGk9GL0VnmTKvA0VcwICJHKcYBCpC0SACBABIkAEiAARIAJEgAjwBEjk0GwgAkSACBABIkAEiAARIAJEwKkIkMhxquGkzhABIkAEiAARIAJEgAgQASJAIofmABEgAkSACBABIkAEiAARIAJORYBEjlMNJ3WGCBABIkAEiAARIAJEgAgQARI5NAeIABEgAkSACBABIkAEiAARcCoCJHKcajipM0SACBABIkAEiAARIAJEgAiQyKE5QASIABEgAkSACBABIkAEiIBTESCR41TDSZ0hAkSACBABIkAEiAARIAJEgEQOzQEiQASIABEgAkSACBABIkAEnIoAiRynGk7qDBEgAkSACBABIkAEiAARIAIkcmgOEAEiQASIABEgAkSACBABIuBUBEjkONVwUmeIABEgAkSACBABIkAEiAARIJFDc4AIEAEiQASIABEgAkSACBABpyJAIsephpM6QwSIABEgAkSACBABIkAEiACJHJoDRIAIEAEiQASIABEgAkSACDgVARI5TjWc1BkiQASIABEgAkSACBABIkAESOTQHCACRIAIEAEiQASIABEgAkTAqQiQyHGq4aTOEAEiQASIABEgAkSACBABIkAih+YAESACRIAIEAEiQASIABEgAk5FgESOUw0ndYYIEAEiQASIABEgAkSACBABEjk0B4gAESACRIAIEAEiQASIABFwKgIkcpxqOKkzRIAIEAEiQASIABEgAkSACJDIoTlABIgAESACRIAIEAEiQASIgFMRIJHjVMNJnSECRIAIEAEiQASIABEgAkSARA7NASJABIgAESACRIAIEAEiQAScigCJHKcaTuoMESACRIAIEAEiQASIABEgAiRyaA4QASJABIgAESACRIAIEAEi4FQESOQ41XBSZ4gAESACRIAIEAEiQASIABEgkUNzgAgQASJABIgAESACRIAIEAGnIkAix6mGkzpDBIgAESACRIAIEAEiQASIAIkcmgNEgAgQASJABIgAESACRIAIOBUBEjlONZzUGSJABIgAESACRIAIEAEiQARI5NAcIAJEgAgQASJABIgAESACRMCpCJDIcarhpM4QASJABIgAESACRIAIEAEiQCKH5gARIAJEgAgQASJABIgAESACTkWARI5TDSd1hggQASJABIgAESACRIAIEAESOTQHiAARIAJEgAgQASJABIgAEXAqAiRynGo4qTNEgAgQASJABIgAESACRIAIkMihOUAEiAARIAJEgAgQASJABIiAUxEgkeNUw0mdIQJEgAgQASJABIgAESACRIBEDs0BIkAEiAARIAJEgAgQASJABJyKAIkcpxpO6gwRIAJEgAgQASJABIgAESACJHJoDhABIkAEiAARIAJEgAgQASLgVARI5DjVcFJniAARIAJEgAgQASJABIgAESCRQ3OACBABIkAEiAARIAJEgAgQAaciQCLHqYaTOkMEiAARIAJEgAgQASJABIgAiRyaA0TAwQnkam/i1/2nkZALuLhWRNPXX4K/i0uBtfrEjtnYF58F14BmGDikLQIK8F4F1oliW3EGEu4mIpNrv8YbAWV94VrI/L9bGIJPTmXAu34/rBzXptiSLE4Nz8m4iyOHrqN+m8bwK/DxPofda/5F3f+9ghplvKxiyslIwv3EdG5Cwte/LHzcCu7dY7UxxbzAyS/X4brPi2jUIBiVS1tn7wjdTT+zG/N2/c2aEoQek95DkEb5+F//eRV2XiyNFq3+i4Y1Str4TjuHTVE7cCWnDP4zYDCaVSjhCHioDQ5OgESOgw8QNe9pJ5CMfVHDsPJ4gg5EyTr9sDy6c4EuhPZO747VJ9PhWq4DFn88CJVt+Kg97aNme/9/wcS3FyA+J7fI+BvG37v+YHw6s4PtXSk2V2rx5P5DXLt0Cpezq+GtV2oqbnlm8gM8fHATF+6VQosmzxst4hIuHsLRi49ZnYFo0qERypmImAfHVmDcvG/wKMsLrw1fjpFt/a3eP/VwLAbFHWPlyuLdGfPwZlVXq9cYCqQdi0Gf6B+YkNYg6K0oLPiwjsVrU36cjZ6Lj+ru9f78lXi3hvx7yW5UoRS8g+Nfn8QDtlmk3s8bwa+0QlU/jYwqL2HJgPE4cC8bVTpEYsngembX8IJSRnWCIq4+/gjwdRO9KO3GD5gTuQfBI+ahe7CnZMXZyTdw+b4Pnq9SGu6COcqPf11M2h2JlxV/D5Lx6cR++Cw+EwHNxmDtxFbKOpdf2vBuDCjm89DG7tNlNhEgkWMTNrqICBQOgdsHZmHkkl/B7aPqf2xh0mkG5oTUtXE3zHq7C0Lk8B9K6/dXVsLWD6+yuxReaRI5arPmFo53b19F/NmbuucoJ+0O4uNvIeH+Vfz7KBmpj9OgNTxdJVthzsbRqMkWcsYLzjTciI/H3dRcZCdexR//PETag2vs+jSkpyQjM9tQQV2Eb52Jpu78ovevdR8hYs91VkB8rmYnfo0xH67EFW0uSpRqhVmrR6GW4HoxHvYIjwPz+2DJL0ms2mfQP3YpOle2LFrsuZfaY2lfffyzZV89wqvlCz/tvd34aOB63Mr1QPvxmzCkhbtZM2x9T9boPB/z+9cwqy874VuMHbgClzNz2cFwPYxbNh3N/cVPQJL2R6FP7HFWR0X0XxqLzs/p54W9IidXexzTes3CH2lAy9DNGNvO20b8JHJsBPdUX0Yi56kefup8wRLQ7xCn5kjcxYo50t2TKzEpch/uswWUR4V26NnoPDZ8dQ058GIfixj2sQgskOY7i8jhd7sLBJNkpS1C1mDwq8YLmLTEe3icwW0hu6NMoPFOqXFFSkQOb9rm4uGHQJXMX5ztJEfJwtHFNRA9I1fg3eAbiB00BvvvGOSP3Dmkwcv912BSZ/40xprI4WrmywDVOs3GogHBFm9oq/DgF5w5cK/UBcuWfYBAK+Zxtt7LkZ4/PUz+2XLzKgkvO8zucnMykJKcwd7F8kXO4x9noe/iX5GjMRfChsFWMleFE6Rl6Hb2PTAXTVwZ4UZZqbohiI3sJGoJYBC/GoHQV0Pk5J8civQ76/Zp7D9102yulw5qgYZZB/LM5Ax/TsD53//BE3igUp26qOhtbDbnWfNNjOv+ktwHlco9JQRI5DwlA/20dVP4Mef67lO7L1bNfhs+BW7vLiR91eJCyZI52JP4DRg1aZdO4Lj6voQxS6egmd8VLBsehv03mceGxgevDpyP4e0ryj7RkbPY4lpfsCJHnZMXObuLti4Y7H1WxBYcBqZSu/n8PZWIHL6stGmZFaEt0tnvlw7Dtr8y4RXcE0tGtVaAw5qAU1CVikX5eeAKbz9v5lfyHJ4r6wnXMlXwYrUA+FasjVrPlDTxNzF/dku4+8DHk9sF90GlmpXY/y2NGg2rswVjKQQ1DEKpEuI+VHKeu1ztCczsG4kTyWxHRFMZA2IWo5OFExZbhcfdfdMweOUptjgXijGDr0MuKrXoj/5tKhnRt/VejvT8mYocS6JAztTLvLwJg0ZtxyMFIscgIjxr9sLaud2gSbqv2/iwdYOCb4M/3pu9Cj2CpU7kktg7fTgzQU5kXdOgRudodupjKqJPYMZ7bP6l5ZiZlMl510oz02L/nP6IPZIk+g2WmiOc0I8M+jzPTFLOiID5ED4t5rXyeFApPQESOTQTnJLAkyOL0H/OT3oHbt1PnmmGujBsEzl3jizB+PkHkMQEjqmJQXbiQUz7aAn+fMztMHuhXtcwTOld38iGWqoPchZb3LXKRY4Wycla+PpK23vb96E075Gc+niHWeWjmnTtL1y8n6G7UOP9DOrVeQbiFu/mdb/YeSLeqm9cuuhEjuU5qJyMpSvUEbDqtslWcxuem5yTFUttlvvc3dw7BcNWn2YCBCjNFmzLZ7SX3JSxTXjcxrqRI7DnSgZbWDfG1E2T0EBnFseLZbG+2nYvwJGeP/348P0sfJHDi4i678Yi6v3K+e9ZWxfn/LhUxsC4JehYUdoRn/tuRIQuwlmdiC6PntExRv45vJ+WG14ZsBh9mvDvr7QjcRix/iTjVxtD40bhJUmfHPPAFKabjcbPSV2MW/4OHp++lffP9/Dj5s9xgbWRM7+b+35gXsALw1XHMXfwGlxigQc6h0ehYxV9fw3ts5Wj2u8bqs+xCJDIcazxoNaoQiAZ28JDsPlMGotG5ooSWq3O5v7Z16dh2bAGqtxBXiX8Qkn4UTV8nMxPcjJwcvNUzNkWr/Md4ATOqMWT0aq8h9HtjIWOBmWqv4WIqL4I8rLs/Cp3sWVJ5ORqU/Dg4b84d/IUTp74A2fP38Aj5pPg+oLlXTQ5okQeU30ptesT3js78QDCBsfgfBpnXuaB5oNiMeEN+0wDSeQoGV11y9o2Vwpf5ABCQeqHLtM+Rr8G4hG4bBEe6WfXICTsC2buY/ouVEPkZODh1XN44FYXtSrZF/WqIJ4/U5ETUKURqpZVHiXMMDNz027irzO32SaaPHM1XkTwgsRes9Ar2yZg5OZzrEnyNheEZmuu5dph/vKhqOrOMeBPW+x78sxZ8CeHYjUbtzt/Y1JTE6PWz0HrUqbfM3GfHMOzQCLHvtFz1qtJ5DjryD7F/eIdPMGO3t/CC+e/wsFH2Sa7l4UBSL7Iyck4j7UR0fjqQqJuJ9etTFOELZyARhJOotmJxxA9eh5+f5il64iLawBe7ReG0I5Bkqc6ikVOwKsIG9sMt/9gguaPM7h4836eHbo5O2sfGNsWmtJjpHZ9/J2Eph3MBIKZlqxkpiX2hvUtOpGjfJ7LW3xpkZVVAm52+DUob5ltV9g2V4pC5ADCE2jP57phaUwvUZ8Z5SJHsJDVBGH46rloG2AQI8pFDheU4Ur8Hzhx4gSOnziFa3ce64Iv2HtCAhTM82cqcmybSWJXyRE5PHvhxpa850y6padWh2La3hsKojDq2a75swT+OywKA1pX0Jk6Zyd/h3F9l+MfFvjCvp8pC/4ZeqbVaBZ8oLZJ9ULz1ttYNXwYvrym1fmkRb8TkOfDKLzE8kmOwbzWVvM/+/pOVzsqARI5jjoy1C6bCVzcMhZjt15k12t00VxaXBiB2fvv6f7b1ClYyU14G2h5zsHCnVnpk5wPkPJtLOas+YWFkNW3xqt8KwwPfx/VvSzvNOZm3cKOuXOw/xoLW5P3c/erifZ9B6J3W3OxIy1y+BC6J0+ewG/Hf8f1RKloCTwxNy9fuGTqI0vJFzl6vwh7g9DmZqXhSRoHTN4uptxxNopmJ8M3Qm69jiJyMu4fxrzwzajGwsn2rOsj2nw5i6/UCxswYvofaB8Wia4S9chlU9DlipPIYW7i+SZlHmVfxujoifi/8uYnI/EbR2LizisMnZxFNpB1azuGDd2EO2wdW46F8Y2b0FLgyydX5HAO31WQff0q7umc7k1/0lHD5I5xQT1/+vvz/SzMkxyhyZaUyNnQ72Gej49cUtLlLPl6cpEBr2U+g2qBfJAC/nspbtJt2/MD3GORQUNZZNBMGe9RQ9ksj7qYsHomHizqoUtjYMvP2rfIljrpmuJLgERO8R07arkogfNYwE40uJMbLnnZiI3z0PzaKvSfvA8p7F/kRhQSq1p9kVMXdd0v4o+bet8PFmIAQa93R7k/P8PRu4aYtJaHmTM7+KhbKjasPpQvkqRChfIipxLaD3wFmadO55ub5YfAFb0dJ0zK4fma1VEruCEaNaqH6s+WY0kBr+UHVrD2YSk4J2SDyLmJrUs+R8XXe+D/gsvI8lEy7aowlC8niOu+u5DZzldV5TlzBJGTk3oSs4bOxPEEcbt8Q0etiRxj+/5A9Jq9Au/Usle2qoJZtBJ+7nHzviOelww+Isx5UjQnOVwHkk/vwKf/voi+sk5lA9Fn8Qp0tZgnJ5nt4A9hi0YuV4/YaYupyKmmMz07eeQwfjx2EldvPUKK6AtCAw/f8qjyPHBFgemW1EgX5POnv2fR+OQITbaKWuSYss/VnsG8AZNxmH0vpYLz2CZy+Ofn/9k7z8Aoqr2NPywhgQChhI6ooXfpvKAgoqIoXiwIiBRBeu819ATp0pt0QRQVULyo4EVFbChFBem9g0ICgRBIec/sZndmdmd2Z1s25dkv90pmzpzzO2d2z3P+rWC9gXhvdBMnCXLkayu+NgfTOkbAWpBY3d8HqenepXWXByGp3mzWA69sQbmQNzQHixj776s0Q7ZMkZMhp42d1iOg9Du3ZrHJne2YQvgYO/lMG5HTHKPb38L0d39EYp7SeG3gGLSrew+rhkVi5xVZ5MjpSoUbm13qU0nkRM9qj2L3z2HL7OnY8NttvDB2qdmXXypQ+M/5E9i7fx/2Hz6GE0fPITbBuXiSfihCsonaH8JIEiTc1cZO7YaqhfPo/EAZ3wga32gaW9v3j+/Aqp2nxMVWkbPbVkSz8BPDsXzY48YaSr0qJfGEnLlO/JszVyG3Gk69OD2IHKkrd4+tQ/+RH5uz9plCy6PX1Cg0e0Qd8+VM5Kg5+b9mkyes7e8xLrCV3w3G17arPhp1E3XVjvLv7rQZ9+dS9BSHPFIsjpbIuR/3FUZ1WCICukWdnuBcyJ4UL9f9UXXKhNCiZVCvXn00bPgEKpUuhrCc2eBJpjHHzbZ/37/AiRzZDUvqg57I+WB8YxHrGGezjl3Y9Sl+TXoUdauVR4nIrQNvAAAgAElEQVRCed2zfLsoTaBkf/yjERj+wRHx3BA8O2Q1+jZ2rGHjici5f24j+g5cj6tJOVCsQnU8lNfRK8Gayc8qAhFaHxPXjER13RpRjMlx5zuC11oIUORwJWQiAsoASrVr2m9LeiDqyyvmsXqagMD3lpzmmLPsbdza/QPC6jZBKZ3EAcrnuvJ5f3Dvnog9ChGiRN70602wJJiKlSqPMhUqCetMbVQpV8pcNdt4drVDmN4pEj8K1zZXGag8+aF0tjDl+gqWKvJhx9ei+7BNkJKk1u60EuNeDXdjXavjAICSeHPqWDQpnt/ntWdcu9f5OoW0IwalS5CW1U9f5Kg5FRQZwOaKDGDexiu5MVEeXWqfQtrR5mQ9Ic44Ikcu6OnKXVN2f7PCk75DBtbYg0ULPsX+Y+dxw+z26fiRUmaHl4hA1fy3sfPAWXGB9gHR3V0z8Oas3W7VjFE/zf/vn73ISas6OfZZPo3F5MRhw8jO+PDwfcgHde4mSbiOr5e8hz3SaYbdR87+mIjLB7/A0gUf4rDpOczXqZnk6Xe39D0T/eVN3D521Py9bP+RfjNmd05OtSSlGLCcU+R49AWYxW+iyMniCyAzDT8l8QeMajMLh6UASrsMLUqhoE6fapyAf0ROD5TSTclp6Zs7IkcejTJTk8XdrGBoDC5ckeJ3KmHExiloaLX32yEwLnKc+/Irm5V/KJ0/2/hsqK+UMw25TqeqvjMR+1cNwaQtZyynqCYTTMnJ5v+vdMFLTriDeHFCmtvDQHvZkuPKZeokPl/2DS5LSzhvFbz+xhPIr7u/ka915S6oHnMctkX3xdI9N83/HFKsBWYt7mpbh9oiJxY7Zg7Hoh+umNnki2iFidPbp2Zn8nTW0uY+15s0rc2TN6m31WLAHauLMSKJ2DyuHVb/keAy6FyZltratuWg5HeMaTUdBx+og81Di9bHK22fR4NalVAqtbisqyQHrv7ufExp8/5Z+iB/XxnjbOQqZ54BjgLTiMiRE+d4E0Oqv34dD8oSce9eCnLm1E6S7/r90eeUeG03Fi/7DufPH8RR8duTPd8jqFmusPkGyZLz3J2l5rTp2fI1xjvLB6GCwopjvTcmxbpGtYuBJt04hf2nbriMCzUym7wm8xGgyMl8c5plR6T0fc4jTpnXiFNmKXuM5aN0G/DsxyNjiRzgvMh+lFKojHB3sLibGd1seSJypLoGM7uU01178mlvCBp0nYOhLYwXMXW1oBOu78W7Y6LNcUzOgm4d20nE+e3TMXThr+aU3VLdoUZ9Xsc/i9/HYeG6IwuHWHGy2h2fnC+BV/uNQJv6RQ0XYLU+UxY5rkbj2d/dEzmAze3sciia9Z+KHqmZlqSna4kc6folwp3yq/P3hChqjmnze2QIgSONx/UmLaOJHHkD6+ykXxnjkj1fPoTGxppd1iyb3GtYPWYWzharhaeeCMZnkzaY3dU8qZMj87XEQDZ1SP2rt6bT7v2z9EAWOWWf7IqnK3qe6jrp39+w4ZN9Is5TX+Tc/nUeuk75n/huyYVHHsmDs2ev67qrbZjc3AZJTgSQB6VrVoROgk1NqHIx1wsqt2ely7NV5GjHvTg2Kyd5MZY0JrR6Zywd1lTVkPW3x/57Su97Uepj/7Ib3UrG4O53oGfftLwroxGgyMloM8b+6hBQihht/2L5tN95AgLjPvyOXVF/0RpLIX14Tje8v9+afEDjRyY5wZa62bWbRVUMXjMcNTWsQ/4UOa7c6NRpStWBo94taaurkdSKe8kCVJmcxL1lW0zCtK4xiHxVWAMVIufwB0Mw+qMTqf7yxusSKceV3kSO1LekmAPYf6Ui6lRUF3HVc1dLSfwXX6zZjqod2mYYgeMLkfNw0xGIbFtGtUwfnNuCMVHbzG449TosRNdGylNwdVFEo++d8fdAkSVMZEpbObKxxq1KK0IuPD+8M87OXGxe147vqtHsatobetciUntkafn+WXpwBOuiP8FpwUCrYK9x/qKyTKqFIialAJ7p1hMNitkLJoUQFanAe9T8FXM/O+9S5Dgvnum6h3puw1reAP76TtISG56InCFNH6jilAAWA3W9AniFPQGKHK6JTEFAmSJVzx0tSQTYDmm/BKfN5u8wtIpaiQ7VHE30aS1yDkxu63G6TMfJ0/fRN7rZMmrJcdeN7spPczF85k7EGksc5+a6DEKpJ/phytAnDcSI2J8gm1CiQX9MG9FE3CvHMll/rFMSL+KzGVF4/5dL5qKy0sdIXSI3B5B6ue9icoye1Nr38378LXPiCWu2InfHoXWS624bvrze9SbcuSVHa+Pozto3+t4ZHfM9kUjAmi2yausFIgNgKYdblbXCSj4ViXkD7tnEu69FTuyOaHRcsEf0wVV8kLWb6fn9MzoLzq9LOLZaxAhuFiLYUtS1zoHhiNxyzqXIkRMBhKFcnfLIZ3vMPZw9eAjXhVtZaNFKqFxKO/27bMlR909rvZ7b/zUOXnb8Mj745Qr8eC4RwQ81QucXKysakt1jnVnCchSrhmdrqdeknsixp2j97dE+NNOOyfHNjLGVzEqAIiezzmwWG5cysUC47ulmHDaO7or1hyx1ZfRSW947tBkzNh10IChXuRbxGjo/NDnLv4RhbWqk3mvMkpPyx3bNHxtrB2TXCJEU26WbhSUQv7BGmlyjmy33RY4JT/X/CAOflmsv6C0/qYjg3/t+xjkpjbGPPqZcxfBY3aoonsf186Xq3sc/j0Lkiv2pLmomFKrVHe+OswbQyyLD/kQy7vTnmDR2DY7etkod4eBW8mmMnNADNYqoM5R5PjR3RE4Cbl6NEVXXhSAJCXNIkuCvk1pXY0tvbiOZTeTIFum8YgO9SmRS1IqluC7q7fTCl/HPpLoWyuLd1yLH6PeKZd2k3fsn98vVivXt3y3rv4a5uOXP4T0wf9yzOLW6v0uRkxSzE6N6zsPR+BTkF20sEu7WuW3f495l+3NHlOsnHnEnBbexmDb1WryAxb0H4KuL2YXlcR16PW7/fU6R49uVmjVao8jJGvOcyUcpZ/kCnP3wA8q4HfvkBK4gZbSYHPvxGN2MGBU5V7eOR/flB8RjjNTqcEXX2N+Vwajuu5zE4ocFYzF7x1mb65lswbHGbumLHKmHksvWrvcmY95Xp21WHZhyo/orIzC2Q3WP6vOoR+6OyHHOTO+kVv+uW/jp44/w1w1ZgOZ+tCnaPVdOOPMZ/2id5Bq/2/dXyiKnInovGYQaDq6cVjeYcLw5cylal5Pyr+3FpLZR2BufjIY9NmDEC+rUuu5sGo2+d8ZGbhEvW04/EMK2PiZ/OArVdBKXXN22DN9FdESbSpI7orMNqjfuavLBket4uLR9/wIrcpqLYpibcfSx/6BReHZbPKR+4oGGIhauv7DoCwdIzeKZxjNZaq0jd9Zr4ESOVRjlF+/hKFybOQI7rsgHSq7ej/R2uOKqv/x72hCgyEkbznyKHwnYp+l051HW4mNG7smqIifHvi/x8zWRhcsMKSeKF8+FC4d/wRdffI8rd1JcbraMsDV6jTs/1so2kxOOYuXoKGw9YSmIKMXvRDw1HJMG/J+de5tzkWNt8/bhjxAZvRFnFFadkEJ10HvccDSxqztz7vv3sGaXlL68oI7/vrKn7oocOc5Az1XFCFtJvH02bSjW7LlhV8k+F+p2miJqEEW4nWzByHPT4hrj7qfKmBPnp9burEPjIkdK6XscQVUqalpiJVZKt1zH5CrOaPpK5EQh3/9WmVMT5ykegZznf8A3B66YBb+z/gTi/ZPqhN28475vrPN4K9crVsuqal0DzrKrWS3FcXVGCvfCOnbvm/FMlt6JHNkC4yganK2hOJw9fgvFyxbXPOjRcldLijuJT+bPxrbbz2BR9MvCamW1NlYU2T9742jkOFW9OLH6NYuBWseb3txkXa8UXpEWBChy0oIyn+FHAmoXNHcf5Pr0UW4xq4qcQr/NR0eRJUhyi3L8mFCu5RSRWa2S3Z+uYM+X+/CPOkOtu9PjcL0x1z21y56jm1kuVG8TifFvVNHYuBsTOVLHzLE60yYKYXBVFgbCqlP1hf4Y0bW+TTzJm1wjhWjdFTnebX6kcSg3oFLdnCrFD+Ovk4kifqAYCty4IgqHOuPl9ZT6vQGbxdEUjDx5cmpYpRzr5Nw/twG9+n8o1q+2ZdjXIsc8B5FT8N9jD2HU5ijU07HOyG65JpFAYL3IkuZYvFEbqK9EzlLk2dhBpB+/a/cYKbnBKuFilMvh8YF+/+w7tO/Tafg1viGeebEOyhVw7K87c2t08boSOdZioEkP7iFBHCfldEhVb7U2pmgkurDvRTAKFMmvEhtGx6SMW3XMmOlsDVnE0Tf/hKLuG+NEenJ1pk1tkbMdwzotwsnkchi0ehoa/vuBOZtaTN7GmLZ2MMo7vAN0VzO63nidTIAih6shQxNQZ+0SqTqrVUFhF+ERytgaZwkI7MH4V+R4X8PBVYYzoyfK9u5qJe5+rUjYIFPJHpwfVZv1wtDUDf3F08eR/6GyqbVkvB+P5wvTGgB9Cz+unIoFX/yNu6kHutmCiuOVkZPRqa6lVoPjx7jIsdybiAu7FmPsvG9wI7WmYmj59lg6vVWGEDkJ13/E9BHv4vd/H8BaGPTf+e3MiTCkk9x3mx9LTRYhJWfog+ghT6Ogh7WCPJ9P7+60rvtgkeVqybz2CHeIV3PcPMkpz7XrLhndNEo9d/7eJeDIl/MxbcUPqetHv46UMiU08DB6LpuD5kWNpkH2ncipvm8cojYfw21RRFRKTpGvSCk88Z/e6Pz8o3aHBrHp4v1Tr56jmNV5FHbdSELuip3w3tRXFHEvlivdmVujK9OVyFnT+V+30iU7f65jAgijY5LTV2uJe2drSHbv1ConoJ14IFG46HUQ3zV3IXlUDC4gkjUI9+fQKl3xfnQLJwdQSrdSozPA67IqAYqcrDrzmWTc8pcy3KiRIv/QSRj0EhBQ5DTHnGWWYqVSwoDrMZZqMtInV74iCMuprlIpiaMVf2ZDqcptMHxicaztvAhHRLpWX36U9R7002lXRb+ZDfF15Hz8fk1OzR1SqCGGvDMQ9Z0mCXBX5FhGJ9XqWTRxOnb9Ww7DFk5EQ0Vxi/RpyZHE2QKMnvOtOdudJHAGzRmLxkVDHOrkXN45HYMX/GgWisYY+nLGvW9r58yOmPtDrJNigdYEDnLq5/3L+2DC1gu6rphGN43ORE7c6e2YOWU59qvWaGOMflfEDYXZR0HFigKgfUQBUKnSjeWTo0B9jJo9ArUNFVLxncixxCw5fu58OwNdVp9Hw2dfR8smwPsT08f7p+zpvb9XoOuoz0W9IP1aacq5DX+0NiIK6VbjVUFw5i6aEUTO3WPr0H/kx8JyC1G0sylmiGQJZVTWFGNrSOuwTS+7mrWWUEJITTxR/QR++O02pIyBE5rewI79F+0WmTW7W17UfbUtahW2f0f0k+54/y3CFjIqAYqcjDpz7LcgoKyNA/Np0LSOEYbIKMWR0QQE3lhylD+W1grNalc5+QfEse6GsyHJbgz+suRIIsf1R/blNum6G1hakX5MB0cdwquTJ6CZXfyKq+cY31zGyoG8kNJL98KkgUasEJ6JHKnfUlzLmcs5EFEqTDWM9CZykhPOYvOMaKz7zeJmZ79Z1go8VqX/NuVH47cj0e/Fsj5ItOBqxr39e5wo5NoZHx6+r1noUrt1+XtFr9im8XXoaMmpm3zJISW5lLzC3s1R2beLW8eZK8ObU0KYTDAlJ5v/f0ixZpgypxfK5nKVGsLYBtWTYqDWfh5eOxAjPz0t/rMg2k6dIdzahlgC6QP8/skcE7FjWhcs+ClWiNc6GL9uDGoGO3JTzq07q0+vRo3UhiuRoywG6vhMtUu2KbQ+Jq4Zieoafdfrr6v1KsUYjp68AedEjKVUFPmp/otEtsyCds3Ja8g+GUfCsTUiZfYmkTJb2yXXUeTE4vx5cSBW6o5IpDFAJNKwHkZZ7n/xwky0m/OzO/jFtUZTmLvZLC/P0AQocjL09GXtzsunctIPf3mzX28Tg9W21W5u7gkk49Sdp9HUEzmuxIr6+cbTenrqrmZM5MjuCvpuQVLPD2Jah7H46ZbYoonNcrP+U9GjSTHDQe2ufqyVbFIST2DxqCXI33ok2tUtZHDaPBc5eg9IPyInERf3fIDp8z6zJUzIF9EKE6e3VxX31MuupN4ISVadOug+vD+alA8zPH/AGbw3eAJ2ScfFpgrot2g06uV2tUE3OHWal8lZqbSypGndogzu16tD4846lOe/Et4aVRHfLdiqSFghFZd9HgNHvqWbhlxVNNNUFO2mTEboxuGpAkISOs1T00Q7O4zwv8ixWsxEonsMWDsDT+U+lS7eP+scP7i0CQP6rcXFRClZSmUMWRxlznxm/wmEJceZyLkrBEQfISBuCOuTySTErfjqtNQ+sk9OoP+e6K1X6WDmBzFXi784nOrSay2KXFXjnZa/40OK/R/6DngLFcJNSLpxGKvmLcSeS/d1LZ9KkfPB+HrmJCdfZO+M5aKQrdWaI/kJWH8Ti139k5Ycb772eK+NAEUOF0OGJSD/qBp3OZMHK5/qSf+mbZ73Fo0sctyx5ARa5FhTD5tyl0ajxhUcfNa1qCgDVkuIH+DFA+vqwrt77FOMmPB+6qlhEMo+Owzj+8iB+s6ou7O59Gz2MqfIkdzpVkyfix3HYlOTJOhz108hCyTFHMCSybOwXZGlLl+pBujYr4chsaNcJ3pWEs/mTfsuOYGAkaQPljbk4P4S6LJgPlqWcnTPMr4O5bgD+x5KBWWbdB2Lvg6xLNYrpaKZszF8icVVUMoIWLbFJEzrWhXZk05iYf9R2HHRkg4kf8UOmBr1Gorrxkt5LnLkumHOsgPKFjNXllzn8+v798/yvDhsi+4rEibctD1eTxwan1vjK1XLkmP9nnWWcl1KSDFHzPP3V5KES2l99O6UgmWL94gkMLlE4ol5IvFEEUOduLQ9CgMW/mZOHmP9fbl5YDmGRm3FP6mxhJLFrXyLcYjuqpcKPxE7Z3YTrp83dJ6pl4RGtmSFlG6EBg9+w3fn7yFHsRaYt6QrSmQ7ibndhmPnNWmM1RzcfeWHMfGAocnmRSoCFDlcEBmSQEriHkxo/w4OiDoWUnLjZ4esRt/GRjMNWYassgR52IZzeMaKgVosJcYtMupnGr9PeaI8YuMUNAzx3Ql6/K/zbBnYandaiXGvhjtFk3B9J6IGL8Sftyx1EFxv0izN+WMDosfTV3UXAmnJcTypleJvHsXrg8fqWreciRwLqwQc3jQVk9btsyV0kDbgoUUr44XWHfDqk0IY62y25YB+wMg68fbLyZpZzVVNGetzlBbe4JIvY+HCt1BEo7Cu0XWotB7IYwlCybodMWrISyil62YWi92Lx+NdWz0mE8o0H4+pPR6zuQgmxezChH5zbe9QQZEoYq4oIBmm0V9v6uQYmwPZYqYfOG6kJf+InOvfz0Df2bvNBYBLPlYb9w/uNcee5CrZHFGzuqvc/YzOrZHRWK/REjmu7pcOFGaPisZuYSGRXMgsoiZEuF92F+6XYiTCqtdm8rtoVzW3k6bsi68qLX+3bC69QXlK47WBY1xavKXvk90fLsS6r49DmV8vW44CqPdqP3TXdGF1FPrKBDDXdr6DPnN/sWXvlNxnh00fohE7SZHjas3w744EKHK4KjIkAWVRT8+tMOqYHr1sO54DSl8iRy7eaRIbzKVCiBg7BXQ1fsktTD5VNl4YNCnmV0wZPMOc2UuKSWg2cDH6PJnP6ePu/bkUXcZuwx1xlXsWL1ejsP7d95usQIiclMQ7OLR9EWat3G3L+iYJkYJV2mDS2NZONtdwSDygR87ROmS5MntYQ0xcMgzVNNzQrAH9gHbWMqOzZOw62bpgrKaM8qQ6RKyvJWJTaR+XYHmysY3wJRFvMFARbyDOysVm8tV+I9CmflFdFz8p492s0XPxqy0hgV5NJ8mytguRfd7F33HSYY+UAa8/po1ooiF0nB2GyALFU+tanHgve4r3UkqLoJVdy9h8SVf5/v1TMsqerzHeWT4IYbunYaDYWEuiR7KoPdl5GLo/V9Eszo3NrfERSVe6J3IsbqVT52xKtXarXchUcy6+N+u1m4BhImVzsIO4TcQfH0ViygeHzePMUaAQQm/9Y040ki/iBQwe/Raqhf6FL77PjWeaWcbuj48yoYHUvlLEKMdSqv4zCDn4P5yQaq+Z52QU+qhEE0WOP+Yns7dJkZPZZ5jjCyCBRNy+/i/uiv2HVjYydcfkH3f9rGFaQ7HW+HC96VfGGkiuCcXKP4Yaj9XCIwU9s+gkx1/B4cNHcfTP47ieYMnRnFOk6Z0v0vRqnX5r9V5yx1gwMAr3X5nl0vVCOkXcEj0Yq83BzCYRHPuRCI4N9vH8+n6TJYscE0Ly5IFzA5o8n9Ct66Icsny9OvBZmXjB2Oba2qprS47y+YmIOf4/zJm+wpIlzBwzMg9tKuXUmJfrYtPfS2z6H8B53JZvplTerBqrKaMVG6AXj2Z0Iyxv8Fwnv9Cyukniv37HKAx/Wb8Yq3oTqRdT4UzkyGJQ+l4o3ag7erWvgXyG9rzxOLt7IxZv+DFVTIehVdRKdKiWw8NJ9O37p7J2qdamWgBInc0WFIbSleqiVvmb2PbpPvNBintJYKxDlrP0Wf/FmMiR3qXdWL10Jb4/LruVarmQ2QsHKT6u44BueL6aVTwn4sCa4Zi86aS5UKvVDSziwHSbuJPWVunaTdD8hWdQo3RxFMnvWDPI2CTKv3OW69V1euSYMumQ5U1MmWh1q5S/o6zJFMpd+wrjR67A0dQiy9mDi6By48Zo9sTjqFAit9Pf0fiYa7iVICVOcKwTZGwcvCozEqDIyYyzyjFlQALe15VxbdlIxP5VQzBpyxm7qva+wSW5Qb01bhpaam5wjT8j8dpm9Ou+GpdSghAaFiq2XZbP/fhbuGfzH/eXJcC3myyp37LIMc7AkyvtsztJFrZFQkBeeqwbhrzV0HB9G/dEjrWnibh88At8dbQcOrxaWcdK8ZMoEjgdBx+kmNPERr9ZypNhGrxHTrnsLJOWtTG1RSQML09Yhs419Td9RkWO1P7B9WPxTcFeIvamuCYXSdzs+2wFFtiEgqVXQXkq4e1JY/FCGWfuSJZrlckJTKFVMXT+JDxeSBlU79ytVSnwDALWvCy8Vh/MH/esoTg+7ef47v2Lv7BNsWHWjmGRkmlMmPoJTsRolzr2hIXWenMmcuJjjmLPtm34+KufcD5W7ofk0vXysPFoX187Mcvtw+9j6NhPcUW8T9aPVLvs0Qr10Lrf/+F/g6OwR1j41HEuiTixfRYmLfnJbNHxx8fxAEP63RmO92Nfx4QB/5dqZRQCJ3ogVu65IX6L1NncpCLLn8+biQ93n1K4wxrvqTM3U+Ot8MrMQoAiJ7PMJMeRwQnIP+5ln+yKpysaLfJnrR3g2pJjAZSAozs3YM0nO3Hmehzu3Pful04qBhgmauZUadAC7do/49QNyvgEyVl8tO9xlgHI+FP8vcmytn/u+/ewZtcVbzumc/9NHP39pNlNyFkKW3ce7pnIcf0E2dVQP6DfdSvGrkiO/wVR3Wdi760HBrjE4+upvbDoZ0tQupHMVe6IHOc9Vj/bfK05nXQft4SpVJT25wV9MPPnYhgwe7S53pH64yp2T9r8zsHU5T/ZrLLGSFuukqwg1Z/vYysM7M69ev30JiYu6ebXGNp9MU7dlwSAq++LBJw/8C3++9/t+PXvC4iJS/DqEEgr8YqeyNGM2RLzX7ZhGwzs6yxmy0JNittZGj1bkVBEjrlJ/GQYhn58S9Oyej/uJLatWYFtu4/h6l3byZHn06a4UyvWLiXxAZKyB9lE/sUvJ2HAkr0QJYhtyTSC7NztkhOu4vcvNmHLrr04dzXGXHzW9Ue//pHre3lFZiRAkZMZZ5VjyoAEXG1C9Ibk6X3pGdF1fL3kPeyRIoPtPqZcxVCv2Ut4yuaW4etx+O4k2dc9027vV0R3WmguuhohAtMntSvr9WP9JXJObxyBgeuPuFG017uhSNaZscN+RNuFI1zWFLHGle1KetpAOmajMTnG+m+LabsMPFy7Ffp0fwUVi7jvhilZhP69XQCFCmi5nxr9nrB3PTIwBlMowgvlcSONuLM2fff+Hf9oBIZ/cBZV20Ri/BtV3OqfffFjAxRsl2i5Jjuz5Fgznz0QQrHaUx3QpVMTROR1Z/4tLqNLFm7Ab+eC8ca0RWglCramJB7Erl+K4sknCjvt/v24f3DzThwuHD4sBI93xZtNuR5CvSeqGbAaC+uOiI2ad/YFJ8ky9LqtvUazhYR54XLnzgzz2oxEgCInI80W+0oCJOBnAlew58t9+Ef81jtL7ernTgS0eatvu683DdaUuXkfrY9GlZ1n3wsEgKQYEZSdO9zABs33vUuKuYJrQQVRPI87m1vf9yPwLfry/YvF6dNJiIjQTh6RlmO1CAmpNpSWIIzFycO3UKzsQ34L/k/LsRp9VkpiAu6nBCPETwkPjPaD12VuAhQ5mXt+OToSIAESIAESIAESIAESyHIEKHKy3JRzwCRAAiRAAiRAAiRAAiSQuQlQ5GTu+eXoSIAESIAESIAESIAESCDLEaDIyXJTzgGTAAmQAAmQAAmQAAmQQOYmQJGTueeXoyMBEiABEiABEiABEiCBLEeAIifLTTkHTAIkQAIkQAIkQAIkQAKZmwBFTuaeX46OBEiABEiABEiABEiABLIcAYqcLDflHDAJkAAJkAAJkAAJkAAJZG4CFDmZe345OhIgARIgARIgARIgARLIcgQocrLclHPAJEACJEACJEACJEACJJC5CVDkZO755ehIgARIgARIgARIgARIIMsRoMjJclPOAZMACZAACZAACZAACZBA5iZAkZO555ejIwESIAESIAESIAESIIEsR4AiJ8tNOQdMAiRAAiRAAiRAAiRAAlvVb3gAACAASURBVJmbAEVO5p5fjo4ESIAESIAESIAESIAEshwBipwsN+UcMAmQAAmQAAmQAAmQAAlkbgIUOZl7fjk6EiABEiABEiABEiABEshyBChystyUc8AkQAIkQAIkQAIkQAIkkLkJUORk7vnl6EiABEiABEiABEiABEggyxGgyMlyU84BkwAJkAAJkAAJkAAJkEDmJkCRk7nnl6MjARIgARIgARIgARIggSxHgCIny005B0wCJEACJEACJEACJEACmZsARU7mnl+OjgRIgARIgARIgARIgASyHAGKnCw35RwwCZAACZAACZAACZAACWRuAhQ5mXt+OToSIAESIAESIAESIAESyHIEKHKy3JRzwCRAAiRAAiRAAiRAAiSQuQlQ5GTu+eXoSIAESIAESIAESIAESCDLEaDIyXJTzgGTAAmQAAmQAAmQAAmQQOYmQJGTueeXoyMBEiABEiABEiABEiCBLEeAIifLTTkHTAIkQAIkQAIkQAIkQAKZmwBFTuaeX46OBEiABEiABEiABEiABLIcAYqcLDflHDAJkAAJkAAJkAAJkAAJZG4CFDmZe345OhIgARIgARIgARIgARLIcgQocrLclHPAJEACJEACJEACJEACJJC5CVDkZO755ehIgARIgARIgARIgARIIMsRoMjJclPOAZMACZAACZAACZAACZBA5iZAkZO555ejIwESIAESIAESIAESIIEsR4AiJ8tNOQdMAiRAAiRAAiRAAiRAApmbAEVO5p5fjo4ESIAESIAESIAESIAEshwBipwsN+UcMAmQAAmQAAmQAAmQAAlkbgIUOZl7fjk6EiABEiABEiABEiABEshyBChystyUc8AkQAIkQAIkQAIkQAIkkLkJUORk7vnl6EiABEiABEiABEiABEggyxGgyMlyU84BkwAJkAAJkAAJkAAJkEDmJkCRk7nnl6MjARIgARIgARIgARIggSxHgCIny005B0wCJEACJEACJEACJEACmZsARU7mnl+OjgRIgARIgARIgARIgASyHAGKnCw35RwwCZAACZAACZAACZAACWRuAhQ5mXt+M/TokuJ+x4o5X+FOsQqoUCI3sud/BDUrl0aR/LnSdFxxf3yC9//KidKlI1CjTBHkKVgIuXNk83EfruPrJe9hz/UkW7uPtRyJ/1TP4ePneNJcHP7etRtn4pJtN5tyl0ajxhWQO5uvOXjSP+/vuX/qF/z3yF2UqVQZJQuHIzyPEe5n8NUHB1GiQUNUfLQAgjMJC+9psgUSIAESIAESCDwBipzAzwF7oEPg3p9L0WXsNtxR/P3R5lGY27NaGjJLxNaJHbB8313FM0ugy4L5aFkqyIf9OIMFPYZgx5VEW5uN+nyMoc2CffgMT5ty7FtQ4eaYs6wHSpn8K3ISr+3G4mXfISYlxdPOi/vK4o0xbVHWSV8Prx2IkZ+etj0jW1B+vDpmOTrW0hc7yvWZLSgXCj9UBi+9PSGdCFMvcPFWEiABEiABEsgEBChyMsEkZtYhnN44AgPXH1EMLwTPD1+HXo+n3cY/JfEHjGozC4cT5U12cMmXsXDhWyji05N790XOnW+not2cnw1Pv+fCxLciZ+vENkI03jPQ76oYMqsCVg35FDcMXK1/SVWM2RyFeroiJw4bRnbGh4fvyyInpA7GrxuDmsEm3WZ3zuyIuT/E+ln8ejVw3kwCJEACJEACWZYARU6Wnfr0PnAtC0pZDFg7A03z6W88fT2qq9smoOfS/VA4aqFelxUY07KgF49ydP+C2Mbv+vBTHI6Vn1T2ya54umJ283Pyl30cDcvnxndLo3HxsR5oU78oEr6b5pXIufvjAvRY8qtiHIXQetIMvBRhb6EyLnLun9uEYZGbccOmCR3bTH8iZy8mtY3C3niZfcF6A/He6CYI0hGyKYl7MKH9OziguCf44VZYMq89wn0qfr1YZryVBEiABEiABLIwAYqcDDD590+tQ49BHytOswvhzZlL0bqcJ+5SjhtWVwiyB+dG7pw5UfiRGnjq1VfxXM2ShuIP7h5bgz7DNpn7nU11Mn4Fe77ch3+ceiBdxo41W3HqnnyRKW8VvP7GE8jvoYeUNY7k/okf8fPxW66GLf5+D79vWYe9V+U4GaAYnn37Pygd5H4nLEIln2jX/Tko3WIqJtffhZ7Cfe82TChQ5nl0/b8rmLF+n4FxWC6xt+Q4WoL01pUbIsfAWk1vIsfRLTIEzw5Zjb6NQ3XZeid+D2F6p0j8GCOJqkJoO3Uh3qiU0/A8pscLjc+ppfeSe1/e0FAUqfB/eKVdezxRWp91oMfrjsXUMq78KPVYLTT/T1s0KJdXVygHelx8PgmQAAlkdgIUORlghgMtcuwR5YtohYnT2yMi2NlGX70xfujZCVjYt2ZqUz9g5CvCBSzZmzgL9yfOusmPWdMfkVvOud+Al3dIQuXdbpU8EjkRzTuixK/r8eMNWXAVLlwY169ft/Uqez6RmKFcYdt/x579C8evJ9j+Wz0HQMYUOWEoV6c8JKmo90mJv4i/Dl2G7Hxm766mTvIQf+UIDl2IUzSXB6VrVkRBixHN9pETQcRh4+iuWH8oXvHXgmj0ZitUzqP3ThRB3ea1UTjVyvPbkh6I+vKK+f6gws0wc1FvF++Tl4vPz7e7K3LU3QlC2WeHYXyf+ghLh1Ywd0SOelyWw4ghkd1QrWDaWZ/9PNVsngRIgAQyDAGKnAwwVelN5EjIQsu3x9LprXQ3JRe3jkPf5X+kunnZB+pT5NgnGXC1DE0mE5KTZXeqkGLNMfbVG4hcJLubhVbviQ2Tm6c2ZW99CUOrqJXoUE0OpA+UyFGO9a9V/VSCUz0GwHHtu4qvMXKP+5Y0qc/WRBAPLn2Mvr3X4YpbGl3db3UbJlRtPRvRb0a4Wgbp9u/eiRxpWCaUbTEJ07pWTXeWD89FjmW6TKHl0WtqFJo9EpJu548dIwESIIHMSIAiJwPManoUOYC+S09K4l5M7iRiHFJTDjsG6md1kaO16PQTD1ze+Q4Gzv1FOM+lfkxF0W7KPLS4MkcVk6MUCPf+XoGuoz4Xrm2Wj1bSgYwtcv5xSLld8vEu6NK0pAFh5I3IMWHHtC5Y8JMy4YCRLxF7caZOdqB25zTSXvq6xnuRI43HH1kLvefkrciRepA9X2O8s3wQKjhJZOF9T9kCCZAACZCAkgBFTgZYD/4WOfan52okCfjn8HeYO+M9/PnvA9Wf8gjLwZpJzzucvB7/aASGf3DEFqxftfUCcUpdSnHvr4jutBBHdNzVUh7E43a8+lmWuCA7/yE3505yC4qe1R63No5B9Bfnndz9AHdvxUNO5iwuNQUjT56c4rzZ809E8/GY1K6sTgPaIqf3oxvRf+THkMvnyKf+9psv5Tz+vKAbpu64ZntWxdfmYFpHtaUgY4ucsw4pt8u1nImZXcr5VeQMqvc/DHl7KU4rsu0ZWxGOFqirW8ej+/IDTufIWNuBv8pe5DjP5Cd9p/yM999bju9OWmW4ZQzWOQz8iOQeGH1P4mOu4dKZfdi67gN8fzxWkazE0lbJpyIxb0CddGepSk+s2RcSIAES8CUBihxf0vRTW4EVOZZBJcV86bC5097IHMWszqOwyxY7Ugrdl8zFi8WNCpREjZPyvHh5wip0rmmkQKP3k6B2tbO0J8fTeN++dguOIqdB+z6I3bIYfyuKcBYUwnKuEJZS7IKeyHHM/KV9Qm5086aVKEFvE+vuWvXcXc1R5FjdyVy7uDmyDi1aCZVL5VZMzU0c/f2kzRIm/aFRnw14/NggIR4tsTSWjwkhefIgxE79Ogp1R5GTFPcVhrRfgtOpNYCy52uKGav7o4wPag/dufwnvtn2DU6llBMB8M+hYhH/pl13T+RYyGmlZ3d+4OKvd895u8bfE2s7iTi/fTqGLvxVtr6al0p5DFo9DU3SMDtkYIjxqSRAAiSQPghQ5KSPeXDaC3c3js6HpLHBU8Vy6N1tLMNW/K/z0HHK/2xB3+7WZtGKd/Dl5s/VdGuJOVNofUxcMxLVfeJqcgGrhkVi5xVlxjapV8m4dycO9xX/bB+Ho9xQh1bvjNl19mi6q9ln/sop4qdWivip3HZB3cY3b8bmXhqFu2s1vYgcRxHr6FJZ/7U2uPDZRlxUWHH01rcjW61YoutYNbAXtpy2Wi1dZ3VztX6lv1//fhb6z92Fu9a1ZMqPF4bNQY+GBYzc7tE1nogcLfFcQlg7Fg+s61Ef/HWT8fdE2QOtwxqgdqeVGPdquL+6ynZJgARIgAQUBChyMsBycHfj6A+RkxTzBQa+9R7OKYKtteqC2BdIdG/Tor0x0HK18s+0XRabzgFi0ylnJJNijxr2WIARLxTx0SM9iwexf7h04r286R8aIqeO3cbZpFvXxxexBq6hOE93npFETkhICBIS1GujUZ8lGNrMsWaSPVtT3saYtnYwyttZafYv74MJWy/YMIY3GIKVIxu7xqp7xQUs7j0AX11UOVvC3zV8PBE5jgcKJmEtWy94pq900p6JHJGA/s+l6CJSvt9RzJWei68XE85bSYAESIAEdAhQ5GSApRFIkWPxM/8Jq+etc4jJsU9JDCjrf1jANuyxQQgEY5sWx3GKBtLMxSMR+1cNwaQtZ1S+9K6yyLm/fPwrctb2ilNl/nIW0B4okXPko9G2mKike3dwR2G+stQZsbglSjFMkf/3i12NKKtF5G9FrRnpatml0RN3NSOWnDqvR6LM+dXY/NsFs8XNMaGGvBrs2epZfO7umoE3Z+22rblsIfUx+cNRqOaxy5q2yMlRrAXmLemKEn5K0eyOyElOiMXpw986fKek11Tanooc4CeMaTUdBx/IJ0PuWrbd/37hHSRAAiRAAlYCFDkZYC34W+R4gsAUWgOjlo5HvTA5GOH+uQ3o1f9DRZFPd4qWallRRKnEOj0wqXtteFL21DYuUyjCC+VxGvDrkMHMfHM+NGzTGtXye5NuIBSVnmiMCBsndY0WmX0y/j19CKf/VVoKpKKJ4ahYIwLKaBHpnpzlX0LvIl85WHK65duAuT/Imb9CSrfF8tltNVN9B0rk2Ftv9NafJDymPb1XR+Tstqu1JK81f4kca8xPwvW9WDF9OVKa9sRTVSqi8sOOqYHtkwroxjA5vDNF0HHOYrwW4fmKP/HpKIxY+7cicUYuYSGZJywkvrJGOs6Yt9nVTKGP4q1x09AyHRZF9VzkaB1ouE6B7sn3Me8hARIgARJwJECRkwFWRboTOSKFcZvJ76JdVfXW21gcgjZwrWB/X02Nq9PTu8fW2WUw89WTpXZcC72UxH/x9bxIvPf9JVVGN1cbP63EA6v7h2DCwPmKZAX69UcyssipffdrVdA+UAkjNk5BQ5EBwBOR83DTEYhsW0Yx8XswvecKnFBkALSKHIhZurBrMcbO+wYxOaph2MKJaGhXOdReyOmvQcfYH3esn9orNREX93yCD7afwL2UEFR8tgNeqV/Ur1m9vBE5YaWeQd9x3VG/SPqsI+O5yFGnCbfMFUWOL79d2RYJkAAJOCNAkZMB1kf6ETlBKFShGfoNfQs1NDYk9hs7vTgEe+Rawf6+nBZnIif+wjZEDl+GE3fcquzoRveci5y409sxbfIyB1dAU2hFdBndB/U0OGcLCUOR/Ll0s6vFiViAniIWQE7OGyay0y0T2elyqfotuQ1dj7FV33EypgtYGxmN3dfkrAhB4U9i7JR2KO7S/cmEPAULIXeObLb2fWHJqXFmvcrCo3Tz8kTkGJlQSeQMfvIyNs+IxrrfrtpczKTCrNPm90BEsP4Y9dfgCcztNhw7FWz9n8nPyGjdu8YbkSM9KShPabzabwTa+FmMuTcqy9WeixzAkQtFjidzwHtIgARIwBMCFDmeUEvjewIvcnLj8bfHoWezCgjLKW/k7DHYJx1wZUGx3K/tpuZLxHr9SLi+087q4cunWtvSFjnJCWexZfY7WP/LZXU9HgNdsKbZ1a+Tk4ifF/RRpTrO+XArzJ/XHkVcihKtDhjPrmag+7gf9w9u3rEIpqMfT8SsHRdtt+Wq1A5zBzUx/3dQ7oLIe+0jTXe1Kt9PU7nqKWNO/ClyBtX7BZF93lWl9Zb6WlgkDFgyopHNWmLckuPINqxWH7w/vpkRlOnmGm9FjmUg/ner8wSY5yKHlhxPePMeEiABEvAVAYocX5H0Yzv+FjlybYpE3L5+EjuWv+u4+TblxpPdZ6L/88V13V7cCT624NIO9vc1Si2RY8yCE4ZydcqLyBzjn6Qbp7D/1A3FDfYiJwFHvpyPaSt+wA11vVPDD3EtckRdo7jtGNZpEU7a0h2HoVXUSnSo5kmtId+KHOVAPc2ulmNlX92sZP4UOUObBeO2SJPeVaRJV9vA1Bt0b0ROeqwV42pxuvPuSxbEq5fP4NsNi/Gpvcg3lUX/5dPxdLjRulqueub93z0XOYzJ8Z4+WyABEiABzwlQ5HjOLs3uTDuRYx2SnvhwftLqzkZHepKjW5Xl+c4qg2vFkcixEsam5Pbh9zF07Ke4osh6pH2n+64lrjZEKYnfYvjrc3FMEethrNfyVUZEjiQgt07sgOX77tpuVLpBuRc/5a7IcYwz0Zsjz0TOSJwc3QUfHr5vG1vJOm+gRe0wmHKXRv2HfsfgwR9Dlpr28+hZhjtlTI69pUzqiClUjs+hyGmOOct6oJTTLHHie2b5ICFWz6legfTmrufqndZ/f/diUtso7I1Ptl0SFN4Ms5b3xqMeZ89z99uC15MACZBA1iVAkZMB5j7tRY4ERceNTCQd6DB9EVqVc8z+5I7ISYrZpen2oxXfoJwi70WO4+bf3L4Y10vCSrV12wHF43wvcgDHGAzrA/U2d3puafruapYW7TN8KWulZGSRM/rj57D5jdk4rCjKaWUoWe2mj8qNqMGfuCVyjKSQVgq1lMQTmNdHxNLYFXXNV7UrFkS1wNnV/RG5Rd6869ep8bQ4b/r64nLn3Vf2PPHaZvTrvhqXFCFx6c2S5anI0UqJH1qlK96PbuHXJBDpa2WwNyRAAiQQOAIUOYFjb/jJgRE5wINLmzCg31pVhXep0yGi5sasxV0dTml/XtBNxIFcs41LLxZG2iAu7D8KOy7KJ/FWoaEnoKyNei9yHDf/ksBpOToabeJWqOI8PMmE5HpDJPvpm0wmJCfLp7y+FjkJx9ag+7BNiEmFpzxFzsgip0vX7Fi9/A9VPSOVyBlbGPPGbsEN28a5KgavGY6attNzR2HhrsiRnmdviZTSfT/ZeRT6vFgWR+1Ejv7G3bEv7hXQNfw14tcLKXIc8f62pAeivryi+kPtTisx7tVwv84FGycBEiABErAQoMjJACshUCJHQvPX2oEY9+lpuw2lCVVbz0b0mxEqeofFtSPFtdaPXmHDC5tGo8+aQ3bkjQUd+0LkKOv5ZAsqjrYTZ6GtSIft3sZfe+G4Fjki41J0Z/xSpCt6PvI9+i781dZQaNFKqFzKviKOiK+xi/Mx5q4Gp6mU3Rtr2rqrrY+shd+/WIP3j9XEvGEN8c+/cbb1l/LgBFaMnYk9N2RxqJwJY8kufCNyJJdAi9vaNRQo8zwGjpSzDm6LfgNL98iugvoix9GyV7X1AvFulcoA30xyFz0VOVqp49Nb4gUj77T9ZGmmpU+zwsYZaumwsyRAAiTgNwIUOX5D67uGAyly9K0ujgHC8SIgu6MIyJbtM3LtEiWNpLiv7Gqc6NdysafoC5EDWHzl92cri15To9DsEUt9Dvc2/p6LHOudntapMSZyEvD7kiGY/OV5uaOmGhj76QTUERYN98aadiInW1AwcqTcx32RfM1RsGjHcOiLnB8wodvXqNypJ15+vCSCbZnlfCVypAQPv+OL7/Oh+QtlFe07pg7WFzn28UsheH74OvR6PNiLLxApucVSLPzkd8Sm5Ee9V/uhu7AuyeP3ommdW90VOfExZ/HLpsVY9sVh3JUzk4vWTajXZQXGtCyo28n4mGu4lSD7t1lTqvt+VJYWjYqclMQ7uHbhBH7e9gE++uaI3biAh56dgIV9a/qrm2yXBEiABEjAjgBFTgZYElq+3e50W71ZdD8GQK9YZv7qPbFo0vPInbp5dBQvejVi4rBxdFesPxRvHkZB0c5c0U6YgfTGvhE5cfh86VpEvN4T1QqabCjd2/inR5HTCs1uf4bPzmezCQVlL5Vplt0ba9qJHH3Bkojz26djqLB8KbOahT38CEznzsoueSImxxrwrlyP2YOLoFazDujRtREKZzuLBT2GYMeVRNvjPHFXc/YO2m/69USO47tdFgPWzkDTfPK6dOddl651tL5qW17dbded8Xratim0PiauGYnqwXrjT/u6Qp4eRigZZM/XGO+IJAsVdMflKTHeRwIkQAIkoEeAIicDrI1AixztjZP0r7nEqfMqcepsLTLpuBnWq95uDYrPF9EKE6e3VxVSdDYlvhE5RgWKPxIPyM+2H8vDTUcgsm0Zh87F/7QEA1bvs/27M0tO/6KbVHFRysaUJ8mBFDlSCuGDP27G5s+/w5+nbzqpE2Tln4Tjn0chcsV+lcDJFlIZfYdXxPrJm2xJBpSC3v69kYvTOoocR1fBmzj6+0lFQVXAeBY/x/ooeiLHfh6Muds5e0O0M8cpBa4/vvLSqk6O40FKXlHodpUodOtJanRjJLwVOabQ8iqLsbGn8ioSIAESIAFvCVDkeEswDe5PDyIHOIPFvYfhK7tkAUGFm2Hmot42kWIfbKsXRC1tVkYOPYPe86RK8RexalikQ6YqLbQpD+JxO15dYCZHrrzIlUO/SKm1Hamv0bPao4SOxcjbzYz2UtCzZjm6wfgi8cCSxvvQccEeh64o0xtLf3Qca0k83/1FPKLJ5gZ2ffgpDsfKcTCmvFXw+htPIL8m9pP4fNk3uKzImGUVCMnxOzGi/Twc08iMpu50EAo+8iJGz2yGQzMmYc2eq3ZxYZYYrv5lt6uKhSpFwt1dM/DmrN22++QMZ44ix8hrbFTk3D68BoPGbMJ1hRuW3nuwf3kfVb0f75MOXMeqgb2w5bT6HdHP7mZk5K6v8VrkGKjDJfXC3iVWFq6u33/XozB6+GG0JZM5VmtIZDeVxdjo3byOBEiABEjAOwIUOd7xS5O704fIkQLZN6D30A9VmzfJh75cyymY2aWSmcW9v1eg66jPbSfg+purRDx4kB05zOLEs7ol7sJ3dUoeaJHjC0vOqtfPocvYbbhjg2NCaNFa6DFmOJqkxh5pixx3abp3vSwQtDfh1tayBYWh2lMd0KVTYwQf3ojp8z7DmduyW5nlOjmGK/n0epXIgSgm2XvJFDQLj8Onkwbg/T9u2zoqCwjP1ptS5CQcW49Bk79SWXosD3qAu7fiHaxT5VrOFO9IOTto9ix8Y5W4e+wDDBq90VYHSkqu8WbUHLxeKad7k+bG1e6LHBNC8uRBzpACqNKgBVq3bYKIvK7jkOyTm4Q3GIKVIxu70VP3L3XneyFbUC6E5SuCMjWfwGuvtUDVEqHuP5B3kAAJkAAJ+IQARY5PMLIRmcBlvNe/L744a92YGokx8GzT6S719C5yjI7HmbvauhHlsWvXUUjRTnmKV0SVcqUQnsfRlcedjZvRfjm7TikQTm8cgYHrj6guDw4rj+c7vY22T1ZArsSjWDnuHfz3WIxGmmgTCtXqjnfHWWK4lJnynPfTJCw/6zG0mbTp9Gy9qS05joUe9Z+vLV5SEn/AqDazbPV+sudrihki9XQZHxSKvB93Er/+cBR3chZDrQY1USSn/ywdvlgfxtpIxOZx7bD6j4TUy5VzaqwFXkUCJEACJJB1CFDkZJ25TrORXt02AT2X7k/doBrZiHi26XR3QFlB5GyY3NwQlkCKHNkyKbmk1cdrXTvi+WpFFQUSRRa1VUMwacsZh9TlJRr0x7QRTRRJKgyKDVNVjP5oMuqbA78d11uhai/jtYZFFez0Xe4sF+kUldWgn/PhVpg/rz2K2LkC3v7pXXSZ9p0tG2HF1+ZgWkd1WnZDk5llLjqE6Z0i8WNMqtukak6zDAQOlARIgARIwCABihyDoHiZcQIpiXsxuVMU9sZZNiN5RPa0NSJ7WpBu9rQ4/L1rN86kXm/8Se5dacpdGo0aV7Blg7O/23HjX1G4Pg1CDTdO1u2TBADGY3KyB+dG7pzZHQZlH4dkLIW0czZ3f1yAHkvkGj3ukXR1taPLltoKchQfzPoV5d9ohTq67jyx2DqxP5bvSy1lKmI26neMwvCXIxzW0cn/TsDoZeqkBOoeql0qtUSOJ9nVtCxS9mRyFKiPUbNHoHZB+3lNxI5pXbDgp1jzLdlCqmLE8sloEOZ5VjVXs5LR/25vtctZvj1WTm+l+z5n9PGy/yRAAiRAAt4RoMjxjh/v1iFw/KMRGP7BEctJfAYpgudexjHtgRutqSHdbX+tLxIPGLXk+Hfh2td+cSczmdwza42mb2PL4O1JY/FCGcdCqdar407/ik3bvsFZhyKh+VGz5et2lqILDokuIpqPx6R2ZRVYjmBd9Cc4nSxnT3is5Uj8p7rs+nfv77UY+M4ORfyT5fZ8xcqheNHiqNu0OZrUVNbnkZtPituOYZ0W4WRqAga9uffvPGWs1mN3RKuSamTEoqkZizh7SwIkQAIZmwBFTsaev3Tbe2mDOq/PcFvGtIzgiiOlNr4eo6zCEowCRfL7tYiiNxNo319/F0U03tcE3LwaoygKK5KNi2DsMA/iQpIT7iDeFIrcBrLnGe9f4K88/sFQDP3ouLkjrmvDBL6/6aEHN4/vxs/Hb6V2JRSVnmiMCFq+0sPUsA8kQAIkkC4JUOSky2nJHJ2K+3MpeopMX1J+K18GVWcOOhxF1iVwFLM6j8KuG1KO6Vx4qv8iDHy6YNbFwZGTAAmQAAmQgB8IUOT4ASqbJAESIAESIAESIAESIAESCBwBipzAseeTSYAESIAESIAESIAESIAE/ECAIscPUNkkCZAACZAACZAAITYGYwAAIABJREFUCZAACZBA4AhQ5ASOPZ9MAiRAAiRAAiRAAiRAAiTgBwIUOX6AyiZJgARIgARIgARIgARIgAQCR4AiJ3Ds+WQSIAESIAESIAESIAESIAE/EKDI8QNUNkkCJEACJEACJEACJEACJBA4AhQ5gWPPJ5MACZAACZAACZAACZAACfiBAEWOH6CySRIgARIgARIgARIgARIggcARoMgJHHs+mQRIgARIgARIgARIgARIwA8EKHL8AJVNkgAJkAAJkAAJkAAJkAAJBI4ARU7g2PPJJEACJEACJEACJEACJEACfiBAkeMHqGySBEiABEiABEiABEiABEggcAQocgLHnk8mARIgARIgARIgARIgARLwAwGKHD9AZZMkQAIkQAIkQAIkQAIkQAKBI0CREzj2fDIJkAAJkAAJkAAJkAAJkIAfCFDk+AEqmyQBEiABEiABEiABEiABEggcAYqcwLHnk0mABEiABEiABEiABEiABPxAgCLHD1DZJAmQAAmQAAmQAAmQAAmQQOAIUOQEjj2fTAIkQAIkQAIkQAIkQAIk4AcCFDl+gMomSYAESIAESIAESIAESIAEAkeAIidw7PlkEiABEiABEiABEiABEiABPxCgyPEDVDZJAiRAAiRAAiRAAiRAAiQQOAIUOYFjzyeTAAmQAAmQAAmQAAmQAAn4gQBFjh+gskkSIAESIAESIAESIAESIIHAEaDICRx7PpkESIAESIAESIAESIAESMAPBChy/ACVTZIACZAACZAACZAACZAACQSOAEVO4NjzySRAAiRAAiRAAiRAAiRAAn4gQJHjB6hskgRIgARIgARIgARIgARIIHAEKHICx55PJgESIAESIAESIAESIAES8AMBihw/QGWTJEACJEACJEACJEACJEACgSNAkRM49nwyCZAACZAACZAACZAACZCAHwhQ5PgBKpskARIgARIgARIgARIgARIIHAGKnMCx55NJgARIgARIgARIgARIgAT8QIAixw9Q2SQJkAAJkAAJkAAJkAAJkEDgCFDkBI49n0wCJEACJEACJEACJEACJOAHAhQ5foDKJkmABEiABEiABEiABEiABAJHgCIncOz5ZBIgARIgARIgARIgARIgAT8QoMjxA1Q2SQIkQAIkQAIkQAIkQAIkEDgCFDmBY88nkwAJkAAJkAAJkAAJkAAJ+IEARY4foLJJEiABEiABEiABEiABEiCBwBGgyAkcez6ZBEiABEiABEiABEiABEjADwQocvwAlU2SAAmQAAmQAAmQAAmQAAkEjgBFTuDY88kkQAIkQAIkQAIkQAIkQAJ+IECR4weobJIESIAESIAESIAESIAESCBwBChyAseeTyYBEiABEiABEiABEiABEvADAYocP0BlkyRAAiRAAiRAAiRAAiRAAoEjQJETOPZ8MgmQAAmQAAmQAAmQAAmQgB8IUOT4AWpWbfJ+3Ens3puAxo0rIShbtqyKgePOlASOYF30JzidXADPdOuJBsWy644y8dpuLF72HeIK/h+693oa4V6/C2ewecWPCK/VADUqRSAspz/frTP46oO9KFDjKdSsVADBBvp+7vuN+CWpLBrUqoRS+XN5MfvXsePDHUh++DHUqV4e4XlyeNFW2t167vv3sGbXFQSFN/B4vvd+MhV77tVFo6YNULVEqEedt667mJQyeGNMW5Q1+XOdeNRF3kQCJEACaUqAIidNcfvzYQm4efUKTh3eh5j8T+HpGvndflh8zDXcvHwKJ1PKoVHlcNX95/Z/jYOXk2DKXRqNGldAbrvNz6FPxyBq/UHcTSmKDtMXoVW5IJfPP/LRaER/cV5cVxWD1wxHzSzwo5ySeAfXLpzAnz/9iOuPvoF2DQu45JRVLkgSInnXrqOI9+mAi6Bu89oorLNZT4rZhQkD1qLYW5PRo0kxJ+L8B4x8ZRYOJ4fjzZlL0drJ+r5/ah16DPoYtwo3x5xlPVDKy3V978+l6DJ2G+4ILiWeisTigXV9SkjZ2L2/V6DrqM9xW/xjeIMhWDmysYtnXceqgb2w5fQDwFQeg1ZPQ5N8Jo/6l5L4LYa/PhfHklPQsMcGjHjBcbN/P+4f3LyT5Hb7ufIV0RWHV/etxdSlp/D6O2PRsKC+eH1w+QxOZw9H6cJ5VOvkr1X9ELnlHII8nu9DmN4pEj/GJKNq6wWIfrOU2+OTbrCuuxvi+3TM5ijU83LdedQJ3kQCJEAC6YgARU46mgxnXZF+3P85fwIHTt8wX5YUcwYHTv6L2MvHcSX2Hu7EJSA5tYGc5dtj5fRWZiGi3hTcxLF9p3A7BYi7fARHL90x33/19n3cvRWPxNT7tX6st05sg+X77un+kMeJjVhPsRGTNkeh4vlLxfPDXJwCWzcHksjJfD/Kibh9/V9cu3gEf/99CPsPH8PpU5cQo5in3BU74b2przgIxgyyJH3eTXmT5sumna2tU1jUawS+vnRfPDAXqr02CuM6VNexXgRO5Py8oBum7rgm+hiGVlEr0aGa/ywcvy3pgagvrxh+VlLcVxjSfglOp6TA2/Uc/+s8dJzyP9xHKXRfMhcvFncUHPJ3hjtrxISn+n+EgU8HO9x079B7eHv0F4gTfwkp1hzT5vdARLC2BWT/8j6YsPUCsgXVxviPx9oOZbwVOQ8ufYy+vdfhSkohlwLa6W9EqrimyHFnbfBaEiCBzEyAIieDzK47P+7Zgx/D0NUT0DD3j6mnz0LVuPVx3Ey5EjlCNmHrxF5CCN2Stgto1GcJhjYr6PSpmUnk3D+7HfPe34Mrl445iE4tCDly5UWxiJcwOLo1SvPE1YxIFjkmhOTJgxDPDALmtlIexON2vLAuuBDQ8Re2IXL4Mpy4I70jJhSq9TZmjH4RBXPcF5bRGLHhtn72YHrPFTgh3NVajo7Gi4+mbsBNoQgvlAvx//yLu6mnDA/ObcGYqG2IC38SY6e0Q3GF2A/KXdAtN6yUxD2Y0P4dHIhPRvZ8TTFjdX+U8dt6kS0KwSVfxsKFb6GIi4OKq1vHo/vyA2Z29bqswJiWzt95Z18IRsSCO9+D8rOciYdE7F81BJO2nDEfEkU0j8LMHlU1LHqyxUp5iCQ9w0i/nY379MYRGLj+iOYB0s3ju/Hzcek7Vf0p9dhzyHdipdlNzvpJib+Ivw5dFms2DOXqlEc+u3tKPt4FXZqWdOuXgBeTAAmQQEYmQJGTQWbP9uNuCkaePDlRoFg5FA3LhjzFK6JCidwIf7QmHg0X/14kv+Ik2nr6LIscaXOdK0c2ZMtRAI9GFEZIrmKoXLkkcon/rST9b0gYimj41bsWOcCDS5swoN9aXExMgSm0PiauGYnqwfo7VW9FjnwCapnEh56dgIV9axqaUXesBmZBUqo66j/3Cto8XVbnpF/eIGp1IHu+amjdpqlgXRVlHiqM3GIO5M8FrBoWiZ1X3HXDMerml4gd07pgwU+xlke66VbkLqvcBYqjRu1n8XKbJojI63h6rjdB8nO8O9GW2r/z7VS0m/Oz+H+urYRJMb9iyuAZ+P1fSRQB+SJexrh3ymB5u9nCPc35AYHF6vkcPus1FDuuWG2h+kuwdIupeLdbJfMFsrum/vUpyQk2K222oFzIG+q9FSe0emcsHdbU4aG3f3oXXaZ9JzbJRgXLZbzXvy++OJuIbCF1MH7dGNR08r47fzFlEWFxyatptoRKwtFdYWh9jrwGKmHExiloqKOaUxJPYGH/Udhx0WLRe6r/ImH1UYu1xGub0a/7alwSy8Hepcw7kSMz1Pr+0hN1jfp8jOcuDjG7yRn9KNee0Xt4HQmQAAlkZAIUORlk9jz7IZVFjvSjOLSZ8Q2nPRYjIgfC4e3nBX2Ea43ldNHVj6q3Iuf4B0Mx9KPjtq66s9FyZ+OuZJGr5NPilL4vqhV0FG9S8PCumDJCdJZA2VplUSx/EXw/ra3ZzS+0ek9smNxcZ7WdwYIeQwxtktUNuN7AS9crrQHW+yu+NgfTOkYYWv2eshIBXKj6Qn+M6Frfpeui1JFAiRzp2UkxBzB7VDR2S65rpqJ4bdyrOD/nAxyxiZwHqS6daitTUOFmiJ7VBF8PH2sTqTZhknogoVwpEc3HY1K7smbunlklDE2Z04vktRiHv3ftxpk4iwnq8PbV2HU6Qfy/Ynj27f+gdJC921YoKj3RGBFhlhEpDxmy53sENcsVdtm5nOVfwrA2NRyuk0VECJ4fvg69Hr9keydcfY/oPdTKN1tIfUz+cBSqObGA3T22Dv1Hfozr4pzBFFoNwxZOVMXnWK0tQFG0mTwBTxeVXemOfjwRs3ZcFIkHHC136r4F2x1CqRnaj0MS0OOHV8GFE5ITsHiPk45hy4pvcS3F4n7Xu/4tVXyS1YIYg4rovWQQaqSO19o/Tzm6nFReQAIkQALplABFTjqdGPtuZQyRIzaLcbsQ2XU2/o4XR56msui/fDqeDtcO5vVO5BzFrM6jsOtGErIHBYmNfKJwNzF6Aq3cUEOcQhdBlWoPI6fGWki+fQXHL15XxTy58t1XNmMVh0ZFjpHN4u0Lh3D0ihSeb0zkXN02AT2X7hd8ghAUlAiByi3XJ6XIccYq5f6/OHPmKmJv3bXFd0ksCgqBN3fS8y6FjvycEJQUFq/ioZ5nh0q6cQr7T0nxa8YYSf1MTjiKBUPmoVDP6WhXNbfdarAeGDykGy9ivcFo4gFrVi69ryB5DCLOrWglVC5l3yfPvrxkoeGuuFZb2OT4HeP90HsPrCJCFiRnvRY5O2d2xNwfYg0mBFC7reWr2hULolqkrlnZ2mJ8pFpXOq5FZwztYyOthzp6bot6iQes37MUOd7NHu8mARLIeAQocjLInGUUkSPhVFpYCosMTUtGNNLMWuWNyJGDlIFKLVri/lef46RwkzMaS6DcuBvJihR3+nOMH7PSFrtRtfVskQXJtSXEXZHjXAxZFqt73GQ3IGkD+dKTp/H5dimIPQTPDlmNvo1dp6t1l1Vywllsmf0O1v9yOVXsmFC2xSRM66oV6yC/gB5bjJy+w8ZFjvOvAqvIqeIyScbdXTPw5qzdyF6sBeYt6YoSBtIwOz47DhtHd8X6Q5KYLYEuC+ajZSnXGQvd+zrzXOQoDzOyB+dG7pz6WcmEvcKW2ER7fcsiQv673DfPNueJ2DyuHVb/keDCiioTs7qtfRv7ENqNisJrqUJXmXHOPb72V6vXoswwG2q9MR09nwpT32CO97JkcpOtsTlEvOMC9KiZYosBs97kypLzcNMRiGxbxmP3P+/GzrtJgARIIO0JUOSkPXOPnpiRRE5K4l5M7hSFvSJlUYEy/8GYyZ1QLreje9e26DewdM9dwcPdjagyxkQ6XZ6FpBXd8OFhyafeWAYqdzfu0qTJFhERJ2AwXWygRY7SpSiPsKgsff0cuqemIzaaDcsTVpLrojKgG3AdZxNoS47yxbQP+E769zds+GSfSONcEs93fxGP2IRLEdRqVACHf5BTX98/vgOrdp5C8EON0PnFynbvu9rlS+/LQJmtML+Yt0XCEmaftt1yr+xylqNYNTxby530w7KQcCau5dgWeQ7lgwwjYll2m31UBPbP7VlNNWzlGtUTOVFlP0uNsfLo61N1k7Oxxov07v+El0apXNbvK/m7Rs8d1rPvZvmwwp34RXdjwLRoeSYavefOFkiABEggrQlQ5KQ1cQ+fZ/0hNeWtgtffeAL5dT15lHVB0jomRx7cqW9WYW+e5nilflHd2iNWAQBTDYz9dALqGMwalRS3HcM6LTJbbkx5G2Pa2sHI998JqVmehHtUvYF4b3QTpwVJPdm4K+t42AszqcbQrQTHIPVv5vfFxr/uI1eldpg7qInD7GczJ3q4anPN8bUlR+kOU7vTSox79YqtJodRC4EnrCwDjRWn6X3EabolpsCVqErrmBwpDmPI9PN4a8pg1C8Sopob4/EyVTFkVgWsGvIpLMndXX1ciz3gsqg9M0DUnpHiY1xdb0yoaPfK2L32Iuf1iH22jG/GLKfy95DWBlu5RgMtcuw5JcV8iSFvL8Vp8V2jl9jEE5GjtIS5io+Trw1Otb7e0ExUIiepCEJoWKhwTrV8ku7dwZ37wq031eKmjAtztVr5dxIgARLIyAQocjLI7Lmz6ZJrzgRO5BjBaiyZgWNLSouKtTiiUvjAVBWjP5qM+k4yPXm2cVdmq1Nbn2yCzcjAFddYNnWV/CRy5LgloCwGrJ2BpqJQo3JTaeRU1zNWlkGqXH1cZHVLS5GTHP8LJnadhgMi6D5bUHG8MnIyOtWVA+ftLTkHv1yBH88lolC1l/Faw6KKGVRbcuTgcMsl2XJE4KXOzUQaaestri05l7ZHYcDC38zpq525e1paNCZUtJelsXvtRU6l3YNSs3rlEkkCVokkAbmcrnrl4YD9erNPiqEncmZ1LIHrMfdsz9m/bS0uFaiDuhUjUKSA8+fbd85ysGDknkTsnNlNxPVI8lXfZdATkXNj92z0mvE97iEPStesCK0apI+1HIn/VM9he19zPtwK8+e1103rzZgcN798eTkJkECmJ0CRk0Gm2D6FtL3zl3yKp9x8p2eRI8eKGHX9skyVMghY6ZqmjGFwnYDAk427Mo2sfZ/To8iRUwKrrShK4WGk9oonrOTXShn3oV+UUbo+revkXN231FzPRsqo5awYqPI0P0eB+hg2fYiD5cc63uMfjcDwD44gRaRUfrLmUXz3yx2RcthY/JbURlLcjxjfYyb+kjKeuUjcEQiR8/rQZvhpzgZzmnijRX+V68de5NhnSDQWkyOna7cecrj/NX4E66I/wWmHFOEF8Uy3nmhQTIoxSsDRnWuwbM0O3CjfW9c67InIsbhzDhcutiKV+NGTmt2XMmIOqve/VEtSTpeCkiLH/VXAO0iABDI3AYqcDDK/rn5ItX/gHOvkGB+utqXCPUHi7GknMLfbcOy8lmQ4MFi9EXbMEHbr23fQac4v5qJ+rtxo3N+4K9NjmwxtXJUiw2h2Nd+5qyWK4qwdRPpqKebJXvQphYfrmAr3Wann3ZrlSvpXZ5ajQCQe0C8GajW9xAqO/QXHGNugsgWF47m+0ejWpJjKJVJOQ2xZH2Nr7kTXUZ/jtkhJ3W7KPLSppJW/T8lKaTkwoVzLKZjZxVJTR/9jzBqjfb+xe5WWnHZTZ6PK6WWYtfIImr+zFK3LJSEuziRqd+nX79ETOXLsXmoVVdFJIyJHTjpiLP5Oe+x6341a7oEJuHcvGDlzavsIu/pudjZ79w5txoxNB3HtxD6ci0lWZdF7rOUwFN41wJySX0tQWu+1tq9XDNSajdGI1db47wOvJAESIIH0T4AiJ/3PkbmHrn5IM57IkTcZ7pzGOnO1Uru+ON8AGd24pyTewTURjPy/dQvw8W/XzALKWApppWVJuXnTWnDGNpvWO41kV3Plvqc8QTceK2M84YJylEpXS2ciTp6TvKj7alvUKqxfSNbVa2sN/jeS1EJZDFQ9t7H4YcFYzN5xVsx7Ljw3dAZK7BqHNXtumNNxl28xDtFdq5uLw17dtxzjpnyBKw9SxPpogVmLu6KU6Q62RfcVyTVuitor5dFrahSaPaKO/VGO4/LOdzBw7i/ChcnoGpPudm/tqLkZu1cr8UBK4gORivwU1oyJwn8vPeJQV0b5HD2RY7V6JZtK4ZESl3D2gvLAQy+7miIRQI5wVHosAq7zA8q9sbqAAb8iutNCWx2klAfxuB0vFYO1ipwrhgv0WmNeoFEXSWudasXEWC3BaiGil/3O0scXL8x0KxkDRY6rbw3+nQRIILMRoMjJIDPqrcip12EhujZSn7bG/7QEA1bvEwQKouXoaLz4qDINrLpwnafxM3p4lRsf+wrieveoRYy2j7zSauAsAYFnVgMTClZ5E1MmvobiOZzXcFFmjJLGk9aWHKWI0eKgdL1zlYDAqCDUm7fYHdHouGCP+c/OOCRe243Fy75DTEoBhcuQZy+ofMpdFm+MaYuyLpJaSDVyls3ahWcGvY2yIrOW9N8rI6fgv8dizPWX5BTY9/H78uGI3npG/HtuPDtgIqqcWY4lnx0xixPJnW3U7BGonRpkYU1LvOOiVGQ0Pxq/HYl+L5Y1CyPlJylG1Jfq8y7+NhfmzIsWke+hW10pbiQBN6/GmONztD8XsDZSFDEVFlG95BbyffbFKD0XOVKbRkWZ1ruuDLyX4o5eTFiA1fuU6Z61RY79e+Xu6tAriuwo5C54WKDXdY+0xIYnIqfVw3dUcUquUkhT5LieG15BAiSQuQhQ5GSQ+fRW5Gj9uGud0Orh8LXIubp1fGo2NGuF82CXM6F0/9JzR7v351J0SU2RDCeB7p6JnCAUfKQ+XuvRBS2qFHLSX6Vrm+Wy0Cqt0TpkJ3aHd8P4PvXtCmMa22xaH+jakqOMW9JzR4vDhpGdU9NuQzdzlPRMb0WOvM5ciT2XSyANLojFgU1LMfeDH3FDOtgXFpzqbSIx/o0qCte0RBxYMxHfl+iHvnWP2MRJrpJPixifvqhWUG2BkgTMhH5z8ectUYVVfMIqd8aCKS2RL1XoqISQ+Qqly5Q3Lqf2uOxTtcvrTjvdteV+2Spm78ol4kqWD8KErefM15V8KhLzBtRxyGqoXD/W76F/tk9Gt4W/Izk17ujugnbCJfCeC3c12Z3PsSjtTRz9/SSkPH7hj9ZGRCHtQwjZkqNm4/hdeA9/79qNM2bRqfzcwK4PP8Xh2GSHJBRymnHnlsj8ZR9Hw/L5VK1qixz7+bPOV36zJad1OXXdJL2YnDR4afgIEiABEkiXBChy0uW0OHYqs4kc2eIiZ/1yPhVq9y99648yoxigl55VufFy3DApe3If186cxbXYWNwzb3qlTxAqtJyIKZ2VG1/5HjlQPRghIQlIkDIBm0wwJSebrQKFar2NGaNfREGbNci3IkeZWECuIO+46VNmqdOrAWLe5J5ahx6DPjanSPYkJstazV5qS2nJ8TRZg7evrPMTbbm+T4pO7I398y/vnI8VJ+uif1d78SpfabMMnQhBW1V8jmPMTyBEjjGmjvEqaoGWSxSqnIehzYqomtMSORar7DTcaRZljjtyrCflaMm5e2wN+gzbZF6HjnPoXZIV4wc++kVK3csOaES82vP+CWNaTcfBBw+h+5K5eLG4ugArRY6xVcyrSIAEsg4BipwMMtc2kRP+JMZOaSdS0qo3rbKrgnxaK7skFUTbqe/hjUrqkz/jP+ywbUI82eQ6It6LSW1FsdD4ZASLtKhLRFrUcBdV4ZPivsKQ9ktwOkWqReNcGCnjdvSyh7m7cZdic34TaalnbTxsdkuSTvif6r8IA58uaDc82YojPfvJiN3YeeC+2Ny/gd5Ff0qN7wDyV+yAqVFWtzffipyfF3QTwcrXzP1yFu+kittxSE4gD8tdVvbzrYzJCavVB++Pb2a+JH2KHKlnsfh23VYUaPY6ahQ5oIrd8OzrohBaT5qBlyKScPnyHRQvbl0zdgVTbUJYublNG3e1bEG5kDdUO3mAY7yK+nvkwaVNGNBvrTnjGjSSLGiJHInjb599ikLNX0VEcDaXImd25xxY2H8UJLc/reKZyu8HPZc0Z3Nn/LswkCLHKoyqYMzm57Dptdk47JAdTn+UdFfz7O3lXSRAAhmXAEVOBpk7T+rkuDpZNP7D7o7IScDJg2dRrEo5nQrtgNLtzOgPr32qWePTpu2u5dnGXe2eo+Uyd//UBvQe+qFIS2zJsPV/J0Yq3HAaYsfM4Vj0wxVzAoN8Ea0wcXp7sck767M6OfZ1R4xz0s9I5xkr+clKMVOu5Uxxcl/O/Ee9Aqqu+uw8lszV3cIalbsgwu2ygd0/twGDIn9GxZc6olXz6iiex+o+aeTE3dUztQt6KmNaJHHwavd6+G7JVmGpcFUAVPk89wSyuqfG7jXyPXFx6zj0Xf6HeV0HFW6GmYt6m8WL9FG6kOoJENeWnHK4uGc1Jk3fhpLtloiitq6tRa5mRfl3I2O0XK9f2NT59+0VnDoeiofL5tUsUqzlrvbg8q9YOHcJTj3UH/P61rRZVG+FN8Os5bWxvvMiW+IEqWd6xUCt42QRUHdWBK8lARLIDAQocjLILFpP5/VOXLXq5NzdNQNvztotNh7alg/jP+zGRE7C9R8xa/Rc7E1pijnLeojsUlp+8Uq3M6ObObULmrtTlkcU3Fwz6XnV5sLTjbs6YN+ea6yIc+ku4lzu2U6bz77zhl2sgdI9yYRSzcZiQZ+CPhM5Shc0dzmp3aTkuz1lZWlBrmkicoaJWh/rRPFIZ/FXcfh66XxcKdkMzZpUU4gNuT/urFujDJTJEWp3Wik20eGpt1o3tQU0knM4b122rjqu8wcXP0G//u/jsjlMx+Lm1b/s9lS3QKPvhXSvMaGi3VNj9xrjLa996VmFnxiO5cMeNz9WGZPlqcixFgNNvncPD3LmFCtJ/ZFZayVRsbvYFIrwQnlU3wfGxqgUbI41n5yLHMs6OhZUGC2GzkSX+q5jcqxup3eFRXjG6v4o9v00cza1nOXbY+X0Vg6HSHRXM/q28zoSIIGsQoAiJ4PMtPWkL1xkIlo5srFDr7V+4A6vHYiRn56GXlyG0R926WHOEg+kJP6LH9bOwOIvDuOuKKwYZD5p7I1HNUROnEgM0FMkBpAChE25G2DS6uGoFuw8VbAyxkTKUFWhVlmRf8r5J+nGKew/JXnvSw8qj0Grp6FJPvk5nm/clSf76s2oXKnehNqdlppPmx1PqMWJq+C1JXowPk9si7lCfIVl85UlRx23lLdkVVQo7qo2yz2cPXgI1+9JboDaCQg8ZyU2hX+vsNSKEW07i/uxzqbShe6hZydgoTjBtv+4s26Nvt6yi18pu3gH63yHawZ7O2vf+abXGkQfb0tskHx6fQYWOYDFbW0d7j7yHIZEdrMlYJDnS9ttVvn9olcnJ6rsZ26lS3Y2L1out8bWlJy+Wstl1tl8y4cj2gVxnWdXy45nh6xG7T+lmjnX8GjtV4VcAAAgAElEQVTzKMztWc3Qb4DR9c/rSIAESCAzEqDIyRCzeh2rBvbCltMPdIspSjEj//wbJ6w21jSxSdg8rh1W/5GgG/di7IfdAkhb5CQKF5IPMH3eZzhz25I5Sio8WaBMa0ye2dbBkiMFKc/rIwqAXjGXmDd/ZJctvZTMyo0FoGWV0ZpCdbyJYwICTzfuepacpJidGNVzHo7Gp6iC87VEjtRfqc5IUvag1NNkYyfq1nHqZVdTp9c1bg1QxjBpCRFPWUmxLVbLltR3Zym9rWOTLVH6dY7kdRuCkpWronio83Te1rb1MmsBF7C49wB8dTERpryNMW3tYJS3CXR/iRxpDezFhx/nxOttK5vXgSv30v9n77wDoyjzN/6whIRAaCEgRUQUEA7wACkqiiiKoCgqKIgigkBEuvTee5EqRIrAD6wnNg5FTjwRLHgUC9KlSI9iAoEQ2JDfO7vZzMzuzM7M7mx2A8/+cyeZeeedz/vOzPu836b9qrI2d9RtmDvXynvi+KFDKHXzzaoU2WbON3JXiwSRo3Qv1Kot5W/8jMZWL7uap5ZQVPlGuMPxA777I7/LGtqu9FZ8t/+cajjl7G7l0bzbo6joFefoKHwL7m18m64bcZ74FLKTJEACJGCBAEWOBVjhO1R2+TEbVKuMzdALPjez+PDcs7fIKXfuJyRNnIUN+1JdfvjST6oE36TLSPRsfrOG37k6rbJDBFlfFdnGXIvf27tg5qiWimxjMml1jIleOmStkVGLI+8EBIEt3NUxOfKOcDo+GNkZK39OFx0piifGvIFOdaQaJ7I4zI06Ocq4Jb0U21qk1OLIgQadl2J4KzmhQsCs3uyPcR9J9WTETxR87Dp3NlpWUAetq/sjp77213+l+5OVZ1Lv2VEGrftaSj0iJx9i4uIQY6E+qexCak5wGi2E84LI0eqjmfeMkch5rWt1P0OtdmctKJKZzBPJTEobJDNRNui/j04c2zQfw2Z/hVRpf0bET3WY9jra6KZw9rVYye6Q3mm83b3wFjlZzuM4dqYMbhSJL8Z3FElaPKmsHTUxTCRAKbS6D0Z85E7dbfZnT9IYs1fjcSRAAiQQfgIUOeEfA8MeyIuwEppZ0rQakIP79eMgzCw+PG3LIucBdH/yMla/uTm7joh0RBTK138BQ/s/hgqikKLvT51FylGoFgbM6YAdY0a4siVJv3gRN+N23VLvyitjTPQypekBVLm5CS9+yeWjZ2N3fXTrC/cM7F4zCWNW7MzOruZOLDDxuUqu9s6IavU9RLX6YsKdcNHge3NEnp4lR91nczvqnnO0LTnKhZ6vUPE/ydRubt4Cwyqry2kHsXbedKz+/iTc9j0HqrSa5EoV7O93/oe56DLpSxdf7+B15Xl2W3LOfTUZHWd/7xJj6ngc6aqhSzzgzeJaFTnyfNUXe8GIHKWbqMMh0rRfld1FDV+u2QfovQuvZhzBR7MmK+aydppsqRmllbd4tafQ/+WHcYOwMqad/BqvT3sLBy5k6VrVlSJn5gsOLOw/CifumiHeLxXgseZI89NjyT5/YAstOWYHl8eRAAlctwQocvLA0OckEMjexWtoEMMCyItWf3EQ5kWOvAj3xhUVdwta9x2O9vX1imNmYNuyoZj08cHsBa+8SFBXeXeg0v2DMK7PnQqhI7vpSdfVq3mjP4TKopiA0sXEfJ0c4Or5U9h76CQuXJbd7GLKtMTMhV0ULnl7Mbv/OrSY3Ae3KcYnt0ROuhAILwiBIElGM7Ev3syUGe8ka1SbCcvQoZY7pbBZVhKn/ceTcSEtI8e6Jwmccnf1xtTBTXwErLoPh4XL2EDhMuYWvdJPT/ian7fmHm79eBylyLE38YBWz659keMd7yRT8H1O0nKKcWoVz/ScmZG8ASN7LXC5iUoWnMQ6P2DOx39oprLWnw1KC60sxA58OhYj39zuijN0/RyFcV+3GejdvKxmhjTgpHAr7iPciqXCWFo/vbTzsiWn3B33o8i+b7BXuP960q1nOb/CoKfnYJ9IFx1TpgWmzkvMyVynvAoTD5h73nkUCZDA9UOAIicPjLVnEWa2pozSguEvDsLsYlG5w56DS3zwaz7SA/1fvFvTzUw6TnK5eHfscLz789/Zi95Y3JM4C/1ayIuEi/veQr9h7+HUFSnw3YHKLcdhapearkWE2o2qHDrPn4dWft2dfAdTnW1MbkO5cLc2BaSYo8cxYmJHVPayWl25cgUFCqhrjVgVOdb64nF9ycSGqZ0x/9tUtzho0BeLhzXRWYjpXUHt8qNsI1BW+aKK4s52I/FqmyqqGA2tHvwikmSMEkkyrgqLW/U7bsGhbVI9Iq3CqcpsXebcwPwzlQW8bzyOdGboYnK8+xVOkRN9473o9Og/NFFd3r8Bb278XfwtMN5y4V9tVy3pouaeE3X30o+tw4hBb7gsJJ76PM9UOYjpXUdiy9lMkeGwFvrNHonGN3jnYlO2k4pv5o/MqV/len6yrcpFMg/m1OaJSaiHV0YNQpOK/toSGyLC8vPxgrn4dMcZ5NQOlt5scRXRsmNPPNnwBo3n0ncTKSquOhInjUUzcT3v8gHFKj2BUZN93z8UOdbenjyaBEjg2idAkRPxYyzH45irKaPcTfS/KDEncv6Hse0mYrso3On5SR/8xGH90fRWt+uX1u/87neFEHhPkZAgFvU7ThJpVCv5fOQv7luF3kPeF7VlpJZic7JN7Uh6GRM+O+VqXivQ18zQedeN8WTssrJwd6ftLo6KDRrh8YdboW4V7VoXWv0xt3jTt5T5v0f3ovGOixswsOPrOCgVY/Sywphh5DlGVYtIkZHOPKsoFCoq0vOWqYX69zVFiwfronRB46QAyvEvJNLjJk17AgeXD8iJ55GshU92fxXPNLrRJZbMzVtzd64U0tqZC8Mncm79aQbW7VYulbXuSc6Ol79YRdSpUsrwxgtWfQwD29YWx1mdd4GIHIV4dtTGyA/GoJ5G1kVzz4nn1jKw57PZmLT4W3eMTHYK7gHN3LVzlPMpX1RZPDFwNJ5vWEZDXKSq6lbFJSTA+eefLnFdtu6LGD7oMdxwchM+O1EZLRqVNxTqhuB1DlDVSxLHKEWMfC8xqHl/PZzetMX1npSeiad6DUZbhWiiyAl0BHgeCZDAtUqAIifCR9YT63HZ5C6q0n+7uNiRfF3EuRTWCcA1u1jM+QgL683tTw7GyA63637wfX3YpYQEZfHkkPHoWF9/Aab+0Ov7vUf4cPl0z9ziTV5sxlZvjzn9mvi9zb3vj8XMDcfFMfo743mFk9KSJ+28D1wwFnfH5xfdVy9ApfvJH10a1RrWx+1Ru/H2V5JlwURNFE0QngyE+XDovcHou3qP6yjfeBzpXz0iJ9pSJjfpzKz04/hl10nhQmhOHHhbcmLfes5VY8nun1aaZnPX0Kj3c3IPdl8qjhviCvvUnrmacRrr5o7C0s3u4rd69V2ka5t7TjLwx87PsHTBW9hxJtslTMeFTP0+kayv96NLzy645xbPxoyoVzWxL5ZtPevqm9sN7CWkrJbFtZRIpWaT+/FY0wdR+aYEnwKy5phJR2Xg79MpLldS109Vp0cZrxiFyg8NxOgeDV2unVI2ygW9h7riFj3JFLJ2LMWoSWuzLd+igG/Rm1CvcWM0aXQPbi4Zhbj4BBQuoLWx4MT55L9wUbpZjTpB5u+FR5IACZBA3iFAkRPBY6VMuWwmW5bKIuKojN5LpqFpSWnBqP0zK3KkGJ/Ppk9CaovhaFezsGZjkrhZv+x1rNywR/ZhF0fGlm+KIWMSUbu0fzcPEbaLHYpsXNEJD2Pq4u64RbOgaAQPmlfXzC3e7Eg8kHeYeHp6evsSecEmMla1nzQXbasr6/pIWa0WYsz8r5CcIcdDBXun8rN0QaS47iSKt0rLT714kfAlHjBnybFOQ8uS4y/7n7/3xCVR96qzqHt1wbAb+vEo0qn6z4kTqcd+w3/Xf4hP1/+kmgeSS9dL40bikVu13klO/PHFLAxatEX1PioQWxZV6zVBhzYFsUAkIvlDWD/VcS6p2LJsEuZ+vCc7wYjhjVk+wNdiKBUIHoyfag3KsXRL7/5FItbx8z+EyPXK5paZshPLX1uIdTtPZcc5WutCYO6s1q7Bo0mABEggEghQ5ETCKOj04fJRUVzv1ZU4cSVaVERfhAHN5LS+vqccw+Jer2LtUWmH01x2IfMixwiS8truY6Vd0Ps6DUWPRytbcPNw11X5+Nz9mDCzm0/Mi1EvIvHvFDnao3Jp12K8NGytkM/Sz7/lTqoBtefHtfj8o03YduQ0zqcbuXD5nwkei40ydbR2PI7UjkfkxKH+U+1Qt5T5HNJy3ZLALDnPeKUotn9+mxPX/t4TyqB4/f7JLqhSrJ3WT+850YoHlN4t9Vt1Qfdn79KNB/RcI/3Yl5g6Nkm2/Ig/uGNuHsQP017C6ztvUlgP5Z5dOPkD3n3zXfx352Gk2iiwIcoYPzHmTZFiXh27p66bBWwVrrqT150UVib9Z0PKYrjx3Y/xn207cSI5TZUYRX8s9OtP2T+/2CIJkAAJhJcARU54+RteXbLODFyYhdGzjOs+eLKVnbqlm2Y6Zu+L2SdyAM+1d1+KQ637O6DbSw/qpJP2f8uZKX8itXBJw8WLIbgIOcCcyJEzSRUQ8SwP1a3gt/d/79+cnT62NOq3uAOlLNQDiRAsohtObJzRFXO2XMXDr87AK/cax5Io+3457U/8fSEQ645D4dKTgT93f4d/rfkE+4q0wazed2vgCV9MTuhFTjLWL1qMrSLIQ7bu+CK4cvInbNghuUcWQvV7GqNSUaXQO4Wtn23H4RN7sPeErz0noVITNG/VEJWKRPudev4sOTuW9MOYT4+63BUbPZOIDo/dYSrWS75gBo58uwZJKz7C3nPVMDhpNBqIe7hy4ntsPVcbjaoprYe+3UxPOYNzGWexb/vvOC+FvQXxy1+8Ku6/61YTGz+pophzb2yuMCAnEYv5y3q5x2WfGFU4PgiXO/NX55EkQAIkECkEKHIiZSRs6kdGcjIyRACtd70Zm5r320xG8nGkFilncQGSGz0L3zWO7liPX09mwox4CV8vw3NlKfve4ZMJqFTByJUxPP1zX9WzYFSKo3D259q8tltIZIn050VRuri7kK7nJ82T/ftjcXO1EibEwbXD52rGJTijY66re752Ro93QgIkEAkEKHIiYRTYBxIgARIgARIgARIgARIgAdsIUOTYhpINkQAJkAAJkAAJkAAJkAAJRAIBipxIGAX2gQRIgARIgARIgARIgARIwDYCFDm2oWRDJEACJEACJEACJEACJEACkUCAIicSRoF9IAESIAESIAESIAESIAESsI0ARY5tKNkQCZAACZAACZAACZAACZBAJBCgyImEUWAfSIAESIAESIAESIAESIAEbCNAkWMbSjZEAiRAAiRAAiRAAiRAAiQQCQQociJhFNgHEiABEiABEiABEiABEiAB2whQ5NiGkg2RAAmQAAmQAAmQAAmQAAlEAgGKnEgYBfaBBEiABEiABEiABEiABEjANgIUObahZEMkQAIkQAIkQAIkQAIkQAKRQIAiJxJGgX0gARIgARIgARIgARIgARKwjQBFjm0o2RAJkAAJkAAJkAAJkAAJkEAkEKDIiYRRYB9IgARIgARIgARIgARIgARsI0CRYxtKNkQCJEACJEACJEACJEACJBAJBChyImEU2AcSIAESIAESIAESIAESIAHbCFDk2IaSDZEACZAACZAACZAACZAACUQCAYqcSBgF9oEESIAESIAESIAESIAESMA2AhQ5tqFkQyRAAiRAAiRAAiRAAiRAApFAgCInEkaBfSABEiABEiABEiABEiABErCNAEWObSjZEAmQAAmQAAmQAAmQAAmQQCQQoMiJhFFgH0iABEiABEiABEiABEiABGwjQJFjG0o2RAIkQAIkQAIkQAIkQAIkEAkEKHIiYRTYBxIgARIgARIgARIgARIgAdsIUOTYhpINkQAJkAAJkAAJkAAJkAAJRAIBipxIGAX2gQRIgARIgARIgARIgARIwDYCFDm2oWRDJEACJEACJEACJEACJEACkUCAIicSRoF9IAESIAESIAESIAESIAESsI0ARY5tKNkQCZAACZAACZAACZAACZBAJBCgyImEUWAfSIAESIAESIAESIAESIAEbCNAkWMbSjZEAiRAAiRAAiRAAiRAAiQQCQQociJhFNgHEiABEiABEiABEiABEiAB2whQ5NiGkg2RAAmQAAmQAAmQAAmQAAlEAgGKnEgYBfaBBEiABEiABEiABEiABEjANgIUObahZEMkQAIkQAIkQAIkQAIkQAKRQIAiJxJGgX0gARIgARIgARIgARIgARKwjQBFjm0o2RAJkAAJkAAJkAAJkAAJkEAkEKDIiYRRYB9IgARIgARIgARIgARIgARsI0CRYxtKNkQCJEACJEACJEACJEACJBAJBChyImEU2AcSIAESIAESIAESIAESIAHbCFDk2IaSDZEACZAACZAACZAACZAACUQCAYqcSBgF9oEESIAESIAESIAESIAESMA2AhQ5tqFkQyRAAiRAAiRAAiRAAiRAApFAgCInEkaBfSABEiABEiABEiABEiABErCNAEWObSjZEAmQAAmQAAmQAAmQAAmQQCQQoMiJhFFgH0iABEiABEiABEiABEiABGwjQJFjG0o2RAIkQAIkQAIkQAIkQAIkEAkEKHIiYRTYBxIgARIggVwk4ETK/s34LfNO3F2tYMive/Tr9/BTkYZ4oNZNKFwgn8H1nDif/BcuXgXyxRRF6eKxIe9fqC7gPLMZ729IxS116qFmldIm7j1UPbHSbjLWL1qMrcmZKN+oMzo/UN7KydnH7sGqiRsQfVcjNLm7DkoXNBpz7Usc/XoxVmw6hYJVH8PAtrUD6AdPIYHrmwBFzvU9/rx7EiABEsh1AlczUnH65GHs2n4C5R98GNWLOiz2IQN/n07B8d93I+a2xqgSrzz/FLZ+th1/ZgHFKzfC3VWLebV9GP83cDTW7EtBgTItMXNhF1RwGC1Cj+HNgSOw8VQmCt3eCUkDH7DQ32S82bc7Pjp0Bfmi/4lhy8egQWF/93sY8xP7Y8Mpp7jWy3h7fAsL11If+rcQct/tPxfw+VonFihTCw/VrWCqzdQNE/HC/K3i2OoY/N4k3B3jfd+yoDPVYM5B0ShRujii82mNWyq2LJuCt4/dh0kjH0ZRzWPcDR0/tBsFS1VGybgCisvL/G9pOQWvda1urWvi6Es/J6HzyHW4gArotmgOHi2b33Ib0gm/vNkLIz46GvQ8COjiPIkErgECFDnXwCDyFkiABEggcgi4F65HDuzA0b+FOUL8/jy0A0fOnsOxfSdw/tIFXLicmdPdOzouw6inSor/Vi94M88ews5DZ6UlI/7YvRtnLrrPv3AlHefTr+Sc77sQ/QZDnpyJ3VezoL1IdeK7+T0wZcMp0YYDd3RMEtcvbYAvcOHhPPMhenVbjhNCdMU36IvFw5ogys/CGwj8Wt434Vkk2zk3rAivjTNewJxvUhF9Uxssmvs8Svrct3yvlvroqI2RH4xBPQ1xuvX1bpi4/rRrbCu3HIepXWrq8D6AOV0HYeOZTBSv3xsrRjTN7kLwImf/WwMw4N39iCrVArPfSDQhorXvniLH0qzgwSTgQ4Aih5OCBEiABEjARgJWFq4OFK/TBUmjH0Hmf6ei/ezvLPcjf7EHMH15b9yas+A1EjlAZtomjOgyC7+lZwmXsJoYvGQ87vJrTQpceHgWvEAMHuq/HD0bFwqZoNIVOY5oxMUVFMv+wH+X08/hktCW5kWOGbFgZa7IffcnHrKcB7Cg91BsOH5ZnJCAdlMW4Nnqvi6JSvEpC23pGmb67Y+jbLnzFdlp+G3TZhxOc4t/+Vca9VtUxPYkt5uc53f+2C7sPZWO/MUqok6VUl7nxOPBri/jrjKBWYkCnwk8kwTyDgGKnLwzVj49vXLiffR8ZRVOiR1C6XfjQ2OwoGcdU3d0+fdVSOz3PqR9UqNfgdgiKFPhdjR8+Em0bVpZx0XAqJVr6++ZKTux/LUl+GLXH64PP1ATwz+cgAZ+3V6c2DC1M+Z/m+qG4aiKfsunokkxc0uPT8e2xZLtl4xBigVNkRJlUaXOPWjb9glUKx1tfI7XERdO/oxP13yALdsP4UxqavY9AvmjC6NIQnnc2ehxtGzdCBVi/fVdXmwadUBqN65IAm4VfW7duiVqltNfCMq701EoXLI8Gj3dD4nNbzbYHTfqQe7+XTmW9/Z4HwOamR+jYM7NnbuUF4nSuBYuWBTlq5ZHYRTEjdX/gRsKFUflupVRXPy7Mt7kwldTvEROFAoVLYQo0emC8TfhpoSCiCtbDbeVE3Ml+39ji5VGUZ94B2ORI3HY/+5gDHprD6TlZqm7+mPR4Hv9zKFARc5ezOw0FJvOZoqFqizGPLEWQGU8O7wdKqveG4Fey3d0Pc9KsBYFqWXPvDMrcmQRUQRPjHkTL9a6jD//ShO8HYiLTwgoPienDzW64P8mttQdr4v7VqH3kPch6QVHodoYmjQaDbxE7KH3BqPv6j3izrxdyoITOfJ3uSjaTFiGDrW0XeHUoyV9P7pga/cBLjdFc78EPDcjCc9UkZ4Q/kiABLQIUOTk4Xkh7xC6byJfTD2MXjUcdaKNF81WRI4SUWz5phg+oSdqqXzg8zDEALqe5dyG8R0nYJtqN85Y5GQ5t2LM85OxM13exavWejamvlDJVC9Mixxla47CaPjCBAx6opIpEZB+7EvMnrocW4+ecy3+/P5E2zUf6Y3BXRrq+L2bFznq60ShfP1OGDn4UZTVCNL2dcFxoEqrSZjR2brvvNEthurvwQiVYM4N1f2o2w1skSiLHONnyf99mBM5Wc5dmN51JLYIASLt+PtfMAYmPM7/MBddJn0pHO4A5bMuz2Gtew3sWlpMwilyPCIiX0xDjH9nKG47vDp7Y82Itd7oylxKClG6bEhjP9PAiR1v9se4jw673mPxIrZpzrjmiveUbG0pUPZhjB/zFOJzXOmOYeWIidgs3NhuemAwRrS7Vfc6WokhvL/LypNvaTkSXW/7M8eSk77nc6z8+ohQYpL73Qjc9tdZV8IJz2/v+2Mxc8NxxFZvjzn9mmT/s6d/JShycueFxqvkYQIUOXl28BQ7hFFRyHI6XTtkDTovxfBW8YZ3pRQ5+WJKo4bI+qOVY+jq+VPYfzwZF9Iycha9MWVaYOq8RFSKNgrWNexGnjxA3gGMQd1nR6DfE7U0dpN9b+30ujF4OWmH4BiFqCgnxJCpdneNYCgXtyVvvgOVErT4X8aZw0dU1hcgFvf2mCusBf7iDpz444tZGLRoCy56vCWERSjhpqqoWau2a/fcHRuxFT/+sA/JGbJLRfztXTBzVEvE+wgSpcgpiir1qsI7BNx9z2ki1uIYzl5IgyJUA0bz7MLJHzBv9FR8dzrTksA34pwbfw9GqARzbm7cW6DuPrktciQWZzZORo8530NybCpU9XkkTWujI9gDER5peG9YF6zele5jtbVD5FxO+xMHRMxSxZpVUFgnxsdzHX/veLNz4syB7TiactWku5osIjyCRP7mBCpytmFcO7G5JDaJzCQEULutxeDuxPkY/Ij7HejtBWGWgfdxvlYt+bus1aa63yexuHdPrD3i1PXC0I7J8czF4hQ5gQ4cz7tuCFDk5NGhThc7hC+IHULp41y9ZStc/vwTHHRmIbr8E1iw4EWU9hvYCihFjhlXhrRDn2D08GU4cEHyjXOg5jOzMPE5cxaIPIpYp9tOfDiqPZb/lAFHkcaYuvJVVDXMzCQ1pciwJHY2H7vvED754oz4d7N++rK7iNSakYtTlvMvbFo4FrP/c8QlTh2FGmLsiiG4XcfKd1Is9vqKxZ7bGc6BsnVfxPBBj+m4o2Vg95opGLdqe44gKn//CMztU8/LWqQUOca781Kfv1k5HQvX7s5p13cHVj0spz8djW5Ldop/jBe+94uF733ecN0IRqgEc27uPIt5w5LjZiEvNKXNgOaD3kT3Rlopm62LHOVC2vv5sC5ypKQMB7Hzf9ux7dut+Gn/Hzgrki8YvbvDlXhAee+ed1WwIifL+RUGPT0H+0RCCaP3n2eeu93W1sB582MYMbEjKme71/64KBETPpMSTwT38xY5OaLZURldZw5Afa8selGF43MyuZ3/9jV0nvpfXBExYYMWDUGVKxd9rOf+LTnF0GrYRDx6c4GA3f+Cu3ueTQKRT4AiJ/LHSKOHytgOaVdsJjKXdsU7uyXJo+UH7NuEVZEjtSBbImD4cVVeUXktMztwkT0k8mLHaIGhvA/lRz9OuE4kPX0U3VwpRoHC1Tpi8ZQndXdjPe1YX9wqdxUdYmGwWlhzfGNdrpxYgz69VuK4EMnSQu/2tiMw+tkahu5tamGkNe+siRzPfarbjRH9XiT6rW2dVMZxmF34RML8sj6Wcq+DOTd37j0viRwgx6VMuF/e/uQgDO/wTxT02ST6FsPbTMOvV7JMWjIU72hHBXSdOxstK8gC3KzIkQLOq5W4iIPCmu6O/VP/9LOWuY8LlyVH6bKlJ3Ji33rOXIyhiUmr/+w7cWT/UZStXCknllTpNqyd7S6w+au0YFqJ8ZK+iVObbjMdI+uLI1DLmAmwPIQE8jgBipw8OICZaV9gYMfXXZYbjzWh2L/HZO9om0tTGojIUe6kmQu0d8OlyAGUO4fuTD6nMK3jCGwR7h9AOXSePw+tFIsgrWkZyOJ2x5IeGPPpMVdzeul0lckQjCwn6n6liWDk7mKh4q7D4SvWAhM5UirhHUv6iX4fdbXrmz1L7gVFjrWkBbnzupMXiQm1nkDru2/Qvayy5ko43NXcHTuJfy/5D8o//gxql47R6as8l4vW7YH/G93ML0qj96u3yKl98S/s+2Uztnz7PbbvPII/z10UT4HvL19ULErdeJDP+EIAACAASURBVCsKpvxmynUsPDE5apet8IocX4bHPx2Fnkt+ElYTvQ3BwESO7Ppo/D73HHslO462xqmPMHDEhzibnUTI0+vM7HTr0rgXKeRJYHAVl1yuvQ7ExMUhxpGAZ8ZNx2OV8oYVO3feQbwKCbgJUOTkwZmgtKiUE25CC/vWFylRZeEDR00Me3c8GvpJQGD0EdbGEtiilSJH+dGvjD7CJesBkVFNKXzMWLgCETlKdxWtayjTqJoVW8q5cem3pXhl3BZRdLE6bq/XFI+3qqMI4A1svkjtq+azH+skRU5kixyj16vS3Sd8Iseol9LfzSUzcLeUireHdBOWdbfzp6/FNwPfL+iHyV8cl/6K2Nh8SFfU/VH2Jl9UUdxSvT7ufOAe3FmrCsolxLksrGYznYVD5HjcsCS/AumnJ3IeK3UW5zI8q/o9+Hj5bpS7805UrVgGxQQTKz/tLHu+LSiTxui7dgcictKxfkp3vP7d33DE3Yja1cpopOv2ZNLbl51xL8vQ7ZsxOVZmAY8lAV8CFDl5blYofciVO1GKIFcTCQgCETnKBbEVV61QiZyAso15fXitD7/8ASwoApWXiUBlvaBfT9vKj77S2iEJhC5DP8F5caA/a4WnnUBEjqcYnxRno+WuJidRgJ+CfdYpuc8IXORI1pxPx3YQVqKLrpaqtJohsqdV8emIPSInsFod7s4E5ioSyFgGMw8CHcHAzvNOIe1bx8OzQ51XRI7y3We0IaHMqCbx87wrz6yZirc37sKRU+dUCTZkxlLK7FKo9M9KuPTz9ziYqhfkfwwLX+mDz487DV3ncjY5cq1OjvL75L4zMzE5l35OQmeX+6473XSnOsq0y+Zm4aVdH2L6ml99Do4qeRe6dW/qKkR6NeMI1i97A6u/3I87e+vVLApE5EAk/zmA1/suweHo/dh3UMsO545LLP/v0S5LEgziJKUbocgxN/Y8igT0CFDk5LG5oRQM3gvjc19NRsfZ37uCF40SEFgXOeoq4VYSD1xbIkeukm2uXoRyse6d/U65uDZOQGB1YZyZ8hn6v5SEQ5Jbo84Hdd3EZ5G01S0kbm4xAXNermXjExGMyAGUAkyPdca+Feg2cA1SRK/VBf2s3AZFjhVaxscaLxK1Fm++dXKMr+Q5Qj0/rFhdzF1DOc/8xX6p01K72/aInLRV/TDkg0NeFyyK2i0fxyONGqNmldLZtWOMkhwY/V2+RG4nHvAWeGZFjmczxsxmj96I6c0frQ25qxmX4IyO0an5Zjx//c2abf+agnW7z2Dv/w6KDawYlP9HTZQtJFmmKqPd4Fr4MHGUSFueJd5XScJtWZ3x0n2uHHylXQz0Eo78ugvJl0oyu5q5x5dHXccEKHLy2OD7c3FS12Hxn4DArMjJcl7AmWMH8OWq+Xj/xzMuAWWU2tcbaahEjvcHwcpQ/rPVEDx+u/XdQqV1wozIMXIjVAboGiUgMCty0lPOYP/2j7B4yTocdWXD00shrV7c2x+4H5zIUS5a9CyH9sytZKxfpK40bn4uBVZ13OxYavUjmHPN31cwRxovEvOayJHnoj9Lg3ojqHjxOKSknMsROSW/W4BBH13EHQ3vRqlTq7F4wwkBOZA6OTJfj7uy3mh5ODuK1MDTz96D4ta8wFTN/vrZUmw56s96dBJv9u2Djw5loOBNFVH8jyOuQtVGlhzld6tggkhZf3NRC5NPLqZ6cct8JC76Iefcy+nnXMkaPO+OG459qBn34nsxT8yLu/hx4YK+lkj1OVoxMZ53n1qI6NWn8/Rx5/h2FpIxBGZFtgCXh5JAnidAkZOHhlAtYrSDG2X3JP8JCAIrBupAfI3nMGlsa80ijfbtxEbuoGSmfY7+zy/CoawsGC0wpLtQihitTD5WYmICcc/LF1UWTw4Zj471S2lAVYqcwN1E9EcrOJGj3D3XEznK8TAuEBg58yoYoRLMublDIFiRUw2vLOqH2l6p2f8zryfe++Uyokreh5GT2qOsIgOauiij/ZYc2SJSAd0WzcGjZX0XvkorRsGb2iCxzg+Y8/EfmpkozWZX095IMebrGeejXy/Gik2nBDPZZSvQOeDZVCpY9TEMbFvbpxk58F5Kxd0JR2YsxG5Fume9FNL+imca91U/Nb3nOckROTnFSI1btXaEltgITOQknEtWxCkBLAZqbSR4NAl4E6DIyUNzQhnboeeOJvs2ixtzVEW/5VPRRAS5e/8CEzlRiK/YEK0TO6NljQSfNq8HkSNn5tFPySyDUfqn67mjpYkg5U7Z6b+hWxROajMQkZM/ujTqNnsWL714v4YwVYqcUOwKBidyzFkb5XswqgUUSY96MEIlmHNzh4HxIty/JUd74eq9aK2gW5/KbpEjP6P5RI2r8e8MRS2Na+dsMIkaKb2XTEPpT/pixEdHQyByZJdZo/ig3Blv6SrpWDOyE1b8nJ5dVLUMJj0101DkKBMBFLqhOv5RQSo67P5lnv0dO34/K/6fv0LCsiXH+16950u5i79j06a9oqfqX+ZfP+Ltf213xQPVf6od6paSv5cnvn8fn/50VmQx9WcJK4Tq9zRGpaLK76y2yNH7Dp8r1QKz30iE95zWjsnJvVHllUggrxOgyMkzI6hMLCCcHJ6ZL4pxVtDovTp9Z7XWszH1Bd+incoFpP9q2Jdx5vARnElNVdRpiMJtrcZiUid1LRW9wM+s9OP4ZddJd1Vxrw+Z5wb0dgcjZXiuZqTily8XYeaSb5GaKSUKaIzJIs3xbX4y2CkTC/hbHCmz5eXLTilaR6Nd5eK25M13oFKCtu/J1fOnsF/U1biQlpFTXC4qrjb6zxuFu+OVO9DqmKDmg1aJQojRNiIPTuQoC976S3QhC0+gWKVH0Kv/s6hzYxHDOj823qjlpoIRKsGca7mjAZ1wrYmcbRjXbgK2pV+Fv2Qj7vn6LRr2mCvqOpXOCRrXmrvBWXL0RJzyeQto4AI8yb1B0iJ5HjrP2I22U19HmyrfYciTRiIHilTxvpsswWbbMyuK/RUptZKdzswmn/dcuLhpOp6buRlRwvK3aO7zruQIyh9FToBTkqeRQDYBipw8MhWUbjlSAKMnDbFW95VxO3qBnOZ2yeXWpdicH0Va6pnv7YY7MWos7u/9Ovo21S7SqOyXPXET4Rsob6tXVFx1JE4ai2YV9WpquPv63fyumLLhjOv/+3NtU6dL9k5OIN+31cXthZNfY9bwefjfX+5A1pgyLTFzYRfFbmGy8KHvLnzo3X+P5JicAqLvcxd1QTmfIo1Sz1OxeeFovPb5oZzaImbipcI3o9RWOavcrc6D3L9PWeTc9MBgjGh3q08XPG44ynHyJJqIKtlMbCa8gpu9rCVmF63W0j0b01GKbf3NJamdXVg69xie7tUMRcU89bdADkbkKDdP1HMnvCLnmSp78eG/gMda/0NsMGw2FDkts95B7yHvI1lsGmkVzzz96ejs2m/6Lmn+Rs/sfAmnyPEII+k5WPLAT2g/+zvjCZlzRCis7xYuz0NJIA8QoMjJA4MkdTFwv2VtNymrIseNSV2k0SiDmwdtqEROIO5bnj5ZWVgq+x97w30YPLUv6pTwdQFUTiV1/JS1SabHNZDFbWbKRgx9eS72pksJCHzngjKGK9KyqykzQxkXYMzAkS/mYMiCLZByxVkTOeHNrmY1K1wg88DaDAz2aPM8leNktGtudtFqReRIKYV3HymOGlWL6dy0E3KxXGuLSrtEzpvtLmWnRi6OW25xYvNnm3HivJSi2Ls/Gfj7dIrLYm715y/eybgtB+LiE7Izw3mOlgWXXuKBpyulYtPi8Zi7IT9eWTwNTUuq45z8C0HjXpmdL7IFxnd8/Y3hlZOHcSyuHCoV0bJ+a7urHf52MeYlfY/aAxahQ60COUJYevdOrvW1KnGCdIfaxUA9984ioMazgEdc7wQocvLEDFC7oFntcpzYJVoxrrnKfScwkSNkzpkP0avbcpxw1XDzb1G6FkWOdE9mLDlKFzSr46VXeyXQxa1SyHhblFRpx3VcJvz3/zAW9ByOnflvRt36D+DBR+5HlXiPAAzGXU0dq+R/Bz1YS475RbkvC2sLX8/5RkVa9ZmHOlmE9dnqe8YuTOs4AltSrqJAbBHEFvB1q9Sqk+NJZ67nEmZ20WpO5DhxbNNCjJz7HxR/eApe61pd88aVVlYrtcGkxuwSOSu6pqB773fwp6duZnZPpeQG84SLU2lN66Z8O5lpW7Bwzi5UbdEcjWpV8BIj7uPMszU7P4xFjqcY6KVLl1CwYEGfhj3WPq1EE94HRxWOR8k4dbZMs/eUY3F31MbID8agnsKC6G8M3eLoB+GC3RjDZvVBrTjjmByPl8WND40R7806Odz1NjrormZ2vvE4EtAmQJGTB2aG0j0BjuK4rW5lESLp/ycHbYrjNBIQBCpy1AUezS3wQmXJyc0U0tZictTxU0XK18RtZX0/4uoR9NQ+cK9kPB9B5TGBihzlgtrbwqF2ldPO2Odvpl058T56vrLKlSoW8M48FbjIsdIvOatToDE5uZ9CWnbFEWHVdXvg/0Y3M/km+hbD20zDr1ck4PqZvkw2FqLDPOMeLbJsacd5+S7e5AKXelnyzC5ajURORvI2LJ02Bxv2pbpi1vQtmMqU0EDpRgOxcGAj07Fedomct8fHY2LHedh5/rwoIupATFwJVKjeGC++8gJq5Wwo6A+lvOGiX1bAPFuzU8ZY5MS+9ZyFdMn+r6uVgMHMPanSV2sUd/Y3hjl1vDTEkTwHtVNI/+2KvXwSG7qOFJsBxdFuymI8Wz3K5yYpcszONx5HAhQ5eXQOKN0lAC2rjNaNqReJgHcCgkBFTiRZcsIxoHKQu37xTvXC35wQlO5FGUullYAgUJHjz5IjuSBunNEVc76RshgJkVCzC+ZPaOmKKTD+pYmdyO5ioXLOdahvnZ9ARY56cenfLVLOYJeXsqupE39IC57h0Eo24T0GygyLjiKNMXXlq6iqm2XMeARDcYT8jtCf+5fT/sTfFzLhSf2c5fwKg56eg30i5bCe1c7MotV9P9qB+VnOv/DNyulYuHY3Loo4ENfPURi1243C2LbVfFBcFIVme4hCs+4nQ/rF4va2IzD6WXXCFT2G9omcFjqXcFtR95RojMefboX7a92gIcDkDRd/hTY9bP0nofHuhn5mM+UY6LmrhV/kpIr3V2/x/pJKCWvHQpoZQ20Ln152NbmW0K33NsaFzZtwOlrK2NcL+TdvweE0SXbLP092t+gb70WnR//hMw+KV26Eu3VdLUPxdLNNEshbBGjJifDxUsd26C+sfW9DLY68P3CBiRx1TI5Z941QWXLCMXRKkae3A6yMnzIbtyTdi1oc+X50AxE56pgc7bTXmSmfof9LSTjkdBcONbuQO7lxMvrO+T47EUVRPDHmDXSqE6sYlsBEjrpdqebGmyLrm7Jd+RJ5tU6OqICBmZ2GYtNZabXtQOWW4zC1S02/VoIs5zEsGfAq1opii9JPy9oXjmfC+5pyGnvzAeOyeNOv1xSMyDm9fSUmzfoYh12xLO5fTEI9vDJqEJpoJBDJcu7CdGmXPXt8HI6ruOpaf8binsRZ6NeirKFFx8wCObBioJ47kK16hWp0wf9NbOnTJ+U7RS/TptRaYPGN/sbX2JLzTBVfy4XnzlTeC+L5qPnMLJFN1DdLqL/57m++SIJ3/exhSPrmVHaBa++kLO6Wc8bQJxmGEx+Oao/lP2XoxP/5ipz0Y38grfyNKLh1HrpM+jL7venZuKyORS/3x4ZT8vw08yxHTgpxM73lMSSQ+wQocnKfuaUrKmM7/O3EaTWq/lCoBZJ1kZOB3WsmYcyKndkv58A+PJZuPiIPlj/e2sHt6sVrg85LMbyVcQY6962q3dy8BZJVkSO55cwdNQWbT7hDkf1ZOtTCwoGydV/E4FdbaAbVunfEp2HBx3ty5oL2It2ayLmacRpfr34Nbyh22ksKV655ox5CYR3LUl4W0MrU1yLSC+Xrv4Ch/R9DhVjfpBYXTv6A5TPm44sDbqsZsmuxeAdraz0y576ejR5Ltrn+VOHBYZjUUTv+xK7HzeOKp5clzfc68oaMv1TrgYicmx96Bfed/xCrvz+Zk3kvX1RJ3CcEZo9HKyNaY15lOQ9gQe+h2HDc/dzEi5jGyc//iRFD/+XKBCYJnXuz00T7YxZqkaPccNHO3qi20lYSwe0zErWFdDgsOfoiJ1UIiB5CQJwX89wBh1CXVy3Md8+Y6M2XtENfYMakJdhxxr1Z4ChUCwMXjPVKr+9uJcclTYx53af748WHbkJBUWnn8MZlmPXOT673n7blUS1yWjjfxoCRP+DxeVIh2TMiq2UfkdVSur5n4+kqftu0mZYcu15CbIcEsglQ5ET0VFCn+PW3E6d9G8pilGp3IvN1cgCp7sreQydx4bLHx0MrHXFEg7Sxc3IhPq0AaWW6WX81b/Q6pHRHkorgtZmwzJWFR/qZrZMDkV/pzOEDOPHnxZyFnXHKbyd2rhiE8WsOyuc4opFwU1XUq38XKgrf/6vpp/Dbzl/w8+7fcd6dddr1kU6o2w2vjWqu4eKmFDn6Bf2yLv+Fw4dPI/Wcsr9SfE0bjJ32PCpF67vOKefx3YlvY/AjhWwc61A3pXSX8eCMRpESZXFLpVKQRl1ic+j3E0hR1DySXKyadJ+NfqIWi5mfnMpc30piph2zx3gSCATiWhvfoC8WD2uiaSUxK3L0Cx07UOLW5ug/oqtuLMvVjL1Y2H8UvvjDnShfuQBWbQQ4bkCrYRPRuX4pXSyBixw5Rsxf/TBl4WetwPXLv7+NVwa8ky3MpG7qizOzbM3OAS13tcy0g9nFOLWKZ3paduLoZ1PQf9GP4i0mbaT1RdlNc10WjpgyLTB1XqLf94GnFUmozu0xCBtPZSqKsZ7EuyOG4Z1f/lbVD+szaxga36BdDuDKiTXo02sljrus3L4/R6HaGJo0Gg1UhUCl4zzvvhJo+MCN+OXrn4WLpEOUXXhXlF2IRuqGiXhh/lbX+9OfFZcxOeZnHI8kAS0CFDkRPC/U7kvWg8KlW1Nn+ZLb0F8IGAGRFgqPY8TEjqisseNsdHbe/7uc3crXXU/tIuhvwabPQZ1JT9lGYC4lgLRz/XDPiejapIyBi40Tx7e+hWlz1W49en3NF1UUd7YbiVfbVNHcEVcnqbAw8kJcVW3aF0MT70a8RmYuZUsZIm6im4ibkLzqraQFt9CbEB+aii3LpmD+2t/kOBE/V4yKuwXth05A65pyZXj/HZQD+nMnhkfOrOY/I57cazkWzb87rrmFuNp64bmKxO2pXoPRtqFW3Ir7qPRj6zB6yFLszXZpkwROv9kjFQtgr40AIXTaT5qLttW1k4oELnLMTTk5eUW8RuD6YSx8ZSA+F9aofDGVUeeWM9i+W1gBhUC+r9sM9G6udrczx9Zcv9xH+bqrGZ/txP5PJmDE0h0uC4lH1JTa8wZeHrkOwq4jrGpdMHNUS7/vhcyUnZg1dGKOBVsp7i7uW5Vdm0eynHbCyMGPoqzBO0ay/Myf8x52/eW2/Hh+xW9uipd6PYvapX0Fku/31YH4Gs9h0tjW4npHMD9R6ZoWi1qth2JUh9t93qMUOcazhkeQgD8CFDkRPD+Ugei+Qd3mOu5dr8Xjx29F5OSLikWRQsVRsUEjPP5wK9StEtnV5M2RCfQofZGjTvagn8nI6MqqmkiKzHjmRY6UgSkOxRKq4J6HHkWLB+uidEEziQTcPZMKv+75cS3Wr/sePx8+pbKw5I8ujJLlKqHePU/iycfuMGjXbHFCT39vEmmom6N5q4Y6tSd8ySmrjOdNkeO+p8til/u7T9bj083f40RymsJq6mZTulx93PdEMzzS4DbNFMB6c0oZ0K+XtcxoPlr5u2xdMJdwQ7lTbhTjZ2YhfvH7OXhh8kbkGBoN3ADd95aB7avHYvoHu3KEpqNQVXSfMkGj4K+IS3yzP8Z9dNhlDXAUuhkvjpqKVhpCx5/IkQVKoNa1VLw9pBve2S3kgE92L2UfHbijYxJGPn5O4YLntmj1HNAB9cq5LZ9m2FqZB1ZFjlSv6MPpE7Hqx9PZXJUuZGrmseWbYsiYRE1xkZnyAya9Oj27AHIsEhIc+PPPC4JRcTR+aQR6CRfFgxs/xIXqzXPu3dp9mTna20KrFDGZOfMnS4jPJvUv4evNx8Q9u8ek75AXVfdFkWOGN48hAX0CFDmcHSRgiYA/S46lhniwDQSuFZFjAwrNJmT3yRjddM72XVvOtmckWNzXlDNNSYVq7+2xCAOa6cevmVuIywtMM1Yv7/gMqVfSInr4hJ5+0jOrF7F6MR3+RI7S1Uyqu9W+fzfcU96cdS7z7G68t3QZvt7vToGt3gBTW5ukeKI5okaalC1RLQCkO3WIGi+3okGDhrjy0zvYctQJMzVptOaLJ0ue/DdzlhwpDu9/a1dg4dtbcDZbmUbF1YavC5mXcBAWqRpNX0T3lx7MiWHLTNmEMb3m4OdzUvC+2w1syouxSOojx1fFiI2f++9vhaYP3obyJUtZ2jBQ3rdUUiA5xe3SKP2UdXqUMV35osriySHj0THbrVG2JHliWuOxeeFovPb5oWw34SjEV/wnGjd+AI3uqYJi+QuhZEKcpgVe2oz686801xzQqhNk33PNlkgg7xKgyMm7Y8eeh4UARU5YsOtclCLH/2jsXtkXQz44JFyWpDS1Q1ErhOmmlSmXjeMH1bvzhUSNkqRpbfymLjcnckSVeFH8csr4X9F2TFddl9q0Q19jyYKlOUIhe6mKyg+9iuEm3CTVyQkcqPTIGMxO/KdqMPyJHLXAC+KJEi5zHaa9jjauTGXqorhaMSyurGJzR2Pp5j9EzZ0grut1qu9464scaXF+5Ndv8NmHH2PjLycU/ZBcutpi3MhnNJNvSH3/eOoArNh6NiemRkrYEScsyw3v74Bm+d/B0JW/uawiyjgXyX1t0fiZctIO+247uyXfDQRJcI0c+G80GTEuxxp4cd9b6DfsPZwSNa5iyqizuZ3e/g5mv74GvyWrXeLMddVK1lVzLfIoErhWCFDkXCsjyfvINQKexVbuxDjk2m3lyQv5j0vIk7dkY6fThEtTJ+HSdBmBxYdZ68qedwdh+Ft7kRlTE4OXjMddPsHYcnuXj76Hnn1X47Qrg3Zl9F4yDUaZ4syKHKNeq67tWaaKdNKJw/qj6a3mE1e4U68vRYHmIzGxi348hZ5VS1p8J02Zgy93n1UkCDHqvefvkhWmLhKHyymwt77eDRPXn3Yd4C9jmPR3pXvkH2dScUn27zPbAcVxldFH1B96oJgyK6CeyNGOmYpJqImnu/bCk35iptwXdOLAF7Mx8Y1vciw/npib/g8cxpjnJ+NolW451iu5kxk48u0aLH9vA349+petAk/vO3DlyhUUKOBOGgPswazOI/D1X1f8jI0TKfs3491PPsf2nX/g7IU0U/20mnU1gAHmKSSQZwlQ5OTZoWPHw0VAjpmJQd1nx2BA6+oBuz2E6x7y/nWdSD32PywcNw3fiZVyblgq8h6zbRjXbgK2pUtJGVYLVzDzC/jA7lWyzgzCmpheGN/euKaJO1vZT6hvIh2z1B+7RI7UlidT2tWiVdG8Yzd0aKqdTtqIw9nkZBRNSNB0J/JvyZFb9nZ9Mrqm9PfYYqVR1CvOLsu5DeM7TsDPBepj6KzBuCM+v5mmso9x4nzyX7iorkVp7nyHlkuVP0uOJ/NZlkuotX+5Ex6uU14neYl2FyQ3t03vJ2HVJztxtcbLOWnmD235Gqjf2CADWwb+Pp2C9LOHsPOQXOrV3M36HlWqWhPUv8X42XLVLHvlXdwxco5usgq9PmjPEQfi4hP47Ql04HjedUGAIue6GGbepJ0EJHeY0Ykz8IuqOrX5wod29uV6bMuzeJTv/Xqt2eR/9OWUvSVR56EGhlmkcn8uOZGcfB6lSpXI/UsLi8CZY8koXr6MpcV1GDpq6ZLpxw4h5YabI2Cs3UJCqjSkJcjSjx3AscLlUaWEdpFfSzedhw6+dOkSChbUzsaXh26DXSWBPEOAIifPDBU7GkkEJFeT5a8twZe/ncjOhEWRk1vjI4scBwoWr4DG7fohsfnNhhXoc6t/vA4JkAAJkAAJkED4CVDkhH8M2AMSIAESIAESIAESIAESIAEbCVDk2AiTTZEACZAACZAACZAACZAACYSfAEVO+MeAPSABEiABEiABEiABEiABErCRAEWOjTDZFAmQAAmQAAmQAAmQAAmQQPgJUOSEfwzYAxIgARIgARIgARIgARIgARsJUOTYCJNNkQAJkAAJkAAJkAAJkAAJhJ8ARU74x4A9IAESIAESIAESIAESIAESsJEARY6NMNkUCZAACZAACZAACZAACZBA+AlQ5IR/DNgDEiABEiABEiABEiABEiABGwlQ5NgIk02RAAmQAAmQAAmQAAmQAAmEnwBFTvjHgD0gARIgARIgARIgARIgARKwkQBFjo0w2RQJkAAJkAAJkAAJkAAJkED4CVDkhH8M2AMSIAESIAESIAESIAESIAEbCVDk2AiTTZEACZAACZAACZAACZAACYSfAEVO+MeAPSABEiABEiABEiABEiABErCRAEWOjTDZFAmQAAmQAAmQAAmQAAmQQPgJUOSEfwzYAxIgARIgARIgARIgARIgARsJUOTYCJNNkQAJkAAJkAAJkAAJkAAJhJ8ARU74x4A9IAESIAESIAESIAESIAESsJEARY6NMNkUCZAACZAACZAACZAACZBA+AlQ5IR/DNgDEiABEiABEiABEiABEiABGwlQ5NgIk02RAAmQAAmQAAmQAAmQAAmEnwBFTvjHgD0gARIgARIgARIgARIgARKwkQBFjo0w2RQJkAAJkAAJkAAJkAAJkED4CVDkhH8M2AMSIAESIAESIAESIAESIAEbCVDk2AiTTZEACZAACZAACZAACZAACYSfAEVO+MeAPSABEiAB9NbIMgAAIABJREFUEiABEiABEiABErCRAEWOjTDZFAmQAAmQAAmQAAmQAAmQQPgJUOSEfwzYAxIgARIgARIgARIgARIgARsJUOTYCJNNkQAJkAAJkAAJkAAJkAAJhJ8ARU74x4A9IAESIAESIAESIAESIAESsJEARY6NMNkUCZAACZAACZAACZAACZBA+AlQ5IR/DNgDEiABEiABEiABEiABEiABGwlQ5NgIk02RAAmQAAmQAAmQAAmQAAmEnwBFTvjHgD0gARIgARIgARIgARIgARKwkQBFjo0w2RQJkAAJkAAJkAAJkAAJkED4CVDkhH8M2AMSIAESIAESIAESIAESIAEbCVDk2AiTTZEACZAACZAACZAACZAACYSfAEVO+MeAPSABEiABEiABEiABEiABErCRAEWOjTDZFAmQAAmQAAmQAAmQAAmQQPgJUOSEfwzYAxIgARIgARIgARIgARIgARsJUOTYCJNNkQAJkAAJkAAJkAAJkAAJhJ8ARU74x4A9IAESIAESIAESIAESIAESsJEARY6NMNkUCZAACZAACZAACZAACZBA+AlQ5IR/DNgDEiABEiABEiABEiABEiABGwlQ5NgIk02RAAmQAAmQAAmQAAmQAAmEnwBFTvjHgD0gARIgARIgARIgARIgARKwkQBFjo0w2RQJkIAeASeuXMmPAgXy6SLa8+4wTFz7h/h7Ap4ZNx2PVYoiTtsIZODv0ym4LLXnKISSCXGIyqc/FrZdlg2RAAmQAAmQQJgIUOSECTwvSwLXD4FUfDN/JOb9rwwGzxqMO+Lza976L2/2woiPjrpEznMzkvBMFYoc++bINxjy5EzsvpqFqFItMPuNRFRwUOTYx5ctXQsEMtMOYtOmvUi39WZKo36LO1CKmwq2UmVjJGCGAEWOGUo8hgTyJIFkrF+0GFuTM0Pe+6iSd6Fb96YoqfEhv/RTEjqNWoeLLiNCVXSfMgHNKsb49CkvipwLX01B+9nfhYBvTQz/cAIa2CZE7BQ5TpxP/gsXr4bgtjWbjEaJ0sURfU0vEn/AxI4LsEeI0Nz91cSrKwahjm3zLHd7b/fVLv++Con93sdZWxu2+1m2tXNsjASuaQIUOdf08PLmrm8ChzE/sT82nHKGHIN/64ATf3wxDQMW/IBLoif5osriuQmz8XT1gqp+rZv4LJK2SlIo71hywi1y0lPO4FyGtDA2EgJWRI7s2pYvpihKF4/1mj+5N6/cF74eFony+IT8YVVd4Hpga56oLHIciImLQ4zD/LneR2ZdScf59CvXyfwNnBPPJIFQEqDICSXdELd95cT76PnKKpzK3vy78aExWNCzjsmrmv+o5o8ujLgiCbi1zj1o3bolapYrZPIa1+Zhn45tiyXbpeU6cG+P9zGgWbTpGw3mXL2LZKZ8hv4vJeFw/urov3AC7i3pcQeTF6P5i1VEnSqlTPfT7IFnDmzH0ZSrplygTm6cjL5zvncJHThuQNvxr6F9zcI5l5LZ2LXwCv0cl0WOPX222p55ZlZEjnxsodtfxtvjW0ScyLGy414gtgjKVLgdDR9+Em2bVo5Qi9AerJr4LxyyaMnxPH9ALCrWqoFSvgZSg0e5Mp4d3g6VDSw5+98agAHv7s9uqyjaTFiGDrUKmHpNmN8IkIRFCdxYqTYeeOYZNK91Q67HjcnzKviNFrPPsnIuW3UlNTr3/A9z0WXSl8gq0wJT5yWiUjRdVE1NWh50zRCgyMnDQ6n+8Igd8ph6GL1qOOpEm9l+Mr8AVCOKQvn6nTBy8KMo6yeIPA9jNex6MEIlmHO1O3YYC18ZiM+PO1HzmVmY+FwlxWGyyNFerHq3KLshae/g+/bAcz9mP85KoZMv+nYMeXMs7oxzz1fzC3bDIco+IPRz3OxCxmyPrbZnnpmdIicNv23ajMNp9vurZWX+jS1r/oVdZxVtO2pj5AdjUE+xELcicpTsY8s3xfAJPVEr3sw70uyohes4+fl2FGmMqStfRdWQuJ2dxOLePbH2iGwRjm/QF4uHNTElQsyLHCVHB+JrPIdJY1vn6nfmWhM5QJp4r3YXm3LnUKnFBMxIrGlqzMI1o3ldErCbAEWO3URzrb29mNlpKDadzUT+qChkOZ24CgcadF6K4a3iTfRCuQAsiir1qqKY5llpOLbvGM5eSMNlRWhHzHW8MxSMUAnmXK3h+WVlX4z64BDyFWuMyUv64TaVwLUqcqweLwsTsyIHcGL/JxMw6u0L6KSKzTkmxFofl1jLF9MQ498ZilpBL9hCP8etihKjB9Nqe+EROUZ3EdjfM5K3YNrg1/C/vyQXH/cvJuFu9J/cFw1Lq00USpGTL6Y0atS6CWrnR/f5V8+fwv7jybiQliHej9ltXiPvrsy0z9H/+UU4lJWFknf1x7IhjQMDb3DWpd+WosvQT3BefF+iovLB6RQfAkdV9Fs+FU2KGYtFpcjxZ1FO//MIjooMgG4XL/cvXlgS54xrjqK5FI8lz6sYlP9HTZQtFLjlI/Ps79jxuxTd49/Ka2SN8Tc8Zs69cmIN+vRaiePOInhizBvoVMfb/TQk04aNkkBEEKDIiYhhsN6JdGGGfkGYoaWUsNVbtsLlzz/BQWcWoss/gQULXkRpw4+CcgFo7GqT5fwL36ycjoVrd+NittjJ7Q+QdUqhOSMYoRLMud5343FTO+SMFm5zi4TbnLe4tSparB4fiMiR7sKJS5eyULCg0t1FvrZ5wWQ0vqGf41ZFiVGPrbZ3bYicDOxeMwXjVm3PebfAURg1H+mNwV0aai5wzSzulKzTDn2C0cOX4cAFybfXoWH1NBqZyPv7xU3T8dzMzUK8xeCh/svRs3Fo3Ig3zngBc75JFQAq4PEnimPtR7+4BGO11rMx9QWl5VibkVLkGFuUnTi+dQlGT/kM7nwpsWg+6E10b5Q7C/NALYT+Z0d4RY70vv1ufg9M2XDKlFtx5M109ogEAidAkRM4uzCe6cSGqZ0x/1vpwyP5Ds9E5tKueGe3JHnM+ktbWwB6blYVVyE+rtqLa200yg/ILS2n4LWu1cPIMPBLByNUgjlX3WMnNs7oKhYfZ/18uKyKFqvH+xc5R3esx68nzWZ2O4hP3vgPToo1aFTJO9C+TT2xvLHy00rTGvo5Li/golCoaCEEm/TaarByXhc5mSk7kTRxFjbsS5UtLQn1kDisP5reqr9otypypJl0et0YvJy0w3Ud+4S0lTlq77Hfze8qFq5nhGariWHvjkdDU27K1vqQ5dyKMc9Pxs50d9zdrFkV8doLSS7rUf5iD2D68t641cDiak3kuPv346JETPjslOv/xwlrzgphzTFT1ynYDI3XoiVHYihviOXDHR2TMOqp0tYmAo8mgTxKgCInDw5cZtoXGNjxdZflxuOLXezfY9BtyU7X3Zjzlw5sASjtCu0QblFjPpXqmcD0h046liJHGXdiPWmBcqrKSSf8uShaFS1Wj/cvcpSCLvSPmdZuaejneGDxBmZoeO7nON6d8zHKPvQs7qxewidoPu+KnAzs+Wwepi79Bmc93kkG1hsltUBETpbzKwx6eg72uYL7ja3XZkbJ7mOuZqQiOcWd1MT/7xRWjxqLr09lomDVtpg1oKllgR1brDSKFvTvjqUUhuXuH4GFfavj7SGdsjfUzFmQAhE5GftWoNvANUgREKwIUvtEzrWReECeQ/LGaH5N12aj+ca/k0DeJECRkwfHzffDUx9K4WNuZy/QBaDYFVKILPOWI4ocaarZY8mRrTj+feOtiharx1+rIsf8HJcXcOXRvNujqGjoJur/hXN5/wa8ufF3xSJ8c04Rz1L3DMKSgY1UDeRFkZORvA1Lp83xst5ox97o0QpE5ACBv/Ny6zMROtHsewfGmSHT8N6wLli9SyqNKcVzvCniOQqoLGJmrCyBiJzAxhegyNEv8iu7uFuJ3c2tmc/rkEBoCFDkhIZrCFtVZrpRuqYpP0hmXmLBfPCdYrHeQWRskWqaAFVazcCMzlUM7zk0lpxganYEtlsXjFAJ5lwPYKULSeFqHbF4ypMorLm49hUt8iLAcLj8HuBxN7SaXU2v0UPvDUbf1XvEnx24v/e76NvUXFpu/4v80M9xqzE0RtSvnPwJG3YcF4e53e+K7l+Zs6N9R8dlws2kZB4WOanYsmwK5q/9TRF7UxyNXxqBXo9aS+0cyCLYeeZD9Oq2HCckl0jhejX7Df0FodE4hervkSRylCUKlK5p6g014wQEgYgcZcypGSHlGQ/7RE7u1ckJZC577tfaudswrt0EbBOuhwWrPo9l09rofDdCNbvZLgnkPgGKnNxnHtQVlS81b5/oc19NRsfZ37t8zo0TEASzAATkRSlgHEzqvmWKHHssOcpx1lr4yhMsr4gcpWiugG6L5uDRsp5aP/4el7Qc1xntFLqhn+PyAq46Br83CXcHUz1Q41bl50ybiyzyjCxJcsyTo0gNPP3sPSiu66kkH2v22TbzUlMv4B0ocWtz9B3yImp7ZU4z05a1xZ3Uohx8HcmJB4xEc7B/V3IzsuQoN0TUNdjUm1xGCQisi5xU8Vx3Ey5xktuetcQD9okcM7PQ7DHhTjzg6Weg71mz98njSCDyCFDkRN6Y+O2RMiDTO3hfucNv7EYW3AJQ+eEyuysaGpGTjPWLFmOrOxWPxV88Huz6Mu4qY2ZBLTcdjDUmmHM9PZCzHcWj3ZTFeLa6Xri7r8i5nPYn/r6gx2ofFvWfhe3nr+KmBwZjRLtbdXlGFY5HybgCOe53ZueAdoO7MK3jCGwRRUWt1fswysgW+jmuzHB1V5fZGNCyrKkAaTMTVXLrem34RHx3OlPX8hDquKdQiZyKD43FrB7/DJiVWZGT5byAM8cO4MtV8/H+j2dcG0CRnP4+WBFjdL55kSOXKHAnt0nCM1Xk98z5b19D56n/dWX3NEpAYFbkSPFIp37fgXcXL8F/D553PSJWM3jaJ3KKoP5T7VC3lHGKbL1n2df1VHtXwexc1rqO1XOVm5P+N8jMvKF4DAlEPgGKnMgfo5weqkVMOXSePw+tKqgXuPIC2CgBQXALQH+BocG4XNi5qArV0AYjVII5130/Svc8o+BpazE2ysDsuxPfxuBHjFPS2uGupvxQW6v3EVqRYyb4WR2fFryLizxnr+DiuXRhf5B++imP86rICTa7YmCpfsNTYNLKe8hIpAT7d7MiRylitL0CZNcnIRv9prAO7HsQhcoPDcToHtopxIOZ9/4sWM4zm7Hwjf8iJatEQBtgyrG+tOtDTF/zq/inynh2eDtU1slCZ1WoKK9h9dxLPyeh88h1uCAasfautTKLeSwJRA4BipzIGQvDnhh/eADlS8x/UHpwIsffyzWwj5r79ilyjKaBlcr11kSO7AdfCM0GLEaPe+OMOmOLJUfefXWIlOSrRb0fSVyl4j+vTcGBeq/i5XtL6fQjtCLH7ALi1LdzMGjGRqQGYkw0JByFCvf0wqQB9wVZENHKvJGPtfN5VL4XwiNyohBfsSFaJ3ZGyxoJhuTDcUCwIsbofHMiR1miQL8eTk4KawHKX2xgQN8DRzRurPkgOnR9EXfepC4EK41LqEROOMbc7HtGq29Wz1UWkC1QpiXmLuqCckEmSwkHM16TBMwSoMgxSyrsxykTC4gEqM/Mx8TnKmj0Sulm4K9gW3AiRxkY6u2qJO9gqbuXlX4cv+w66XJxKHRDdfyjQmGf/hes+hgGtq0ddtr+OhCMNSaYc6U+KT9qxsGjVkSOemEjFWNs+MIEDHqikl+XouAtOYr5mlNFPQPrp3TH69/9LYwYhdGk+2z0a6ZV1yG0IsffHPeeH5KrzW/bv8PRvyWHKHt+jtgy+Gd9UXU9zlwSBv9XtSJyMvC3qDwvPaf5YoqidHFrFYv0+hEqkZMvpjRq1LoJBTUvfBlnDh/BmdRUXPKkqhbJlm9rNRaTOtUI2F3OnhH2bcVIpAT7dzMiR22d1I+Ru/TbUnQZ+gncjmXangXSX5Tjnr9YRdSpordpkYZj+47h7IU0XPZsGOg8/9v+NQXrducMaA7I88d2Ye8pKRtcDMr/Qzw7hXxdxP7Zaggev91diDgYsRTMHFCKfKtCRXld6+fK7wFrrsHB3C3PJYHwEaDICR97S1dW7sBI5u8+K6fjgWLa/sLKuB19f+ngRI7yw2V2Ryg0MTmWMNpycDBCJZhzpc4rGRrvspsXOVdOrEGfXitxXNReioqKgtMpOUr5dxlRLhICjclRLpSUu8EZyRsxpu88/JYmiYZYYeGZKyw83kJHjuXRnoO5P8cDnWCym0wWlIuwQNvzPc+KyLHvqsqWQiVyzMw9KTbnR1Ewc+Z7u+GuQhMrsvi9LrL4xYfmZgNsNVgRY3S+GZFz+tPROTXX/G+kqDfU1MkJZABmY3I8Z1zNOI11c0dh6eZT7gKxjhvQYdrraKOICdLDazUm5/oTOfI7M1JrRQX46PA0EtAkQJGTRybG/rcGYMC7+wPorZ6/dHALQGXmnaJ1e+D/Rjcz7FtoRE54U0hbDd6MTJGjzGZUDp3mjAFWD8GKrWddi4xilZ7AqMkdUTnWV1QHZ8lRWid952n6sXUYMegNHLggFW/UEjpGblW5P8cNHwKdA8wsPr1PPfr1YqzYJFWFN5NAw6rI2YNVE/+FQ6JwZvlGndH5gfKB3lrOeeEUOe5OqAsZG2egDPqWLTdgJFKC/bvxPFOWKLDW/Xwx9TB61XDUiVa/J6yKHPdVU/HhqB5Y/lN2AoIGfbF4WBNDy5tVkZOecgbnMqT3i7Vf+reL0Gf5dtez12rYRDx6s7XkNZ7ELdJVlWNi1bpi3ZJjJabTGhMeTQKRSIAiJxJHxadP6h0zq13WrjMQzAJQTt0r9UXfdU7d02tF5CgFnrXYAuUHRi6uZ2U87bfkiIXfm/0x7qPDLkFTXlQ1n9unnlhMnMM380di1oYjrn8vUKIhBk7rj4Ze6X6DETnKe9GzOF7ctwq9h7wPV/I8H9eVUIocvTl+Cls/244/ra+L/A5z5l8/4u1/bXcFBFe+rwuaVtNaNLlr55TK9qG3tqCzKnLk463Ncf3bDL/IETJHUSvHyCJu5bm069hgRYzR+UYiR+2CZvWulDF18rmBiRxA6S5qdvFv7ZnQu780rE+ah1Plm6FZk1qa7qLyPQVWa0195cC/xUq2xu7L0lVpybE6q3l83iZAkZMHxk/14XEUx211K4v60/5/mWd/x47fz7oPyol1UO6wBf5iVfts6/tie/cwNCIn91NIK905zFqx3Cy+xfA20/DrFWmFbKUejExSyTD6pjZYNPd5lNQNHDVyV8vA/5YMwsRP3QInqlQzzHj9FVSK9vixO7FzxSCMX3PQleXLUehmPD98ElrXlGOpAhc5SuuRfvYw6c5Pb0/C8AnrsoVOJfRcPBMPJUgiIHQiR3+OK5+b3H55qLPpWVvQUeS4R0s5fnYsUO2dA0YiJdi/G4kcpatzgRK34J+3GrvznTmwHUdF+nfpp5WAIFCRo86gZ5RJ0j0O1p4J7bFTPvvGLnh2zCGl8CiNF2YvROtKemUB1H3evbIvhnxwyPWP5rKlMSbH3ieWrUU6AYqcSB8hsbzcMLUz5n+b6uqp2erP6kWaVgKCQEWOsqiemaKj2gt0u3aHwzF8yo+vnouGVr+U2fHM7kz6tqNYrJZshplLXsHNOqlJlemmveN3rmbsxbIRk/DvfSkugeMoVAv9Zo9E4xu8Mxk5sf+TCRixdIc7lkGI7Ga9pyCxSRmX60igIufkxsnoO+d7V5v5izXG5CX9cJuXm4vy3qXj+83fi8b9puOV7GxrynHQFpuhmOM/YGLHBdgj3Ljs/GVdzcCFtAy31Sy2CGILaNXUqIlXheiskz3e1hZ0FDnSeNGSswqJ/d6HtP3lnUpZXaJA2yqjNedPrxuDl5N2uONnNBIQBCpywmXJke+nKNpMWIYOtdxJCpQ/+Z70ExxosdKOt7NWXFVuV+1aaMZ1Wjn/jTfJ7HzDsS0SCA8BipzwcDd9VfWHx389AnWjanHk6w4U2AJQuTi1Wo06NJYc0yhtPFDpPuhA5ZbjMLVLTb/+4lnOY1gy4FWsPZTh6ofeDqFxJ49h4St98PlxybZSHYPfm4S7Y/QK1mlZcjKw57N5mLr0G5zNTk7kKFQV3adMQLOKvqla3f1x4o8vpmHAgh9ygrZrtR6KUR1ux/px7bBk+yXdYpVa95OZsgkjeryWnVQgRiy2FomkAkY7xk6kpTkRFyfn0DKeT7k7xyXXulcn7MJT48f4Yak9wkY77FpnUeS4F+tmEg945vEOIabHfHrU9Z/mzzN+Ku06IlhLjdH5/uaZchPGyuaN+hvl+24LTOSoY3LMbu5Zeya0Rk0WDv5itgJKiy0up1ejRykUpQ2ngQvG4u54/3E+KaIga6IoyOrefKqKfsunoolOMiLPnbJOjl1PKtvJKwQociJ8pJQvP6PK0t63ovav9hZI1haAUsabr1e/hjfW7sbF7PSeJUXCgXmjHkLh6zDP/vFPR6Hnkp+ydy+jUL7+Cxja/zFU0AjOv3DyByyfMR9fHDjnHiJHZfReMg1NS1oLVvWMr1zw1SiuRy1yVnTNxPCRK7AvRUoO7P7Flm8qXMF6ola8cWVvpcCNLd8Sk2d3wa+TrYqck3izbx98lC32itXsgvkTWgZUA0b5wda2DObmHP8VUzuMxLfnxH62l7XLzCuGIscMJfkY6wHXGdi9ZhLGrNiZLdT9u0h6rnTu69nosWSb6z8rPDgMkzpWt9ZRi0cbiZRg/64/z9QlCqxuwijd3LwFklWRk+X8C5sWjsXs/7jjAa1upllErjr8/A9z0WXSl6454uu+Kx9qryUHyHLuwvSuI7HlrPvjGhV3C57qNRhtG97gs3kmZQrc9cV8TFvybU5tLjmWUssCLPf70HuD0Xf1Htc/mC34HAxPnksC4SZAkRPuEfB7/WSxIOwuFoTuLfdqrWdj6guVLPRYbc5W+0srF4BFUaVeVRTTaDnr8l84fPg0Us9dzK6+7j6oWKU2GDvteUX8hoVuXROHpgpXrd7CipEi340oYFekRFncUqkUJAcHid2h308gJdsNyXWg37ov5sAod1z9J33wtuTcndPnfFElcV+noejxaGVEWxCpktAZ9G4JjJuX6Bp7a+5qgtnEvliWnbXN7I6lHhXl4qlKqxmY0bmK16G5O8cv7vsAg8f8H466ssEZp99WdpYix9zc9xyldhn1VycHuHr+FPYeOokLOcVXRBUVUQhx5sIuqKDr6um+klzw0mhDwVr/jee0dgxKqESO2o3PfJyl5z6unHgfPV9ZhVMuL04HGnReiuGt3NZZ83VyRLKBP4/g4PFkRU0jEWuSa5tph4WVfKCwksubQPG3v4w545r7bMLYm3jATVGVZCUbrOS6WqZCVdxQ1C1eUk/uxx9nlDWfpI0q94aTHEupN7ucImNde5GxTvIm8F+Gwp7ZzFZIIPwEKHLCPwa6PVB/OKx/eKSG9f2lAwygFgv5qk37Ymji3YjXjBuIYKC2dy0VW5ZNwfy1v+VYt/xdQtqdaz90gipwP5AuKd1D/GfU8XVXy3IewL9W7Mad7R/VtDpZ7Y95kZOqytZmR50SZcV1bTeQ3J/jUn2fCa8uwM/nJHdCoHi1DpgyoTXKGjwr14PISd0wES/M3+riEmxMnjoo3cqsdaDErY9jxETtlOjqlmTX0MBj6Kz0TSkIclfkKEsUBJZaW20JUrYRqGuXtFFQ4Z7uGNe3aa58a34RQfyjRBD/VVFItPodt+DQNqmmkgMJdV/C9GGPqvoQCpEjzZT0Y19i6tgk7Djjdmv2/7PGJ8v5DYa2nYndohaaVoIIo6vx7ySQFwlQ5ETwqCldAAJ9Ken7S5tdADoQExeHYgk3oW795mjeqiEqFbGjAnsEg7fYtctpB/HdJ+vx6ebvcSI5TbFj7GZXulx93PdEMzzS4DYUtkkYynPD346cLHJiq7fHnH5NLN6Z8eH/mdcT7/1y2W98g+R+sn72MCR9k13cz4aK8+pdT71MdeGZ45kpP2DSq9Pxv7+EBVZY7pr1XYge92nZSWW+Stc7Pb9979GwFn8Q7sQDymx6gJkgaX+zz4rIyRcViyKFiqNig0Z4/OFWqFuliGG9FenaWc6vMOjpOdgnkkyYy1xl/LwYHRGspcbofG0xrY4xVFphjPqr/LvSwgzIQftWRE7+6MKIK5KAGnc9hEcfbYqa5QpZ6ULAxyrfJ4WqPo+kaU/g4PIBOan1pQ2qJ7u/imca3eiyfIdK5LhvIAN/7PwK//73F9i656TKi0Kay0WLCctlAHzk8bES2xswUp5IAhFBgCInIoaBnSABawSUVj59N8ZgCqVa649eEHdmyk7MHTEZ//3DXWdecmUxTtSwD29PfR+HC9+Ef95S0qcjybu/wOdbDuVYzwqKVNrzRCrt0hbc7qzdnfWjpex18/tOwOUnZ4qkCqX9NiCJwI8mvorlLtdHB+7v/S76NjXeSJBFjltM6+afcF39Ci6eS3e7nAprrJTAwX8Ulny8WavL3o9mYvUvF4WrZnFUqXurcPHx3HYqfvpsHbYePZcdY2FH2l3rY2L1DDm7VwyaD1qF7o2Mx8TqNbyPNxIpwf5dXujGo92UxXi2urlUxcHeVySff3HfW+g37D2cEqn91S60qdgwYxBez9mcEZkgo0ujWsP6uD1qN97+6ndxW4EVAxV5SVGidHFLrsLBMZQtbVZje4O7Ls8mgfASoMgJL39enQQCJODExhldMeebsyIF8wOYvrw3bvWJLwinyHHi2KaFGDn3PzlZ3CQXtdvbjsDoZ2sY7KSrY9H8AcoXVRYdp8zHk1Uif7Emxz1EoVDRQsKe5f5dTj+niEEwXz9JWZQ2wElk6jSzIsfsjn0kilItEJ4aJPliGmL8O0NRyyB+xxRMg4OCFTHK859+Dvh6C3BTgicjYRp+/2lP9vNorR6LHfcr5lq/AAAgAElEQVQWiW2c3r4EoyatdQkcOG5A+0lz0ba6nMFRyiwpvcfGzP8KyRnZGXdsuJHAXAIDv7C8KaaOlwq8RZ5JAnmDAEVO3hgn9pIEfAhkpnyG/i8l4ZAznyrQVz4wfO5ql4++h559V+O0Z11gMePYuonPImnrRT+j7kChG+oicfggNNFNfR1pk2YbxrWbgG3p7pxRvj8zVi75rKNfL8aKTadCdJN/Y+//DuK8aN2syDF2IZPiYZqj/4iuprL5hejGTDabhreHdMI7uy8jvkFfLB7WxJSLm8nGdQ8zEjlXM1KRnCJZRbUtAcq/R+9Zgs6zNmdbz9SXzCtCM1ie/s6/tGsxXhq2Fmmug2JFeue5ulZXKaPZnh/X4vOPNmHbkdM4n56dfz/ADgbrrmntsnJtu0hMm27tXng0CVgjQJFjjRePJoGIIuAJls2nac3RqpNjb/f9JR7wpJzOLFEHPccOtSRGLqf9ib8vZOJq+ins/u14dtpfd9/jylZDjSoVUDLOt0ifvXdnd2vJWL9oMbYm++4IO2LLoEGzx3B/Ld+UsXb3wlx7ctHTSi1GY1z7yoanZTmP4/sNP+FvjTqpeW/MPIJUqm2yWix+cyc2xEjkGA6C4oDLR9dg4IgPcdZrPIrf3BTd+r2QB4SmlbsN5Nhsa/iWq3j41Rk5RYbNtuR5R5k9Xj7Ogbj4BNviM42uf+XEGvTptRLHnVKGwDfQqU6s0Sn8OwlcMwQocq6ZoeSNXI8EpGxpC3oPxQZRHLTmM7Mw8TllinEnzif/hYvCcJAvpihKF7f/45aecgbnMiRXj0IomRDntdvtxOFf96DobTVyJTvS9Tj+vOfQEMgUyUQ2bdqLdJREnYcaGGbHC00v2GqoCUjC/PDJBFSqoFcIOdQ9CHX7aSLNf3dR6uAczNbSCXWP2D4J5CYBipzcpM1rkUAICHjc1g7nr47+Cyfg3gCLjIaga2ySBEiABEggTATSfk7CyyPX4XKZFpiaXdssTF3hZUkgLAQocsKCnRclARIgARIgARIgARIgARIIFQGKnFCRZbskQAIkQAIkQAIkQAIkQAJhIUCRExbsvCgJkAAJkAAJkAAJkAAJkECoCFDkhIos2yUBEiABEiABEiABEiABEggLAYqcsGDnRUmABEiABEiABEiABEiABEJFgCInVGTZLgmQAAmQAAmQAAmQAAmQQFgIUOSEBTsvSgIkQAIkQAIkQAIkQAIkECoCFDmhIst2SYAESIAESIAESIAESIAEwkKAIics2HlREiABEiABEiABEiABEiCBUBGgyAkVWbZLAiRAAiRAAiRAAiRAAiQQFgIUOWHBzouSAAmQAAmQAAmQAAmQAAmEigBFTqjIsl0SIAESIAESIAESIAESIIGwEKDICQt2XpQESIAESIAESIAESIAESCBUBChyQkWW7ZIACZAACZAACZAACZAACYSFAEVOWLDzoiRAAiRAAiRAAiRAAiRAAqEiQJETKrJslwRIgARIgARIgARIgARIICwEKHLCgp0XJQESIAESIAESIAESIAESCBUBipxQkWW7JEACJEACJEACJEACJEACYSFAkRMW7LwoCZAACZAACZAACZAACZBAqAhQ5ISKLNslARIgARIgARIgARIgARIICwGKnLBg50VJgARIgARIgARIgARIgARCRYAiJ1Rk2S4JkAAJkAAJkAAJkAAJkEBYCFDkhAU7L0oCJEACJEACJEACJEACJBAqAhQ5oSLLdkmABEiABP6/vTOPs6n84/jHGLOYsY0haxnGFkpJIkmUFO2UlEQYOyX72JfsjSWMyBIhvyiVlimVaFFIKVlqkH1rMIwxd2Z+z7n3nnvOvfece89dZu4dfe5fXuY5z3nO+3nOvc/n+W4kQAIkQAIkQAIBIUCRExDsvCkJkAAJkAAJkAAJkAAJkEBeEaDIySuy7JcESIAESIAESIAESIAESCAgBChyAoKdNyUBEiABEiABEiABEiABEsgrAhQ5eUWW/ZIACZAACZAACZAACZAACQSEAEVOQLDzpiRAAiRAAiRAAiRAAiRAAnlFgCInr8iyXxIgARIgARIgARIgARIggYAQoMgJCHbelARIgARIgARIgARIgARIIK8IUOTkFVn2SwIkQAIkQAIkQAIkQAIkEBACFDkBwc6bkgAJkAAJkAAJkAAJkAAJ5BUBipy8Ist+SYAESIAESIAESIAESIAEAkKAIicg2HlTEiABEiABEiABEiABEiCBvCJAkZNXZNkvCZAACZAACZAACZAACZBAQAhQ5AQEO29KAiRAAiRAAiRAAiRAAiSQVwQocvKKLPslARIgARIgARIgARIgARIICAGKnIBg501JgARIgARIgARIgARIgATyigBFTl6RZb8kQAIkQAIkQAIkQAIkQAIBIUCRExDsvCkJkAAJkAAJkAAJkAAJkEBeEaDIySuy7JcESIAESIAESIAESIAESCAgBChyAoKdNyUBEiABEiABEiABEiABEsgrAhQ5eUWW/ZIACZAACZAACZAACZAACQSEAEVOQLDzpiRAAiRAAiRAAiRAAiRAAnlFgCInr8iyXxIgARIgARIgARIgARIggYAQoMgJCHbelARIgARIgARIgARIgARIIK8IBK3IMZ3eigWLvkZabi5ufWwYHr2liFsGPy8ZgndSi6F6rdZo99wdKFOokNtrjDTIybyAM2lXzU0jS5RF8Qjnfr0Zr5F7B1cbEz6dMww/FroVdzVojPsaV0OYnxgH13MGdjTSWlqXcgFVb7sDdauXRVQR/6zjvH2qM/hs4ZvYfiYbFe/uiq4tKnpxuz+xclIKwhrfjeZNbkNZjffMSKdHvnkTy7ecRESNRzD4mfpGLmEbEiABEiABEiCB64xA0Iqca3+vRMLL63BeAL+nzzq82irMDfozWDqwF95PzULYje2wcM7zKO2nDfjlr6agY9L35vvrjcXz8do/jlpIuVtjhcKLo2zJSHfN/P73XNO3GP7MTOw15SKs4uN4440XUdZPjP0+2Dzu8Mw3SRi6eAeyxH2K1n4Bs4ffjwg/sbiQMgkvzNsueq6Noe9ORpPwEIenMeHSmXO4kuPpQ4ahVNmSOsL0Ara9NQWrj96LyaMeRHEXz3IsdS8iysSjdLT64OEQ5iUMQspJE6q2nYLXu9f2dHC4+msyuo7ahMuojB4LZ6NN+cIe9yFd8NvSfkh8/wiK3tITqyc85FUfvIgESIAESIAESKBgE7huRE6u6SsMaT8b+3Nyvd5k6U1lfogc9T3cLSnL5q22bVPprr3W30PLPISkRQmoHGLcSnBq01j0TN6FHITgzq5LMPKxGG9ubXeNWhz63JlHHcTiuRnJeLp6qEdXSY2z07dhTMIM/JZuURkhRRth3PJhuCXMUYx43LX5gs0zhGj69oILsa4ICo/uEFIfo94bizs05nz7/B6Y9Nkp6WkQ33Y8pnari1BNoXMQs7sPwebT2SjZsD+WJ7a0DsF3kXPgnVfx6toD8GZtqjlQ5Hi0KtiYBEiABEiABK5LAteNyLn03evoOvVrXEMxPD52Kbrc5t69zeiM5qfIKVziJtxWvYzm0C4d/R37TmZYT6jzW+ScwJv9++KjwyYUCr8DY1aOxG1+2NQXPJFzAR+O64/FO9Ps5qj07X0wd/QDiPLZmmNELHgnclyJh1zTQbzRfzhSjl0TzxWLDlPewLO1I5zWoen0BvTrsQzHc4EGnd/C6CdL+0nkKJZYZ0tQOv7YshWHrKJSGVRZNHzoJuxMtrjJyR/5PdF+l2Jwf/eeaFzOOyuR0e8MtiMBEiABEiABEggsgetG5Min3yHFmmHqildQwwMLhbspyE+R48rFxugJ9YfjnhGb8KsoLjbeb49p5ebxjmLp4ERsPqlsErUvyMKVixkwiT8WCo1EsaK+i8i7uy1B9wb/YMuWfchwM8rjP6zDh7vPI6RYHbR/tilKahig9nyyBNuOmBBW6R50aXOzmx6LonbTZogr7pn15diHo9F38W5hzQLCyzXCrRG7sP2QJAwihSvjHOFWWdbdcnL5d0VEWMT6i/Wu4ey5dLP1LDom1qv4HHk9FK3TDW9PaqtjoQGu7F+J/sPWQdILIUXrY3jyGNzpwCf13aEYuOpP8QyOLmVGxJn+o2cdX4e+vVfiZG5xtJv4FjrV03aFs++hLkZu6IbtvV41u8kZ+3hvwTPWv39bydYtS69abPTvZ9w6HILw6FKoFFcfLZ5+Gq3r3aC7Rvz7dP7szYSUqV0x77sLlk5DauDlZVPRvISx91v+bnU/olAULV4UpcvVQ6MHH8WT99b06p10fx+2IAESIAES8JXAdSFyck3bMfb51/BLRg4q3JeIBQMb+srF7np/ipyczFM4faUMypWy//GV7+G7yFE2m9Ufm4EZXau7YeGdVcAfgI3FWlnuJG9CXFkjbJv5PIrFUIsAhNyATtPm47GojRjQbwWOiTgl6f86Tp6DZzQsIEZ5ySKiUHgjTFgzHDUPrbLGpnm7OVfmt3TjQXhrWDMXQzFh19JBGP/+IbOIixEcZ49vrYrPUawtRco/iAljn0SMzXJ1FCsSJ2GrcGO7scVQJHaopnsfrZgy+828/aVV245C95pnbZacjD8/xYpvDgvekvtdImqeO28Xn7Rv3TjMTDmGyNodMfvl5tbO5PGV8tpN0egc+q+dYj2V+4y5cyDeHNHckAgxLnLUIw5BTJ3nMHncUyhfIBJeWMau/g2Qn6bWU0mY+kKcoekwLnLsuwuNroqnBo5Ex4axhu7DRiRAAiRAAvlHIOAi51r6Wfx72dmKkHXkfYycuAmSU9Cdnd5At3ucLQfyZuniV6+hc9IP5o1Z6SoNEBdrLM7EPmubkh3KMSuTv0ROxtFNGDNsCf4ObYDhs4aiQYziMiPfw7i7ml5A9XcY2W4a9mSFofWQleh1t/uEDXJWLL1ld+3MAfx62HJCWqxiXdQs7+zG5M2SNZo1T+o70CLHTuA4WG1ObH4NA2f/ACn/XkjRehj8xjg0Uc2tcTaKiJAFieLO563I2YHxHSZihzgAMJIQwN5tLRxNEuZh6MMW65RibTH+RFotnYX8PszsMhxbzmtbE+3HrWz8Kz0wFm/0vc3pFtoWT1nslSwwIufqH0vQbfhGXBJWvNDQQjCZJBObcQuF+nvL1fdKxtnDOHIqDZcypDQalo+zwPVtzvP6aiVeMFSwMglWQOESLTB9WX9UM2DVV4ucojfUxs2VozSHrMXKX1bcvGbE/kmABEjgv0Yg4CLH2xM0aaIsm6UmWD2sB9bstaR49uRjb0lQTrwdN2H+EDmndi7G6Mkf4WSWOPEXn+L1emDRhIcRaT0J9+TUVT2+I7s+w54TyuYwO20n1q79SWyMiqHhkx1wexlHdw1P3bQULoXC64qMYhPQ2EMXL0/mRK9tIEWOJE4ThyzCwcvS3GkF5puw+fUEzP36rFloh0bXx6C5oz0WOmoRIa9NX0WOOiGHUcuZRdCth6nKI0ic1BnxkZY19NPCBEz85KTP0+n4fp0WIrGPEInXQuLRfearaBhlv2ZDo2Jsmdzk2LsssRaHLByG6llXzMzVH9eWnBJ4bMQktKlSxGv3P58BGOxAdsGVXAMffbwkPnr/N/OzGrVQqL9T3GeaM+HY9sUYM+UTs7uitHFvPWSpOCTJ/yyOBvGomimHA5IF9JF7U7Hx89Pi7+F4YNAy9G1W1G2X6t8hI4cB6amfY8bkxdh1OtPStx+suG4HyQYkQAIkQAIeESjwImfps8etp51C9OiewF3F4T2/48zVXHG6pwT221sS8krkSKl5J2POB3+aT/qlTbKWO4i8IbF3sdHevKk3LLKLlvFZ98wicGDtUAx5509zTEjdp2dh0nPG3D+Mj8fSMuvEbqTsOqZ7mScxOdHVHsBz91fV7avyrQ+iXkVjgedX9r+HoWPfxhGzwHF1wm2fkECy6LycNArNbgg3jELtsqUnciLfec4cb+WPj77oMeHwgSMoHx9nSzetdgfSdpnyNiZHua6McKdbOPQeF65Y9veY2nKHLc285zw8ew8879+3K9S8JRfNWbNuwusvJCNV1A0zaqHwTORYxqsWstHiEGm5cFfUzrLn2/P582r14YA05uT2R9DDnIociKrVGW9OecJtQhBPRY40fnurpzjc8CJjpT85sC8SIAESIAF7AgEXOXoTYqzuTDreHdENq363hK3rxxwoaW/1Y3b8L3Ky037Bwgkz8fnBi5bHDInCnR3HYnC76k61SryNyZFFjns3PVnolTbsrpN1fL0t3iS8XFvMXNDNo5TTnrxsnliyPOlXq61Ri8apnclml0k5cVeJuHYYN+15xIVpu0NKm56Fwj//038sIqRQaHk8MWwCOjfUzpZnPzZ7l63AihxnakrCBb3gd+9Ejs2KgwroOm8uHqusn9Jbbptlze5X5+T7GJy4Aect+tP2yb56GZevZTskyMjB1cvpuJYtBdlHIzwkFk+Pn45H4rTvJ727K5Z8LLLIVUKbFzqgflnjYtXX9Sldr7hfwRpnWFtYrLsIi7WU5MKYhcIbkZO5fzl6DF5vdhMuKJt2tTCzZPw7iWmdE7EtTbJ7uV9XEm9vRI50XXbaZgzvOQf7MixWXn+l1vfHGmIfJEACJPBfJ1CgRU66KB7YU5zYXbLOon72qG8x7AlRxFLU0NEPxjcmcrQWjLQZmDY8ChNf+Z+1eOlqdIhYglFzvsB5q5t7aHRtvDR+FB6upu3r7avIcb9x9ywmwfGUskhkMUT6GIgc99AYjO8Yr/nOKRsyS/Yix62n9sZV3ZW8iRW++GFRiIpwtNQo2eHcs8rEzlVjMPXdvVbrG1CyVidMmeg+GFvitmzoOLwvC1vh9lOnbT+8+mITxLjgp6RAtzyTnsh5pMx5XMyUd/V/4oNle1HhrrtQ46ZyKBFpLBZNphZZoiyKR7i/Jte0AxM6i7gekcJZvwisNyInA59N6YX53/+LkOhKqF+rnNgmOn7i8ezIDogP2W+N28l1a1H0PSbnhCgsPEAUFra4Ihm1nPjvx0R9eKOkxFcLHyNWFm9EjvpwqWCIHPXhQDwGrJiOFiKjmlr4GHE/81bkSHOuvpdRy5H/1gp7IgESIAES0CNQgEXOISzoPRifmut6WD56P8rXjqxGr/5rcFbsDfU3uP4TOUXFSfHVdCntr3lUqNy0F8YPbOlyk+uJJUPLXU39XHJf9jw8ETnp2DSpL5K3/+vXN8fVZkN5fikt8ETc6RAsvGnSs2I8V1xUsXe3yVaEriuRk5O5D28lTsbH+9Os8xeCCo37YNIg+/lTJ8xwFAu5pnP4LGkEkr89aYsXCY+9AwkjBqFlNa34AOcsWkZicq4Kkd/V7JbjfW2oq79vwPT1e5zmObR0Y/To1RKlRcxYTuZhfPbWIqz68gDu6q8X4+COv/ZSkkTh/IGLcSjsAPb/pZUG2rIeKn48xpy6GwYKr/oucuTkHbKY1F6Tfn05VJ2p3a/UAis7/XMM7jwff5kz+blPQOCNyMn4cQ5emPylqDcGGBFSecXAaL/qwwG1wFCSNhgTqb6IHLtaXy4K7hp9JrYjARIgARLwD4ECK3LUsSK1bq2Dv3f/Jn6YtTcjV7ZMx3Mzt4oNpys/fGMiJ/7ebmhZy95KEBJVFY0q/YxXXllntuTYRJdIL9px+EQ8VVfbeqOeQnlD4qoGjWzNyFuRY8KBjRORuGSXzYqhl93O2BLcjmk9l+CgsKL5InJsbnm6aZCV+dMWMe5EjhR4vQzjpynJIaTg63pPDcfoTrc4uReqN0Xa95M4TsboZTtwxZYXIhSxNVuh18BOuKOCInYuiY1lN7GxVEfaGBE5cmC6L5YGPXGtdWCQk3kVprBwJxaWdeCdyJHX0I7/TcGmvaex7+e/hGU2HBVvrovyRSUrUzw6DK2HDQmjsU34pTXonCzckexrEVmuVTKDaRcD9cRd04TvFvTF9E9PWDI2+q3Qq7E3Rr227DPImUQh2k4iJuuKuSN3CQg8FzkXVElcCkLiATUPR1cxdWp89+59vogcQMlgKBXSfW5GMp6uru92aWwVsBUJkAAJkICvBAqoyNmDqZ1G4buLOaIgY1u8NiIKkwesFZaaGFGp/U1Rqd3+B2bvioEY9l6qta7GWNyhmVLUmMjRswLYn+ZFoe7DfTDIjYuSevKubJuHhIU/CktFFyQPbqE5r3+uHYFJH/1j10be/PvLkqNOhywPwr17l6tlqIgL70XOUWG1GyCsdiYXQkk+fS+E+/qvxcCWjqmz9UVO5pkdWDJtNlL2X7BZXtzF07gXORYm6akbMX7Ucuy7pLZShCLmpkboPGgAmt903uYaFXHjTSj5z2FREFPfXU3ePKkD0yNia6BuleIefBfILmCFIK87+eJrGRdxVegFWeTccHSDZtyL883cuQs6XqEVEyPPkX3cmN27pepGHuMvEzp4kIzB6CbUhEtnzon6O2EoVbakjrDzALnhpmr3K+exqi0X7sStUZGTk3kBJ//ehbVvLsbXf1mcfwtCCml7y1ZdjFg7AY3CFIdHdSIPd25kvokc+1pjvn1fGl4obEgCJEACJOCGQAEVOdbq7CO24IEJUvHF3221QCyBp6VVj51uC9gNu7EdFs553uyC4/zxn8hpkrBa1BZxn7bUH6vTnyLHMdA+eESOclKqx9Z0egP69VgmAsX1NrHaIuf4F1MwaP73KmsLUCLuYQwe3R31YvSrpRsVORLDXNMxfDB9It7+4ThsUsdaTLTZP9Mt6ZPNKXu74PCMBebYMXeWHFfFM92vK333K3k92USOrRip+149a6E1T96JnNiLZ1RxSkBBLgaqFjHa8U9qq4FrC4UnLrDK3IUi/oHBGNOnkaoIrGczm1+t1e+AVsY/5TtBGpHrBAS+iRwTNozuiGW7LTFcFDn5tQJ4HxIgARJwTSAoRE6u6TLOnpNjWCwDdlcMNLJEDNJOnECFKpVFitPLNiHj6Eeea/oWw58RSQeEH7t+ZjXpjv4TOZ78yOnFRLhfuDG4v3tPnE3uaD7F9tWSYy9wItGwbSP89dHX1kQK6/BqK3dFRfVG7LslRznJL4JGXeZgyGPlndLaKi6Jeht4bZGTnb4NYxJm4DcRVO8q+53j03kicuRr1bU1Kt6XiDkD6mLj6C5Y/msGitZ4HsnTymHyk5YEGa5EjjoRgGPa9Ozzf2PX35LTZHFUv6MGSmhOi2LJcfyzo8ipcOVvbNmyD5b8hcon+9xPWP2/neZ4IMd6TEbSfYvgGtRu2gxxdjWXtEWO4xjl9XBRJ2WvdkyO+zcq8C1MSJnaFfO+sxTe1XNH+35ed0xJkerAuE6R7JXICQlDpbr3o1P3F3HXjfmbUc4z/uo4Nj2xpxxwSX3rFY+V/uabyIFwI3zGZk305Pvfs2dmaxIgARIgAU8IBIXI0XNHcfUgjj8k8o9UIWt62dusbgvKyWi4OClfKYrb6W3WAyNyvNqImMFYTsLluilaIsc+25x+4oGT383GkBmbccFaBLBpwiz0qbUZfV62jzHyZGFptfXWXS313aEYuOpPa5faJ83yxq9QeDwSpk/GQzc5btD03dXOfDMToz+IRsKwFw2nCvZG5FgeIBOHv/sRV+o2RW2xwTevzxl78czU+WhX/XtbFkB9kQPsWvwyxn54xLYG1P7/7hI4uJtDR5FTWadavKsipUYKt8rjMLL+HeODZEEbqmOZLagix879ShQA7bFwNtqUd67npA6qd2WhULNV1wdzXgPpOLr/KM6bU2xb/yrS3TfvlYSXW9nHP7lbP/n1dzUDqQDohDXDUU9jraoz0jn+NqjH6pvIUYqRSn1S5OTXKuB9SIAESMA1getG5Cg/eiHiR2aVsDxI7mLKyairHzgLosCIHFdFMK8dSMHSzX8jpFgdtH+2KUraedlZTsL3vP6skyVHjkGyr3KuLXL2vT8So5fusQa9R+KWZxIx5tk6yEld5UOhRe1F553IUU5sC4eGCtcvk7kwqX1B1d9VdTGEQaZoFbw4eioeqx2hGoi7xAOefVV4L3Ic7/M7NvwPeOSpm4V1aqtbkdM2dw36D1tnrt2jVTzz1Idj0GPxL+Im3mUEKwgiR51ufXGL3eiY9L0Hk2c0JseDLv3UVJk7IEJY9t6a1k6niKV9TSU9C4XRmBx5+DmZp7Bpzmgs2WrNCmh1qWwXhEH0amuWKwu9vXDUr2Pjm8hRx+SE6MQE+mmRsBsSIAESIAHDBIJM5LjbgLjaqCo//HKQacTlFFvKVe0q7WpOgRE58ggUlz0l0Fk7FbT93GrF5MhZt+xFhbbIufb3avR+dY3YNCsCR6pwrrauBTK7miJeJZeUJWiaOgYT1v9ljm0JL3cvRr02EFX+nI2uU782x7VER19DerpUCLI8npuYhPY2oROsIkc9n85jdLSYtI+7gC1vTsCclMLo/eY0tCxtf9KvbNbyVuQoG2jnd9aVJSfrxCEcja6AuGJaFlVtd7VD372Juck/oP6rC9GpXhGba1GVhybitXrfmBN2qD+uayq5LgJq+JvT7w2d04gbvYXeAY6nIsdyvwsivqSPiC+xJiC4cyDeHNHcyT3U6Njyop066Yan/evVefJN5CjvLVAWLyQtwFM6RWY9HS/bkwAJkAAJeE/gOhI56qJslo1X3Jd9MPGTk4KOXpX24BE5ymZW2Zx6J3JkqwYcThT13dX2rBqFL2J6oW9rJdZFLXJ8c7/wJSZHSWmrZJLKxi/Lh1iETkhldJ8zDGdmvmIu3Ci1eS2pPlYOmINfLwoZJE6iO06WElNIFp3rQ+TIxUCvXr2KiAi1pcqyluWg+9DSQgBO7ojymkk2LG1Do2JQOrqI3beHUUuO7SRdoy6IK5FjWdMii+ANzTBi1gDUi1Ynd9AWOXKxRdliIY/ROcmI5VEKoruavQuap1/oauu1cq13IgdQ18oJKdYMU1e8gssTjUIAABMSSURBVBo6bouejtQf7dUuaJ73p32Q5ovIUepVAa5c5zwfK68gARIgARLwhcB1JXKyjq/HgH4rcEwkGYi8qSpijqWa/61fpT3/RY7p9Fb8b0sE7m19C8pHK6fZLkWO1oY1pChKx0Zj8+vd8fauTNzdbQl63hsGtdte+dtfwpgRbVC+iOTndhRLBydi88lSeHr8dDzi5qQxGESOks46xKE+ikkInWFYX6Qv+lVch76ztgp3O8UVJTttCxL7vI4/RDIBxaLzk5MrmC8vjv/c1dSjcG/JkWOwfBm7fK2W+6ARkWOXvlrDrcqVyLHFV2kWTXSdXe1fc7zdE0jpPgrb0kpqposvqCJHFnLS+IuUqopbq8W4neLTB3fiSJql5LBWimRvRY59jKR3FkG3g/e6QTreHdENq363pMIoVrEuapZ3Fvv23cs1kizFXbXc+3wROeq5c+8x4PWD80ISIAESIAEPCVxXIkcdg6NwcF8IztI2f9zVlA1EKG55dgYmdIgz310+Pc1RZYxyFZStVaxRcjVZPawH1uxVykqGRtdGwuRxaOUUiO96pQTaXa3BxW9tQiW0TCvMmN8bcWH2qb/VmdEKl2iG10RAfk1rwokr+9/D0LFv48jlXBGjUw+D37gfG19Ksstc5uG7Ytf8vytyLohMUv1FHFia4KEd4+BK5LhOSqCXXe2ErZZQtXua4fLWLTgVJgWb90PhrdtwSMqMp/rI2d3CKt2DLm1udprmkvF3o0kN7bxzvqwJb6+1d7/Stspo9W1v0XBOkeytyAlmS07WcXGo0XuluZaUJ4U31UJEy73PW5GTnfYJBr2UjFRxmCYcaIVL7TL0bZY/5QO8XW+8jgRIgAT+KwSuM5EjUk+rrDnSJFpS87YzUPMhf0SOeuOhdgOTg45DS7fCzMW9UUW4h9jairSu0dERYkupfKSN/6SZz6OCzR3JhF1LB2H8+4dEYH5xPPB8K+zb8J55ky+lRm70wkQMeTzOsG+9Nxnv3L00RhMPjFj3In4aOAIpx66ZNzIdprwhCrw6ntaqN9va1dmv7F9pDdKPFK57HXBy3rICL3JcVVK3d3kKQd2nZ2HScxYRbfTjypKTazqHz5JGIPlbS2C6VIh35oJucMzAZhMyqrVsub9ST8Q+KYY8OmeRk3H0H6RXrISI7XPRbfKX1gQZgCVVfG0s7DkIKSfVhVbdP6mrdej+av+3UNfGcZ8gRbm/Y2yKo4XCO5FjH5PjmJLf/0/vWY/q2jjGLPSW/u3FkbM490bk5JoO4o3+w63fUyJZhMj2N1fUYSvrwkXUs6dlaxIgARIgAV8IXHciR9nYWrCEl3sIU+cmOFkBnKF5LnKkSuGpe3/BqaL1cUfoh7ZsZK5iWJQMSsXw+Nil6HKbJSZCyRYUKbLDzRHZ4craRI621Ua92TmHLQvGIemLw+bMY/Ftx2Nqt7oodGE3Fk6Yic8PXhSNHTOSuV42gRM5NXDrrf9g927JHUV5FikZgvK5gJQZQzDfutnWyjImtz2xeS7WZz6FhNZ/IdGhBo0vL06gLDn6Ike1OQ0JQUhODnJC4tF/sXNyAlfPrSdy1DV+pOst1rFxaBLjnOJYSfkdidvbD8KLD9yICFFp59DmtzBrzW6zUKn79DwhwCo7DMVe5DxkWo1XR/2IR+dKqZRP26w50rqwZFDMwR9btuaJJScn8zA+X/kedmXE4/mX2qJypH5hWF/WEWDvfuWqlovWfVxZKDwVOZKIVb5HpLtpHx44jmPPqqGY+ulx8/t6p6hj1a9FXlnJ1Fnl9DOlac+HPWdHgeSZyDEh7cCXSJq2BLtOWwqASvF/naZJaeBDfVsOvJoESIAESMBvBK4rkXNl/zt4ecS7OJll8b2WPzG3dMPM0W0RY45N0fsYEznV7mqDclf2Yu+Bf3A+I8vcWfHb+2BJp9OGRM6uxX1EjZOj4ip1Fp6jWNB7AD49Zj2RtgbMtz2ZZE6Pqy9ypJorazBr/kYcuiRdG4LY23vg9dGtVZarC/h23ijMSpEEkOTv3wiDpw1Co7KuC/0FMiZn6NJ22DZyMv6I7YrZ49XPYpm7/WsGY+jq/VZrglERWzATD2Sn/2UtxqlVPFNeyyYc+WQKBi38SWSYkyw4A1F+yxyzhcO4yIdIz30Qc/oMEXFb2ao1dwJrE0dgzW//mnlLn9Do+hgwawSa3aC9hhytqY5vXIg4FBiePAZ32hUClVrJc1QKjVpUwm/f/Ior2UpK3gspk/DCvO3mdS4LeXvxa7mT74kHFPc4qT89i5WLLxPDfzKd3oB+PZbhuPkry9nlzF1HriwUxuvkCHfZs4fx17EzuGr5SjN/SovvtbmjH9BJYy23UhfcjMeAFdPRokTeCEK1G50nFi95pGqLmWMyGrXIcSywq56DCycO4PiZdFy2FRSSlmNJPPjKDPS+p4y76eLfSYAESIAE8pFAkIkc5+rp9iz+wsZFX+CE2BA4Wksu7X1bnPq+ZxU4IYi772FE/rTJHHwufUrW6oQpE5+yBuFrEVaJnDovIKlHPH7buQM7d/1mJ2i0rpRcb5Z3OWcTOU0SVmPow1p+2Yq7DlSB18pGJwY1a4oMWfvOm2u9PH5Pcaz/7FcNkXMWW5YvxuqUn3DcLG6kH9oo3PLEUIzqdAvCnNwlTDiwcSISl+wyn6IXCq2O/slT0SLW+RRefr5AipyRGyaiwcVzuBBVWkeYWoRb0rbiGKRjTXCep4Ipctx/F9jPrSxqyvy5CD1HbYKUCNiIyM9O+wWzhk/C1uOSi6D0USyKinU0FBUbdsGooXIyC/3RSZafebPfxe/nrCfd1qYlq7TES/2e1Sy66mw9VFsfD2Negto1LRL1nhqO0Rrr3XeRo04JLA0874LvvXW/UsjrWyiMFFrVnsFQVG7aC+MHtnRzMCRd/R1GtpuGPeJgyXVtH/cr2XULpeaZ1M67AH/7+kLqPtQix5ORhhWvhy5jh+PhalGeXMa2JEACJEAC+UAgyESO8SdWRI4JR7fMw4ikr3DBXK1bEjhDMH7AXQg9sN4WfC79RcuKIbmcnfx7L3bs2ooPPtiKM1ftrUBaIyoSWQzlKtdAnVtvx+23N0DtquUQZfoMg55fiNTcXN0f4Oy0zRjecw72ZeSiiIhnmLOwmzmmRt7oSOlHx69sjx3Dx+N9s4uZ5aNlyTm1MxkjJ24S9W1CUKJyY3R+uS9aVnMd8Gq+ZvIW1OnxuttK5oEWOXe6TVlrwlUxVxER9imQ9VZQrukrDGk/G/tzcv1SkTy/3NVcvRGSS9WG6ZOw8qdTZiuLvQuZOkZLSJaKLTFsbIKmuMhO+xGTX5mOn89Jx/iRiI0Nwdmzl80n1M1eSkS/NvH4a/MGXK7dGndUyKuganWMlfTUahGTbYs3yw2PR/OGV/HN1qNm18xS1Vpj4LAX7Z7Ld5GTjk2T+iJ5+79m/DHiEEPLomj820qvpS/uV0qfehYKT0RO4bAoRBeLRZ3GD6BNm5aoa3CeM/cvR4/B6yGlodB2QfSdktSDfVFPIyUBtO+rFpUIqYGXl01Fc2F5MipyCoVGoljRkqgsvvubt3gYzW+rqHGo5J9nZi8kQAIkQAK+EQgykROC8OhohBvwdpBSJifcfclSGPHTVHNxSLXAKW61ZmQc3YTEIYtwUArANzeJwp0dx2Jwu+rmH6eLX72Gzkk/2FxxHHFKP2plKlXDzfXqo0GDBqhfOw7FI7Tc3uw3LEVvENdUVnzTc6+dw/69qbhkdQeRfe9zTTswofNE7BAWJ/lksXD2eXww9VUs337eMi6ReKBC/D2476GmaFSnMmJjYhElXO9O7fwUB0o2Q9OqxjeeUn2V8NBsnD2XLlA410mRn99fIufSj3NsAeNGEw9Ilhz3IsezhX/884kY8IbkzhWO1kNWotfdWsUojfcZSJEjVab/+aPlWLB6G85b15O2C5mDcBBrv07LF9HrpfttMSZSuu2x/WZb6gpZ3cCmvBiJ5AFKQHV4bHXcd99jaHl/TVQsXca89rz5SAcKZ9JUmf9U608dxC2l/X5i2AR0bmhx/1EsSXIyhRhsXTAGr9ve+1DE3HQrmjVrgbubVkeJwpb06lqubErRXe06QcpzZWL/91+JQ4s4NG1Yw+tn9oZTQbpGib+qjB4LpdgpfetwQXoujpUESIAESKDgEwgykaNdqE0Lc+aZbZg5YjZ+lAM/xclvw86TRS0U5wxi9ifVlt5Co6viyX5D0b7OLgzpJFKACguM+F9Ela6IGjfXxe2N78ZddaqibMlIw7Os1HVxfUlodAMMXZBojknY/84gDF57UFzguPk24dj2dzBtzgfWeBv9PqVT2KgIx81FFq5czLCKP61rXW/2PRU5n8/qZq7XExJdDvEViptvmHH2bxz45zws7uuu76ecOvvmGpT63mgkvp9ql4lO5FZSsfBP3EB+ixxpc354z7f4ZMMH2PzbcStTiavk0vUMxo96WjM4XgomtxPMltWP6ApxaHRfJ7QqvAbDV/xhl7BCEgeS+5qStMLwK+BBQ+f1IAmuUYM/RvPE8baU5+o4O8fYmFM71yBp/nr8ccbeJc7YIJju1xgn1602TXpWWLyuIExkFlsoMouVZmYxf2BlHyRAAiRAAn4gEBwi58h6DE7cgPO5sYYKVZ77fi4GTP8Cl8ybZ8lNpwravzIKHRvG6iLJNR0Tm71xwjpice1RYg4K4efP9iCsxq2oVaWUz64HUizCklVf4o99x3HFYTQRMTcKi9C9aPec6iQ9/XMM7jwfh0u1RtKiBKd0vEAm/vnlK3z88ef48Y+jSEvP1LU6ebIe3FUy91Tk7F0xEMPeS9UdQtG4Dpj9egfd9Kr+Ejnq4GTnwbgOWPeEX/6KHBM2z+iO2d+etxtieGxdtO/eD080usFNanATDn6ehEmLvrVZfuT1P6jFIYx9/jUcqd5DwyVLSmyxHsveTcGeI+dUwsoTUtpt9dZfVlYWihSRXRD/xKyuifhGuNHpZ3OTMl1txdqNn2LnLyIZyOV0Q+MsXKIFpi/rj2pu3SJ9f9brt4ffMa1zoijMmoNaTyVh6guepSu/frnwyUiABEiABIKBQFCIHM9ByG44F4VP/qNInNQZ8YZSvErWkWUYP+0jZNXrbSBzkOcj8/wKk0gf/Qq21RgrUuK6r3Iu9Z+RdhoXMy3ud9nnU/FLqv3m18gYilVphHtuLq3b1FORc2XbPCQs/NHOkmPpPAJVGj+CJ++t6dLlR75eCvJ+ZfkQ3Obl5tN0eisWLPoaaWbLnPIJLVUFTe9thcZ1yxquFeSKY/6KHHXms1wUveF2dOzZBQ96GA8gubltWZeMlRt/QU6dnrb1n7rtG6BhMzdp1jPx76k0ZHi53hxZlqnVHA0NuFma49h6r0WDUbPxjFOtJNcr3dE9ztI6BNFWd08j7wnb6BNQEqYYt8CTJwmQAAmQAAnkF4ECKnKkTd8x7NkbitpebFpzMs/i/LUYxBYzEPyTDzORk3kVprBwn61I+TBU3sJK4Fr6Wfx72WJKjCxRVidOy1NcFiEh5TfT6jPj6EEcjaqI6qWMu1B6OoJgbC/FkUVEOBaDDcaR/rfGlHViN1J2HUNI5I1o0ryOgYLL/y0+fFoSIAESIIHAEiiwIiew2Hh3EiABEiABEiABEiABEiCBYCVAkROsM8NxkQAJkAAJkAAJkAAJkAAJeEWAIscrbLyIBEiABEiABEiABEiABEggWAlQ5ATrzHBcJEACJEACJEACJEACJEACXhGgyPEKGy8iARIgARIgARIgARIgARIIVgIUOcE6MxwXCZAACZAACZAACZAACZCAVwQocrzCxotIgARIgARIgARIgARIgASClQBFTrDODMdFAiRAAiRAAiRAAiRAAiTgFQGKHK+w8SISIAESIAESIAESIAESIIFgJUCRE6wzw3GRAAmQAAmQAAmQAAmQAAl4RYAixytsvIgESIAESIAESIAESIAESCBYCVDkBOvMcFwkQAIkQAIkQAIkQAIkQAJeEaDI8QobLyIBEiABEiABEiABEiABEghWAhQ5wTozHBcJkAAJkAAJkAAJkAAJkIBXBChyvMLGi0iABEiABEiABEiABEiABIKVAEVOsM4Mx0UCJEACJEACJEACJEACJOAVAYocr7DxIhIgARIgARIgARIgARIggWAlQJETrDPDcZEACZAACZAACZAACZAACXhFgCLHK2y8iARIgARIgARIgARIgARIIFgJUOQE68xwXCRAAiRAAiRAAiRAAiRAAl4RoMjxChsvIgESIAESIAESIAESIAESCFYCFDnBOjMcFwmQAAmQAAmQAAmQAAmQgFcEKHK8wsaLSIAESIAESIAESIAESIAEgpUARU6wzgzHRQIkQAIkQAIkQAIkQAIk4BUBihyvsPEiEiABEiABEiABEiABEiCBYCVAkROsM8NxkQAJkAAJkAAJkAAJkAAJeEWAIscrbLyIBEiABEiABEiABEiABEggWAlQ5ATrzHBcJEACJEACJEACJEACJEACXhH4P8HSUerzoT3GAAAAAElFTkSuQmCC;" vertex="1" parent="1">
          <mxGeometry x="-30" y="90" width="340" height="369.26" as="geometry" />
        </mxCell>
        <mxCell id="yFkyUFHExI6dtQQUWFf7-9" value="" style="shape=image;verticalLabelPosition=bottom;labelBackgroundColor=default;verticalAlign=top;aspect=fixed;imageAspect=0;image=data:image/png,iVBORw0KGgoAAAANSUhEUgAAA0MAAACdCAYAAAB2HKMtAAAgAElEQVR4Xu2dd2AU1drGn2x6IYEEAgmEGnqCgt3Prigq194QpShdlCpNqoAUpYOAIAJ2uYqoFywI18q1IR2kBQIJISGQQELahnwzu9nsTHZ2d2Z3Npslz/6l5MyZ9/zO2Z3zzFuOX5nwAT8kQAIkQAIkQAIkQAIkQAIkUMMI+FEM1bAZ53BJgARIgARIgARIgARIgARMBCiGuBBIgARIgARIgARIgARIgARqJAGKoRo57Rw0CZAACZAACZAACZAACZAAxRDXAAmQAAmQAAmQAAmQAAmQQI0kQDFUI6edgyYBEiABEiABEiABEiABEqAY4hogARIgARIgARIgARIgARKokQQohmrktHPQJEACJEACJEACJEACJEACFENcAyRAAiRAAiRAAiRAAiRAAjWSAMVQjZx2DpoESIAESIAESIAESIAESIBiiGuABEiABEiABEiABEiABEigRhKgGKqR085BkwAJkAAJkAAJkAAJkAAJeEAMZeDP/6YjNqkl4mMiEODnR8okQAIkQAIkQAIkQAIkQAIkUO0I6C6GilM/wgtDP8aZMmGshiBE1IlD82bXo8fYJ9HC4Dlh9OXUp7Bqe5EMcFiHfnh/yr3VDjoNIgESIAESIAESIAESIAES8D4B3cVQ7nfT0evNP2Uj84/pjKfvuYD9B40ujbjDA6Pwr+RAh9eqFUPFR9/HwBH/xlmXLDFfZBFZSvd0o1vTpTcN/Bgj7g5ytxteTwIkQAIkQAIkQAIkQAIk4ISA7mJo65xeWPhzruy20dcPx0PFS2w8N2pnR41AqGliqCDnIP7c+gt+25+CEympyCkWXXHmj19gHTRploikG27EbTd2RL0Qz3nk1M4h25EACZAACZAACZAACZBAdSOgsxg6hiUDR2JzRqlsnNf3fR/t/nrOLTH0Ypv/YNTEz3HOuudHWHIvLB15u+leNUEMXSo6jZ/+/RY+3Lgbpy+WqFtLQqhiQqfueHl4VySEGtRdw1YkQAIkQAIkQAIkQAIkUAMI6CqGjFmfY0j/NUiXCBYgAX2XzkPpiu7uiaHEdTbhbdKcoMtZDJUZs/Hzu/OxYtMeXFCpgWzWbkAcHh79KnpcXbcGLGsOkQRIgARIgARIgARIgAScE9BVDJ3+ahIGvL1LdteAel0wd1k/7JjerdqKIYuNCQoFHvK3zsIzC/8nG5NFhKX+/S32VvKCmRsasfM/a/BbmtxDFtjwJvS+v53DWWnU4W4kN/SXtdEjz8nUoaE27h05F/1uqON8ZbAFCZAACZAACZAACZAACVzmBHQUQ0YhVK2nIHguypDF3TYObw65Bt/N64f3dhShrLQI+flFuCSXTAiLDEOAHdg3Pr8CvRt5zjPkqhiyvzaOYGH/0diaKRdDTbpMxfz+SZqXlG5iSLizX+gVGLNsIq6NZMic5ongBSRAAiRAAiRAAiRAApcVAd3EUJnxD0zpMQM7C6QxckG4Z9S7GHCDtTpawe+L0GvGFhRLMRquwPh1k3CVg9LbSoJArzA5Q612eOypm1Bboc5A8aHvsHprimzSnZfs/gnjHp2H/Zdk8YIQc6dG3xemeQHZF0MBMhFZVlKACwXO4+ga3TUJi164UrMdvIAESIAESIAESIAESIAELicCuokhJZHjF3wtpnwwBskSkaMUShfY4H7Mf/N5xDs4oNWTYkjrhFrFkBEXzmTjotwBhJLUDZjw2ibkyDqOxgNjpuK+pvIQOGsTf0RExyA80FaRyccegOgm1+HhHo/j9uTGNu3zM37H2jmL8e3hC3aHZah1M2asHoZWHjz3SStTticBEiABEiABEiABEiCBqiagmxhSKqmtFH6m1K5Wx0FYO7Gzw7FXTzGkXD3PtUmsi26zl+KJlrbBgpax58dchX5jh+OOFo69S2XGI0Jo4jhsTpf53yRmxeLZuUvwSDN7gYmujYBXkQAJkAAJkAAJkAAJkIAvEdBJDG3H1KenY3tBpUyg8uIJ1sIEZ7B6+CBsSJGHcrV/fBGmPd2IYsiuGFqHeV83RN++NyBawXOkBO68UPiht1D4QT4j1pZqzm7ypYVMW0mABEiABEiABEiABEhAKwFdxNCFbfPRZ/YP8jwgwRJbz9A2jH/8dew1ynNpHBudhLGfvoorj33gsdLa/jG3YPy0bohTCNMr2LYcw9b8LTPRGiZXNZ4hrZMqtndWdME1MVSEnJwy1K4d4opJvIYESIAESIAESIAESIAEqhUBHcSQEZtn98GSbbk2A6sshgp3vYU+kzYhXxMCz4sh16vJ1QwxVJS1HauEsLrvD5yFKT0qIBId7hmEEc9fi0gHeV6appmNSYAESIAESIAESIAESKCKCbgthkrzvsPo3ktxRMHbU1lk7F49BBM3pGocoufFkOvV5JTEkNneax0WJ1C6zn7OkEZgpuaOhWctPDDxbfTuGOi069K8XzF5wBvYk2/rzat7/XAsHXUTAiiInHJkAxIgARIgARIgARIggepHwG0xdOjDlzHqk8OKI5OLIeV8IedIPC+GnNsgb+E4TM4qhgpyMnG+SF5qvE5sbQT5HceSgSOxWXZgq75i6M/lAzH96ww7Q2uBl1bPxu1Rzs8aOrZuDIZ98I+dfhLQd+k83NfAXoU8rWTZngRIgARIgARIgARIgASqjoCbYugg5j4/Dj+drVRbutx+qRgyZn2OIf3XIF1LupDYT/kZRMkezBnSilutGPpy6lPCIbRFku4tQsmzYqg070dM6Dcf+2VnPlnNCGr8KJbO745oFR4d2zFIaekr4LTOA9uTAAmQAAmQAAmQAAmQgDsE3BJD9gonWAySiiElD5Kh1vUYPbsnmpRvypWKFVj6qE8xpHKec/Hl1CGCCLPN4TJ3YMA1vVdg3APRqvqjZ0gVJjYiARIgARIgARIgARLwQQJuiKE8rBvfFx/sLbQ7bKsYUvKEAHG3jRPOw7mm4npHB7LWTdGnmpwx62csW/Ejcsu0uqiswwxp2RUjnrhC+AfHOUNV7xkyYsc7L2PqF8fsltT2j7oZ098aitZBzkPkxBHbzxkyoP5NQ7F4OHOGfPB7T5NJgARIgARIgARIgAQEAi6LIWelm0W6FjFU+8/F6DtjC6QBY0AkHp26Es8kWZP4lQosWELS9Dp0Vd9Zr05iKBc/L5mIeZtT7QohIAS3vbgEQ+5Q5xWysCrN2Ym3Zi2sqCbnH1Qb7TsPYDU5fRcTeyMBEiABEiABEiABEqhiAi6LoaJDazFg1HrkODDYLIa6438TbT1IgQ26YsGbz8nO9lHKT2nSZSrm909SPDfHmrsDITSscn4OIP07kIHfv/4b2a47hGQjDaifhM6dShUKIVgLKFSVZ6jMmIZPpk7AJ7vOORBCBiTePwUznm/P6m9V/CXj7UiABEiABEiABEiABKonAZfFEPATxj06D/sv2VcXohh6bWgApr7yFS7YjD8AjW4agCkv3YHoQD/hr8pn9nTq8TYmPBytgxhybq+WKTILrbYOxFA2Vg8fhA0pJRXd+gVfiykfjEGyQb8CCgUnv8eMycuxO9t6H9txGBB//YuYMepWngukZZLZlgRIgARIgARIgARI4LIm4IYYOollg4fhmzSjCZBfcDACi4pQLMEVUO8W3FzvN2zdJw+QkxINjb8D46a+gPaRP2D0E4twSJbLYz0Px/0wuaoWQ0exsP9obM20VtpznEOltTKbEYe+nInJa/7CReVifuWYA5B410hMGMQDUi/rbzIHRwIkQAIkQAIkQAIkoJmAG2II2PRad7z1x0XhpkG45v6bcOQ/W3BWJoY648nknXh/S6ZjwwLicHfnevjvpl0yMQVYz8PxNTF0zaX/2oi7kJbdsXLWowh385yhMmM2vl0wHm/9nOEgLE5AbqiNzi++hn63NmBonOavBi8gARIgARIgARIgARK43Am4JYb2vzsc4z5LMRVKmDk6HK+N/LSSGOqC12c2xoL+K3DMqD1Zxz+mM+a8NRBNDH4+FyaXLBSN6CUUjZB6yqKvH463R98srCmlkEB1nqFLRf9g2cuT8d0J+1X8xEUbWOdKDJo0Brc1Cb7c1zDHRwIkQAIkQAIkQAIkQAIuEXBLDF386Q08O/cP3DhwKV5M3ISBI/5tI4bmLuuH0ysGYfrXGaKrAvEtmiPn2GEnoV3msVjFA3QQQ875KFWzk56VZNuDvWpyE3H+jb5Ysk1+1o8l/8lVMVRmPCKUIh+HzelSiVXZqsq5WM7HzRYkQAIkQAIkQAIkQAIkUBMJuCWGilM/woi5RkyY1x21Fc4BsgiJ+IubMbr3UhyvcxdeXzwQoXvewoTXvkaWw1wX4Pq+72P0fWGmeXE/TM4yvUU4dzpH5rHxC45EbO1Q6CWGXn77Rqyz8YYFosNj0/DK0y0R5FKYnLPDVEWtybC4mvgl5phJgARIgARIgARIgARcI+CWGAIOYseOxrjyyhBFsSL1qvy5fCx2XzsRvTuGmiy9eOhDDH/lE5y2WwTNmi+kpxgqM261yeWxlOBWEkP+Mbdg/LRushLgYo5UndjagqhJw+pRE7H1tFTVNUar5sfx5w7b+nniOIJjrkK/sY8jdfmsStfF4PHJs9G1WYDiTO5eOwyT19s/TDUgoi36TZuEzgyLc+2bwKtIgARIgARIgARIgARqHAE3xZCVl5LnRiqGyowlKPUPkCXyOxJEQY0fxdL53RHtJ5bd1s8z5MjDpCSGlFeE9Swh+d+N2PHOy5j6hX3RYm4fgPirn8WY4V2REGpwuuhK0tdj2EtrkWbHkxbcQBBs04cgKdp5X05vxgYkQAIkQAIkQAIkQAIkUEMIVJkYUuZpxM8LB2HO1iybP7d/fBGmPd2o4t/1CpNT6seSm+SOGFJd4U0yUr/QpnhsyGg8cW19B9XejNg8u49N/pGlG7/gthi2ZCpujvGvIUuWwyQBEiABEiABEiABEiABfQh4VQzZ9XgYWmHoqhm4Ncrq6fCkGGp2/2uY26etYs6QMma5Zygv5TvMmfE2dmQpnadkQECAH4xGewlSBtRp8S/hrKUeSFTwEpXmfWfKtzpipxpfm0fmYsazzfRZDQ56yUv5Hes3fY/Uc0FIuPI23HtnJ9QLMXvt+CEBEiABEiABEiABEiABXyTgRTF0CquHD8OGFFsBEX3NECwfe6vMW6KXGMrfOgvPLPyfbK6i2vfC3EkPIO39oZi4IVXFPJrFUPvMP/DxslXYuPM07EmdOh36Yd74Dtg6Zxre+y3DbjsERKPLC9PwfKUzgc4L9vYW7L1kx6rA0FoIDdQuSpp2mYAp3RJVjNWInWvHYOr6IzLbRa9Wr4kz8ECbEBV9sAkJkAAJkAAJkAAJkAAJVD8CXhJDjnJrlM/b0UsMnf5qEga8vctmJkLj78ADLf/Bxz+kyf5WubT2paLj+Pmzjfjyxx9xNKPQ4aGnwQ2E85cW9EPTILNYOb39Xbw2Zz1SL9o7c8mA6PZPYPIrj1fkEu14+0VM+eqk7ivH4g1z1vGF3xehr3BekpLPyz/qdsxe9SKaC+dA8UMCJEACJEACJEACJEACvkbAK2Lo4qH3MHTsp4qltWsLnpTFk7sgvLxwglqgX059Cqu2y7fslipx0j62LemP2Zsz1XZrOlBWPCspoXzDL+YGbZgxAmu2y88QqtxhZLNHMWVm9wohZPm7eGjqOxNnYuPBHEUhVVlAKY1LtfEOGqoVQ1vn9MLCn+2NVd1BsXrYyz5IgARIgARIgARIgARIQG8CVS6GHJbUNiSgz/y5uD9Buby0/cGfxLLBw/BNmlHWxFYMnRFC8wYJoXl263nb3ELp0NUy41680X8ifj2rFLwWgMS7RmLCoGsRaVfQFWH7B1Mwe91+mcfFLzQZIxdPwo3R1mIIFEN6L3n2RwIkQAIkQAIkQAIkQAJmAlUqhgpObsLE0StwWDFMzIDE+6dgxvPtHVRWU562kvR/46XB7yOjUvRZZTFUmvc1RvZYjmP2otQUuvePuQOz3hyMFuWhbpYmSt6tgIjmeGTIWHS7uq6q9XVh/yfCGUYfmcPmDLHoNn0BnqiUg+NtMcQwOVVTyUYkQAIkQAIkQAIkQAI+SKDKxNCF/e/h5Umf2j1ktXJ4mC3Lw1g2ZDp+M9ZDYnyU5M95OLLzAM4pOHsqi6HTm17FoLf+loenGcIRHpyP/AIHs2cIQmSDJmjbrgOuaN4ciR1bCF4f4Ojn0zH76xPChaFIemAAenduhXCNxQxKc3Zj2ayV8Os8HoPuqGcyIjQqFpHlldq8LYYAFlDwwe81TSYBEiABEiABEiABElBBoArE0HMo/M8sTF7zFy7arS6tJjzOiPWTnsHaXUqp/MojlefFKFevEw93XTw5Cf9+bS6+PXxBBTJPN4kXqsctwAOaQwU9a5dYWnvT1l9w8NQlltb2LGr2TgIkQAIkQAIkQAIkUEUEPC6GJj5XiJmz/ouLdgcUgpsGLsCIu2OdDnn/u8Mx7rMUp+3MDYJwz6h3MeCGINP/Ffz1JnpP+86mKlrcbePw5pBrhBZFOPD1YqE62s+KXiaVN3W7mSjOls7vjmiNBSTcvjE7IAESIAESIAESIAESIIEaRsDjYmjusueAzXPw8tLfFMozqxdCJkEjlHnuJZR5LlYxSbZV4I5gzdgp2CDz/sgFk9itWDr723dW4IMte3FBfZ0FFRapa9L+8UWY9nQjdY3ZigRIgARIgARIgARIgARIwGUCVSCGzGWpT22ZhWGL/mcVREKuzi19ZuPFLnGqCyYYsz7HkP5rkO6sAEJAHLpPnYvHKhUjKDNWEkSGJIz5cAquCzLYACwz5uPAT//Gui9/wp7UbJTYC/FzGb3ShSxVrStOdkYCJEACJEACJEACJEACDghUmRgSbagQRIJYeXj0q+ihsuqa1f5tGP/469hrVFZD/kFhSLjiQfTv8xDaxJrD4yp/REH05pBx2JxejOhrhmD52FtViLEinDudg/SUHUg9dwmlOcew8+hZB1iLkHksFTnFzlSbvAu/wE4Y9dZLaMdDTPmlJQESIAESIAESIAESIAGPE9BNDBmzfsayFT8it8wqAAKir0PfAXdK8l+M2PPNlzB2vA9Xxga7MDgjLpzJti3E4B+GmJgIFaLGfEuzIFqEhDFvVLtCBS5A4SUkQAIkQAIkQAIkQAIkQAIuENBNDLlwb69eUmYsQal/gGoB5VVjeXMSIAESIAESIAESIAESIAHdCdRYMaQ7SXZIAiRAAiRAAiRAAiRAAiTgUwQohnxqumgsCZAACZAACZAACZAACZCAXgQohvQiyX5IgARIgARIgARIgARIgAR8igDFkE9NF40lARIgARIgARIgARIgARLQiwDFkF4k2Q8JkAAJkAAJkAAJkAAJkIBPEaAY8qnporEkQAIkQAIkQAIkQAIkQAJ6EaAY0osk+yEBEiABEiABEiABEiABEvApAhRDPjVdNJYESIAESIAESIAESIAESEAvAhRDepFkPyRAAiRAAiRAAiRAAiRAAj5FgGLIp6aLxpIACZAACZAACZAACZAACehFgGJIL5LshwRIgARIgARIgARIgARIwKcIUAz51HTRWBIgARIgARIgARIgARIgAb0IUAzpRZL9kAAJkAAJkAAJkAAJkAAJ+BQBiiGfmi4aSwIkQAIkQAIkQAIkQAIkoBcBiiG9SLIfEiABEiABEiABEiABEiABnyJAMeRT00VjSYAESIAESIAESIAESIAE9CJAMaQXSfZDAiRAAiRAAiRAAiRAAiTgUwQohnxqumgsCZAACZAACZAACZAACZCAXgQohvQiyX5IgARIgARIgARIgARIgAR8igDFkE9NF40lARIgARIgARIgARIgARLQiwDFkF4k2Q8JkAAJkAAJkAAJkAAJkIBPEaAY8qnporEkQAIkQAIkQAIkQAIkQAJ6EaAY0osk+yEBEiABEiABEiABEiABEvApAhRDPjVdNJYESIAESIAESIAESIAESEAvAhRDepFkPyRAAiRAAiRAAiRAAiRAAj5FgGLIp6aLxpIACZAACZAACZAACZAACehFgGJIL5LshwRIgARIgARIgARIgARIwKcIUAz51HTRWBIgARIgARIgARIgARIgAb0IUAzpRZL9kAAJkAAJkAAJkAAJkAAJ+BQBiiGfmi4aSwIkQAIkQAIkQAIkQAIkoBcBiiG9SLIfEiABEiABEiABEiABEiABnyJAMeRT00VjSYAESIAESIAESIAESIAE9CJAMaQXSfZDAiRAAiRAAiRAAiRAAiTgUwQohnxqumgsCZAACZAACZAACZAACZCAXgQohvQiyX5IgARIgARIgARIgARIgAR8igDFkE9NF40lARIgARIgARIgARIgARLQi4DbYmj3Oy9i/OepGuwJQFhkGGIaXIN7uj2Cezo2RJCfn6rry4x78XrfCfjlbB08NXMJurUNcXKdEd/Neg6Lf801tzO0wrDVs3BblEHV/b6c8iRWbi903tYQhFp14tCy40148smH0CY2yPk1lVrkn9qFLz/7FL9sT0Fmbi4KS8wN/IPCUatuQ1z/fw+g66P/h4RQ+7Zf+G0h+rz2Pcoa3ItZi/qjWZA6rpqN1XhB/taZeHr+No1XWZon4ZX103CtoXqMxdkgSnN2YPW8lfh274nyOVRjv3vr1JlN1fnv6teGAcERddCo2ZW444kn0CW5PgJU/m54cvy+br9zNr6/Ng99MBIjPz5UPtRIPDZtFZ5NDnQ+dB9socdzpDoMuzQvFXv2n0ZxuTHBdZqiQ2I9labl4tDOQ8gpLnPe3s+AwKBghIVHI65xHGoF+sJzphSF57KQlpWN/PwilJSW4lL5UP0MAcJ4QhEZXRf168cgLKA6j+dyGYd1mZWVZuLAzlTklZonxD+sPpLaJaje45448BcyLlxStW4DAoIQEh6J+vENER0eoHDNTxjz8BzsFxaHuI9s2OZu9BvWA8nR6va/zo24vFp4QQzJAYY2vBfT5vRDooNNvvmKPGycPhjLfz+HejeMwLLRNzvdDJUZf8fkZ2ZgR4F1cbV5dD5m9WimahZViyFpb4ZwXNdjGkY91MypfeJlBSe/x/xZq/F76nk4/QoIfSfd9xJG97kOkYobwTx8OWWgIODOo9m90/BG/yRVNqiC4UYj9RtGpZuoERNuGKfjpWXGvzC15zT8lSedSef2u7tOdRxClXfl2towILp9d7w25VHEeXnz4uv2O5tw31+bp7DipcH46rixYqjR1w7FinG3VYvfRmf81f5d3+eI2rt6rl3OsT04lFVQcQM/QwSaXtEGdVVt7jWIIekQ/IJRt3EimsWGeW5gbvacn3Ucx9LP4GKx090C4BeI2g2aoXnDSPhXgxdH0qFfLuOoPJ1Fpw9iT2quZC8XjAZtkpBQS50AUS2GZOvWH5GxLZCYUHmerWLI0twQdiXGLp+EayPV2ePmcvWpy3UVQ3WTH8KjN9Z3AKAQJ/bvwO6d+3Ei1/LOB4hK6oPF07ra2eCbu8v64XUMnvszCg2JeGnlbNwZ4+8U9OmNkzFg+d/CwgxAQIARRuF56B91B15f/RJaqPA0SMVQTNOr0Kyu0luWYmQeOy7z5gChuPmFhRh5d6wDG4048e1cjFr2Cy6WljcTPEx1G7dCUvKVaB0fLvyjyOt3/PHbQWQVWRoB0R36YM7ErohW2AiWpH+GIS+uRZqxFh6a/BZ6dwx1ysnTDaQbRv+oJujYUu0bPtGyRHR75SkkqpgvT4/DWf8pn4zG0PcPCM2C0anbeAx7KBmRIc7fzLm7Tp3ZVZ3/rnZtFJw5jtTTObhQUO4yFQYV3WEAFrzaxeHvhqfH7uv2O+Pj62uzcN/b6DP2C1yAQXgG+AnPAOF3VGOEgDNG3v27Z54j3h3TORzccQS5JWXwEzfxZWUQ/gu1GrRDmwQ1QkUqhgSPclg4ghS3C6UoLpB7VuAXhNjm7dAkurp5Do3IPHoAqdkFAovyj+DVCgkJR2h4BEJNUSAluHg+D3n5BTBaGyE0ugnaNK9bTcT/5TIOpW9IEY7v24PMfEGoCutW2Fyb5kqLV1MqhgJDaiFEcRmWoaSwEMXChtbiERR2toiKb4NWDW2/H2XGfOxZPxOvvrfL5GnV4hDw7u9A1d5dVzHUvOtMzOvbVsUIirD9/UmY9cl+YbsvfoLRecRqDL5F+YfOGh5XCvX3yMI7Qwfi85QS+AVfh3/dmoIvvs10ei+p8VIxdPML6wRxYz/8rcyYjR+XTsH8zcdNbwUMYddhypox6BCkrMBPbZmBoQv+Vz5+A+I69cIro/5lJwyuCPs/Exfz9grh1PD28Vg45GqFHzgjti1+ATO/y0BAvXsx/63+SPCykJBuGMOEDeyHU+9VsUZ8rYkR6yc+jdU7i2CodQtmrR2OVqq4u79OfY2U1F5ta8OItN9XYtLMTcgyvRsIRZdR72Dg/3lP8Pu6/Y7Xju+vzS1v9MCCn8Qw6QQ88FBtfPX5btPv8+WyIfDcc8R7vyrGzEPYeTzHNE9h0TEoy8mGGNxhCI5Bm+RmCHfq5ZCKoUDEJnZAkzr234SXGc/j+MEjyMo3ew/9Q+qidVJTFfepKkalOHN0H45lF5YLIX+BS0M0axKrGAZXVnoRp48dxcmzFuHkh4j6bdG2sfiC1Zufy2Ucygwv5Z8QQjszUCQooMBIIUSx4KxZ0GvwakrFUFR8J0Hc2H/pL85zRsoRpJ0zrws//1po2qG1He/pXszuOR6/5FxCWPs+eHd612oijr25HuX39pIYEo2whnSJ/xcjhL6tGnOLIplDH4/GqA8OoCw4CaNXTsUNKlx8JenrMHjQe8gQVkmEsAFf/ngq+k3YiHzhDuFtemLFzIed/thpEUNmw//BnN5j8eNZcadmELxD7wsCylbgWb034hIORYcnx2NSt/ZOF6f8wWc/9r00ZxNGPL8cKUY/XNVzOSY+4shD5fnFqG3D6Hl7PHOHY1jcfwS+y87NfooAACAASURBVDBqEqF6rFP9xnMMy16ei5Jrn0P3h65Q9Dzqdy9zT66sjT+W9ce0TRmm68Xv9hrBO+St/CHv2v8TJvf9Bi2e7Ikn70xUHZeudg6r19pUa7W1nTTET3wxNHduE8zrIfwuCm9stUQIqLlz/tY5GLklAt17P4ubmqvxXqjp1XEbTz9H3LfQlR5KkfbPLqSfF4WJKGRaoyx9L7Iuis/KANRrdgWa1nUW4qNNDIlWXipKx749aSbRZb6vYwHlaGTZKftwqiQc8Q3t5XJo41IkiMO9gjg0vf/xC0Cdhq2RGOdsjVUSHn5hSEhqhwYqIhW0Wae+tbfHUXLqIPad80eDhgmoH6U9r9vZSK2hnX6Cl6YDogr2IfWcGMmg3qupRQyZ7bF6UcX7iPdt1VBpbK7tT5yN+XL6uxfFEJD73XT0WPy7iac9L4b0gdao82QsGdxRFX/phumqnqsEQZBRoYyBeDy3eBEeTFBKOrN2r10MAX+vfAGTvzxp6kTZiyVPSNYW6iMXkPZFnfUe/lG3YMbKYWhtx0OlCqabjVzZMLp5Sy9c7tqPjR7rVL/BWsfgFxCDq7s8hZ7P3OWwaIe793ZlbRQdXIN+L3+GHAe/G+7apfZ679pvjQkPiGiE2x7qq6uIrV5rU+2MWNtZQ/yEX3zBk750aFt8OKY3PtovBos4jkbQejfrOjAgKuEGPNGvh4eLfFTFc0QrBffbS0WJn38UEju2RODJ/diXIb7GFPYJtRqiQ+s4Jzkw2sUQBKmRKoTwny7P93T2Vt7RSLOP7sLR7CKhiR+Cwuu4ufnOw5HdB3C20PTuXwh5a4a2zaNV5gDJc6e0hGu5P5OVe/D+OEpO/YMdJ8+bOAYER6Jew3jERYerZOmMiFSUhKJRcnvUyz+KXUfPmkSsWq+mdjEEwWu4Cymm9QaERLdAcotoBWNd2584G/Xl9HeviiHpRsKeGLJ4hS5BSxUgqYcmEUPWvo47hApy0oe7mnA7V8SQtLqe0j2MmevxYr/VSDfF9KoTZdIFJ8bAD3r1F9RObIsOV9+JBx7siGiFsIECobJcD6GyXLHgobr2ubfxyoNKX5CqWcqubBirxjI97+LKj40+61S/UVjHUNGnULQj8cYH0bfnwy5VSXRmmytro/joe+g/bB3OipsjL4eCetd+2wRZ/URsdVubzlaS7ebrk3F98P5eMQlfzJ98R8ifDIRUIOnpVVQqpBFcNwn/6tbLI167qnqOaKXubvt8QfjsP5VnCvsJqt0EV7SMlXtt/MLR5Mq2iHVYSMEVMQS4shFVGq9VDFn+6vrmWxoyqCXcynLn/JMHcCCzGCFhoYioUxfxsbUR6DTM0N1ZtL2+OozDKoas9hkCwxEdG4+EuCi3oguMZ49i95FsiP5MQ2gskts3Fjz1ORW5b2q9ja6sQel6oxhyfe16VQxtW9xXyG0R83jshbtYKwFpCWu48Os8PDfrv6ZkMan3xJpMq66QgitiyBqjrhwmZ02yF37sGz+GZQufQYxHfpz+wqtPCZXNBL9/SKtnsGr2Y07DAl1fRo6vdGXD6LotCht61Z3VRfc3luOJlo49hsrdWe+rlrde61T18FQ0LMrah8/WvoUvfkmxFvYwXReA+A536x4G5MrasAp93wyT09P+vJQf8O7qD7B5R4bpQVzxcVPEVse1qWL5VjSRhvhJnx2led/i5Z5v4oiYYa5rIYUi/LPlQ6z+YCP2ZZnf0lo+nvDaVd1zRAt1d9tKvQfSkDhJYrqqkCNXxFA+ju7Zj+wCUYa5FyYn5nKcSUvDqTPnUVQqr/qmdfOdfvBvpOWav9mBkY1wpeAV88VP9RiHEedOnUB65lmbanwG/2BExcQLoY2ulCOXhnbKQ+Iyj+zE8bPmYmFqPHOuiCErW4bJufPd8JoYunjwPbw0Zl15InSwkF+zTMivkXsvpG+AzWEO16gYq1EoL/2sUF76otC2sldEulF2HiahVQxZc3XK7BZQ2Di9m1AeXLQNaCqUv14wIFnFmFxpIuWQgH7LFuD+OOcV+Fy5k7NrXNnwOuvT/t+9JYYOY0HfUdiSWQp1RSL0W6eus7J/5aWi4/j2vdX4eNN2nLUWcDN9p/QMA9K+NnKFUKd+QqiTWHrF1wooiLw9Y7++IrZ6r001613qoZeHV0vH5olCCkac2vMVVi//1Oa4BP28dhCOmaiq54ga2vq0Kc09hl0Hs0yi3i+gNhKvTETt8heFRUKI024hxEmUKs5DjrSLoeIzR7A35azp3voVUHB3830eh3cdxDkxI1/4RMZdgdaN9M910Wf2HPVS3cZRirzsdKQJJcovFBqt1fnEIQjlyGvViUVDDWdOlZVmYP+Ok8gXS7tVys2SrWkVhRS0iqFLhWnYuzcdhWIBO4cFFFwt8OT51VFd7lClYkgs8Zd58jC2bfwAH28+UPHmOUTwkCwSPCSxlTwk0rdfN/b/EKPvc5Y0KET+yt78JWHcx1NxnSRfRnoAn7NCCmrFUEFOJg5t/xwrVm5Ear65KIJyaW35Rt1ZhTp3F4mUnzlvKsbdLl26XvuG16XblF+UhW+WrcDv5nJjGj/RuKvvANzQwBXRaA1ZUiOG9FynGgepqbn4nd377Uos+eBHpF+Q+R6gRxiQ2rVxqSgXGUf/xscrVuK/Ry6YxqAt307TsFU3rm72Xyo6jR/XLceaz/9yWcT6ytq0P0nSED9bb6/U66Ul4kD1oihvmH/qN3y0bBU26uy1A6r2OaJ13K62l75FrxzuIz/M0lkhBbViqBRF+fnIzT6FtMzz5nLUHimtLR4umoHjJzM1br4zsPfPEzDVjnDTW+XqnOhzXfUdR/GFTJw8eQpn84oriSJ/hAoV4dQUwZCGdvpHxOGKNg0leUjyXCln5eHViqGSgnyczzmNtFNnBe+juEDsl9a2zKF1P+v87EN95t23etFVDLky9KhmD2HijJ6Kh65aJ099+JJU7Cgdrqcl1tqVQ1f9AuLw8Jip6HmN0lk60oeYNY7dFW5qrinctRzPlVfQc1StT01f7rRx7WBKCILScTlzd2zS+9rSvK8x4pllpkpVaryYeq5Tvcei3J8QqvLrZ1i2ar2uYUCurY0AJHZ+GZNesHf4cNUQEe9SXe13R8T63tqUz7dU7AQ1fAhLlvSq9KLNGkKsdyEFpZVXnHcE/3lrMT75+ahOoadV+xypim+TXOwoH1QpDbVyXEjBtUNXDf7hiEtsifhIz50xpG3zLRUR5qT8OC9Wg3N9HVT/cRiLcpCeegJncgth0hYVH2dFMKRix4DajZLRMk7uvcs9vhcHM83RQM68mq4duqrusGBrWop3I4VcX0eevdI7Ysh0uGgy7nn8OTz0fw3tlISV/uCrVbLS08bthcHlSSoKAY4q1LkihvyDYtHp7m54vtftiLM5FFU6JvUCz9UlIN2gBzboioXL+iDeI/lJji10bcPoW2Io7cuJGLxyp3A2hv2S6lZK+q5TV9eHa9cZkXPoeyxb8iH+SDkny1NRU5Sk8j1dWhvC70ejpLvwbN9euL5xsGvD0Omq6m+/WcQuX/M59mcUSk5Gt/f98uW1KU6qvMqavfOEpPmqziIEdFoqQiEAs9fuvS92yA7RBtQ+3yyWVO1zRK/xO+qn6PRB7EnNNZ/RZ+c8IWP2kYrqXJXDkeR9uyiGAkIQFS0k0zeORrCHn5PmzfdJZOdKD0gVo7TqoPUVLVDLdH+piAhH06vbop6H7fLMXPvOOMqMecg4eQKZ2fkotp5oKmBR5l+alyqcLXTalJ9ur8DFpSIhlG23EMpmElmOvZquiCE/4XkYUTsWjZo0QISDwiLnt85Az/n/M+1Rkp6Yi+ndm3lmun20V13FUN3kh/DojfVlKEpzjuG/W7bicJY5icwQ0Q4DXx2Pu1s4OwDMGnak9hBLaYEE8aDVqR+NRbLCwZfSikJ+wVdj0nuvoKNC6WmpGIppehWa1RV/oGw/ly5k4FBaFvLziio2GwERV2LEoom4MVoaciXPWeoy6j3hwEhPxgBrZ+iJdSzdMPpHNUHHlkpeM9s7X/HgGDzQwXNv6fQYqxi+tfv7ZZiz8lfkCpF5akqZ671O9RiH9j6MSP/rXUyduQHpxeZXae6KIcdrIw8nD57E2fw8FFsiIIUiAbcNnI9hd3vvHC31a9vb9ufj8KbFmLDsV5jfUSqLIV9fm7IQP+GgVXu5ktJxulLVU/v3xXrFpfw0rJ83Hmv/EOshih93xFCwcPCwp58j7oxWzbXSAgnCtrNea7RrGqlwobR8sXAga91WaN8sSqGdVAwZEBwWjiA7kc+XSopQVFwCo2TjawiORmK75ohyWLFOzbictynJP4PjR1NxrtD8o2ZfDIUgrm17NIpwdsaS83tWfQupGPKNcVwqFn6vjx7C6YrQcGUxJA3ttF/gQr6+HXk1pWIoMKQWQuxtf0pLUFBUjFKhQIfFkWXwj0Cjtm1QP1R5n1pm3IvX+07AL+I5mIbauOX5keh7VxIifdLbqP8q1lUM2d8MFWH7+5Mw65P9ENOeoWoTIzlDQ2X5XOnbPkehSvIHpv3S02pzhizTkn/qB8x9ZRH+zDZnnAcL3pg5S/sgoUKQWU90t7cZ0XeKracOa3/g6meJ2rwK/e5YNT1JC3yIdwyIaIv+r03B3U0ceyv0XqeORlvZRqW2WkRMcV4adnyzDms3/IITueYXHJaPln4qvjNbZ+Lp+dtM/6sm10p8u75x4US8/XOG+cWDoT6enf0mHnOpAqD760Tr2nZmvzTxX9k6bR7lgpx/8MOnH+Hf3+ys5I1QFkNVuTbdp2/bw+kvJ6Hfyh2mPziu6ijNK1KOEHAeGaBFxBThzP5tWPfRx9givCWuEPQmS7X0I7av6ueIJ2bK2qf8zbnjcDDp5rNykQVrj2pzhixXlKLgzEkcSs0qz78QMnQi4tGuTXx51Ip0M6/MwiDkilzVtpEqUGWlxTh/7jQyMrJxoaBElqsiF0NZ2L/9OPJMcVvuVbhTZZjHGnluHM49KVo8akZcPHsG6aczkZsvvNiWhcsp9XMW//x9FOdNyWb+qNv0SjSrpyxWpXlFjryaanOGLFNVfOEUjh5Jx4USc9VCQ1A0WnVoXu5ZtJ3QgpMbMWnM2/inQuRpe554bIlUg46rSAyJIzXi73dG4NXPj5V7T+wVGbBQ0SaGpIezauWqHFcOoSrdk0JVOpN8U52/UpqzBWMHLMQ/phKdtqF61tLbnq4mJ1rtSqihVnrO22vdMDrv0VGLqqsmJxUaofVvxehZQ9GxjuM3d55Yp45o6CGGxPyTA398hQ0fb7IJjROry4XVb4f7nngWj9zaGuE2oaGOZ9O1tZGL9RNfwOqd5YUUrh2KFeNuc+ucCFfXnN726yGGRMH11/cbsX7D1zahcWKYRnST6/BIr6dxT0d5iHJVr01Xmdu/Thrip613pQgBPcRQ/qld2LxxPb5UEKN+AZFoeX1X9Oz+LyTFOy8OJB1R1T5HtLHU2jrn2B4cyhLPg9L6Uc7RECs2Htp5CDkmj7V6EVF8LgV7D58pD/2V5i3pIYbEIgrZQrntTORUCo0TR20OdaqHuEaxiAq2HO0gLffty9XkPDcOPcRQ8YVsnM7KxNlzlUPjxIkJQFhkNBrExSOmltxNIw3t1Lpy7Xk1tYoh8b6XCk9h/740IR/RVGtRMW9Jal9p7m4smTgd3x8Tv3MUQxY2VSiGzJvzpYNextdp5SFzYcl4ecmUSqFkFtO0iSFp6JvWhWlvQbgihsR7Sx9UlT1U1rhNV88ZOoYlg1/BDv+m6HTNHbjrvtvRMtreBrwmeoa8I4bEeVfjGfLEOvWMGBJzg/7Chi8+wXfbDgtvnuR3cWcjJ+3JNTEBSM/qURtGq/13wfkVetvvuhgqwokdW/HV+g0KngfhvaUpl/FxdH/qNjSrpRyaW9Vr0zldbS3koW/arhU3ETe/8L5wvINVlLgqhhyLUfdeHlhGVbXPEa0stbSXh75puVJsa1u9S/xX18SQUA5FctaQcIZZ/fZo21hcD66LITE3KOtUFs6cO49Co/zMIWGnjcCQSNSNa4AGMbUUX+ZID9R05ZwhU9nnnekoDQpHeGRtxMbHOswr0cpfbXtPjcNVMSTmBp0RPEBZ2Tm4WFQqryQnzIt/UBjq1GuAhrF1EKQYLikPfVPLoWLjLcsNs17tihgSr5YWF7EcVqxkEz1D9meqisUQUJL+GYa8uBZpJtciEJXUB4undUWkTWKgVQw5yv8xDy0P1tPGhfPGGyahdVyIk/VZiON79iLLnNWmWEjBVTEk3dBUDv2Rh+jF47nFi/BggvpDPqWHCcJBTLx58NUvZ0hNKJTWHxZ5+6otra0tZ8gz69Q9XvKrxcpX2774Auu+/tUmDM5dL5CSna6KCbnHS2uYkX7EvG2/I8+DIy+QLYHqvzadzdofy/pj2qYMU7PAOs1xRQv5uXVK12ce3o7UHPMm1b1CCo7FqF4vDyxjqNrniDPyrv/dePYodh/JNntjxLfwEaFCwJGTj7HQFF5m+lQ618X8j66KIUC6Ga1c3tuZWZa/i2Fw586cQlbWOZswOJPJil4g5d6lfOwl6DuyS+q98DPUQrNOrT10yLtjOtVjHEacFzxzmVlnFMLgytefHS9Q5dFdKkrHvj1pEM60Fz7+CAkPQ6CzdK5LxcgXw+9MnSkXUnBVDEnFpv2QTcmLYuYM2SzYKhdDogW71w7FxE9TKsLlbn/pTQy9s/KDS/qGvy1Gf/IabgxWXm1ygaDe7Sd9eDoLk9BS5tmRZ0gMF9zyRl8s+MmcPGtfDCr9uOQJoXsDhdC986Y/Ont4S8uIBwlnOS0TznKK8UI1Glc3jGofPtWhnbWanP3DfD21TvUbv7JXTY1XwVUbXF0bl6tnSBtH68sO6XVBkY1xywM98eS/rkKsyuTY6r82HZORh/ipqeho7k/uDdP+cspilXJVQfshidrmWal11T1H3LfVXg+lSPtnF9LPm88vU/by2F4r34gqFVJwVQzZ8wxpIyDdmFZc6ScWchA8M3ENUa92sOQcGmd95wneqn+Qbd51IyS6Odo1j1Z5vbyqXnCdpuiQqK54kTOrtP/d++MoEQ7u3SEc3Cv/OPfOKY1VGtopz/NyREbuBVUqpOCqGFLjGbIeOcBqckqz5BUxVGY8jIUvjMKWDHMFFUPYdZiyZgw6VKroZj1lOxpPzVyBbm2VPSjSczHs5f8oDV6+AbAtpOCKZ0ieM6T8UC7N2YQRzy9Hisk7FooOT47HpG7tneY8nNoyA0MX/M9chAKReGjyW+jdMdTut686njPkec+Q9p9pPa6QCs+m907DggHJNt16ap3qYb+5D6kY8uRGzmqxa2JInjMU0WEA1rzaxen3Rz9O1cV+iRgqLzf+1LPdcENL5ZAbR+Ov/mvT8exJzxZyVCG0ci+V86QcHbXgyAJZVUEVIYl6rMWqeo7oYatSH/KzhZznOlj7kIso20IKrokhec6Q+lyjymOTvaU3letugLj4uprzKS39Fp85gr0pZyu8Z3UatkZinLMcs1KcOboPx7ILzSFgfkJhivbtEBfqzH3hqdkGvD0OqRjS4p2zJSI9W8hRVUPbK2X5cQpeTVfEkDxnyA9R8R3QqqFtKDTPGXK8tr0ihkST8oQDQQcIB4KaU6CBhrePx8IhV8s2NCmfjMbQ9w+Y/n5Vz1WY+EiMwmikVYHsV4ZTxiAPDakspLSKoaKsv7Bw4kz8nG7JiVIWeaItcmFjQFynXhg9/F7FeP4yYzZ+WjsbSzYcKBdCBiR2fRWz+iQ53ABK+d3Y/0OMvs/ZD6hnfghd2/B6xhbP9WrdmCoLPs+tU/3GdAzLhszEmaRHHOaW6Hc/+aGlaoSy+F34cekUzN98vMKz3GXUO0KJevsvBfS0t3JfWte2vvb/hEk916Fu1x6avEC2PHxhbTqaRfnvuFZB4yxCQM36yd86B4PXlyoWplBzvattquI54qptzq6TVtiyXxlOuRdZeJ1N0rh2MVScewIHj55GQXn4vn9IXbROaopwFyIpslP2IK0g1AUvkD1ilYSNEJYVJpyH1LRxfUWBVWY8jxOHjyJTSPQ0JwH4CxvkNsIG2TvPf+uovDuOklMHsfeMkCHuIEfL2ZoV/y4P7QxDQlI7NFDpgXfm1dQqhkrys5ByJBW5RWbPoZ9/LTTt0Bp1FfKcrPtZ74WVq+HrrTZeE0Nins/G6YOx/Pdz5WO3DW+Tem5ibhiBVWNuseEkDZfR8kbQ0pH0jaLobXls2io8m2yuGqL2nCHhnQcyjx1G+pmLkkMoQ6Ec/me5sxE71ozC1M+OWK8xHUbbCldfcwOaCEURLhVkYN+O3di1/6gkgd2Aup36Yd7ELgp5VlI8RqHi1tNCxa0i4R8TMWTt67gjyjtvhbRuGL31ZXDvvoexoK/g7cwsVSzp68l16p7d3r1a/Tk9QtGEM8dxRDjPq1BSzCGm0wtYNLGzC5sWeUigljBYKTHv2a/fvHl7bbqb/yX1yrpyZpCzCAH9SHuiJ08/R+zbLH0+ai+rLw9Js39mkL37y9/O+4fVR1K7hPJS2OrPGQJKUXyxUCh1bj2vBX5BqN8iGY2dVAb1xGza77NQyGfabzr3pqLisxB6FxISIRRGCEewvx/KSgqQl38R+QXSstB+CItphjbN1IbWVbZAHmoXFd9JEFVOs7ocoPHWOPSbLWlImqMzg5Tv6NirqfqcIWEVlBQWoKhEWvxBEL0N26JVvPKLQcv3NSDmbuFcxEFoqnAGp36UfK8nL4oh4WdIVoZaiIcV8loWCXktsRVvY6ylUpUrRslPG492qcSu/LwJaR/OqwkpT7hfQAzuGTwdfW9r4CR0x4i03z/A7IUbcKyi7rv9RSQm4V7/1AQMf6xl+Y++/bZlxp8w9sk52C+86XKWW+TpZVszxJB1cx1gcy6WZ9epp+fPk/0r51qouWMAEm4aiFeH3olojeW8zb3rL4bUWG1t46792u5mv7X316a7YsjVED8rE8cRAnqR9lw/nnuOOLLZHTFUmpeKPftPC68RxY+0jLV6SrKzW2R9yDfw6nsUQvb9Q1GvSSs0jvHkYehaLJK2NeLcyaM4npGLEtkZOHb2IYZgxDRqjsax4SpzjJT60VsMiffwxjhcZS6/zvXQTms/jryazqvj2RmHXyCi4xPRNM7eXFtfjtvuT/Rh4+u9eFUMifCsiefi/xmEcLjlQjic9UR5a4JrLSFH5h0hR8Za611eUUfu1dEyMdKHKQytMGz1LNwmeFHUiyEhOTIiAlF1W+Kmzvfj3rs6qU5cFu20nOPyzcb/YdexDOSet3qY/IWSmDHxzXD1TQ/jYQ0J0VaPl/2Efi2M3Glb08WQp9epO3Pj7Wu1iCHxuxBRqy7a39AZ999/p+azWeRjrXoxpK/9+sxcdVib7okhd0L8rAwdRQjoQ9rzvXjiOeLIanfEkPTwVLlXRz0n+cZUkFQVBQK0iCGhjHKAPwIDIxBZLwZxMfZKKau3y9MtLWWhz+bkC2Whi1Eq8Wr5GQIQHByGiOh6DspCa7HQE2LIfP+qHYeWMdtv605op7VX+15N9WLITxDu/ggIDEVkdAxiY53lpDl6WasPG1/vxW0x5GkA0gRX1zw/nrawOvZvfdPpH3UHXl/9ElrQJerhieKPjYcBe6R7S4jYdS+sE86YqY5vgz0y7GrZqbkKZwJeWT8N1/L3qlrOUWWjLCGKIffPxLy+bX3CZhqpnYAx8xB2Hs9BLbfD5LTfm1foQYD7E2cUq70YEgdw6OPRGPXBAVySeG2cDawm/90aA6+1oERNpubu2Plj4y5Bb1yf+9109Fj8p5Df97FQ3p9iyBtzYL5neRjH7raY8OlkXE0x5L2p0HDnooNr0O/lz1DvwTfwxnMtNVzJpr5EoDD9AHan5Qk5KR2FnBR3coZ8adSXk63cnzibTZ8QQ2XGvXi97wT8crZU8XBUZ4OsWX83YtviFzDzuwwwNrRqZ94SNqKc31a1tvBuaghY8mXqebXAiBpLL/c2lgiAAwlPY9Xsx1woiHG5E6qe4zOHmGfYhLBXT2tplWsELEn/gWiU3B5xKiunuXYvXuUZAnsxu+d4/CIcMB3Wvg/end7VK0dReGZs+vTqE2JIHGrWD69j8NyfUUjvkMOZL0n/DENeXIs0o5hj5fgcIn2WEHuxELDmngWjU7fJGPloW5fPliBVTxMw4sS3szFyyW+oJVSqXDb6Zj4cPI3cTv9iufHPpw/H6u1F8GaZdC8N32dve2H/Ggx75TNcaFi58JHPDomG2xAoxfm0wzicfh6GyEZIbtXAjWIMxOsNApeKcrHzizfw2nu7TAVLkp5YjOndE7xhSrW+p8+IISBXKGjwElZuz0E9bl7sLKo8gdFAgdF5xXObqvVKvAyMK837BZP6v4Hdeeaa/+YPa/pXz6kVf0+G45uwbm5UpKueI/M1q0pzfsT4IWvRuNdUFRU4fW10l6u9Rvz9zigs2p2McdN7ItGLh3leroSrx7jEUtgHcM4Qi8TmcQhTOL+methJK2wJSA7lLv+jIcz+2Zc1naAPiSGx+oglXK4Onpq5BN3ahtT0+ZON33KQbXGDezFrUX80C/IjnyomUJqzA6vnrcT3+9KRX1xKMVTF/Hk7EiABEiABEiABqxjyCwhFQrsu6DesB5KFMyz5sSXgU2KIE0gCJEACJEACJEACJEACJEACehGgGNKLJPshARIgARIgARIgARIgARLwKQIUQz41XTSWBEiABEiABEiABEiABEhALwIUQ3qRZD8kQAIkQAIkQAIkQAIkQAI+RYBiyKemi8aSAAmQAAmQAAmQAAmQAAnoRYBiSC+S7IcESIAESIAESIAESIAESMCnCFAM+dR00VgSIAESIAESIAESIAESIAG9CFAM6UWS/ZAACZAACZAACZAACZAACfgUAYohn5ouGksCJEAC4jw1/AAAApZJREFUJEACJEACJEACJKAXAYohvUiyHxIgARIgARIgARIgARIgAZ8iQDHkU9NFY0mABEiABEiABEiABEiABPQiQDGkF0n2QwIkQAIkQAIkQAIkQAIk4FMEKIZ8arpoLAmQAAmQAAmQAAmQAAmQgF4EKIb0Isl+SIAESIAESIAESIAESIAEfIoAxZBPTReNJQESIAESIAESIAESIAES0IsAxZBeJNkPCZAACZAACZAACZAACZCATxGgGPKp6aKxJEACJEACJEACJEACJEACehGgGNKLJPshARIgARIgARIgARIgARLwKQIUQz41XTSWBEiABEiABEiABEiABEhALwIUQ3qRZD8kQAIkQAIkQAIkQAIkQAI+RYBiyKemi8aSAAmQAAmQAAmQAAmQAAnoRYBiSC+S7IcESIAESIAESIAESIAESMCnCFAM+dR00VgSIAESIAESIAESIAESIAG9CFAM6UWS/ZAACZAACZAACZAACZAACfgUAYohn5ouGksCJEACJEACJEACJEACJKAXAYohvUiyHxIgARIgARIgARIgARIgAZ8iQDHkU9NFY0mABEiABEiABEiABEiABPQiQDGkF0n2QwIkQAIkQAIkQAIkQAIk4FMEKIZ8arpoLAmQAAmQAAmQAAmQAAmQgF4EKIb0Isl+SIAESIAESIAESIAESIAEfIoAxZBPTReNJQESIAESIAESIAESIAES0IsAxZBeJNkPCZAACZAACZAACZAACZCATxGgGPKp6aKxJEACJEACJEACJEACJEACehGgGNKLJPshARIgARIgARIgARIgARLwKQIUQz41XTSWBEiABEiABEiABEiABEhALwIUQ3qRZD8kQAIkQAIkQAIkQAIkQAI+ReD/ARmIxlXqDCaqAAAAAElFTkSuQmCC;" vertex="1" parent="1">
          <mxGeometry x="-30" y="535" width="531.83" height="100" as="geometry" />
        </mxCell>
        <mxCell id="yFkyUFHExI6dtQQUWFf7-10" value="" style="endArrow=none;html=1;rounded=0;fillColor=#f8cecc;strokeColor=#b85450;" edge="1" parent="1">
          <mxGeometry width="50" height="50" relative="1" as="geometry">
            <mxPoint x="-50" y="500" as="sourcePoint" />
            <mxPoint x="810" y="500" as="targetPoint" />
          </mxGeometry>
        </mxCell>
        <mxCell id="yFkyUFHExI6dtQQUWFf7-11" value="&lt;b&gt;&lt;font style=&quot;font-size: 22px;&quot;&gt;数据库范式的判断&lt;/font&gt;&lt;/b&gt;" style="text;html=1;align=center;verticalAlign=middle;resizable=0;points=[];autosize=1;strokeColor=none;fillColor=none;" vertex="1" parent="1">
          <mxGeometry x="314" y="13" width="200" height="40" as="geometry" />
        </mxCell>
        <mxCell id="yFkyUFHExI6dtQQUWFf7-12" value="1.计算候选键" style="text;html=1;align=center;verticalAlign=middle;resizable=0;points=[];autosize=1;strokeColor=none;fillColor=none;" vertex="1" parent="1">
          <mxGeometry x="-30" y="650" width="90" height="30" as="geometry" />
        </mxCell>
        <mxCell id="yFkyUFHExI6dtQQUWFf7-13" value="先找出L(左边独有的)，无" style="text;html=1;align=center;verticalAlign=middle;resizable=0;points=[];autosize=1;strokeColor=none;fillColor=none;" vertex="1" parent="1">
          <mxGeometry x="-30" y="678" width="160" height="30" as="geometry" />
        </mxCell>
        <mxCell id="yFkyUFHExI6dtQQUWFf7-14" value="LR是左右都有的，为ABC" style="text;html=1;align=center;verticalAlign=middle;resizable=0;points=[];autosize=1;strokeColor=none;fillColor=none;" vertex="1" parent="1">
          <mxGeometry x="-30" y="698" width="160" height="30" as="geometry" />
        </mxCell>
        <mxCell id="yFkyUFHExI6dtQQUWFf7-16" style="edgeStyle=orthogonalEdgeStyle;rounded=0;orthogonalLoop=1;jettySize=auto;html=1;exitX=1;exitY=0.5;exitDx=0;exitDy=0;" edge="1" parent="1" source="yFkyUFHExI6dtQQUWFf7-15">
          <mxGeometry relative="1" as="geometry">
            <mxPoint x="130" y="770" as="targetPoint" />
          </mxGeometry>
        </mxCell>
        <mxCell id="yFkyUFHExI6dtQQUWFf7-15" value="&lt;font style=&quot;font-size: 16px;&quot;&gt;AC&lt;/font&gt;" style="rounded=1;whiteSpace=wrap;html=1;" vertex="1" parent="1">
          <mxGeometry x="-20" y="740" width="120" height="60" as="geometry" />
        </mxCell>
        <mxCell id="yFkyUFHExI6dtQQUWFf7-17" value="&lt;font style=&quot;font-size: 16px;&quot;&gt;B&lt;/font&gt;" style="rounded=0;whiteSpace=wrap;html=1;" vertex="1" parent="1">
          <mxGeometry x="130" y="740" width="120" height="60" as="geometry" />
        </mxCell>
      </root>
    </mxGraphModel>
  </diagram>
</mxfile>
